<svg width="420" height="320" viewBox="0 0 420 320" fill="none" xmlns="http://www.w3.org/2000/svg">
<g clip-path="url(#clip0_703_8)">
<path d="M270.674 68.2712C312.674 86.1712 383.375 77.0712 408.375 96.4712C433.275 115.771 412.375 163.571 386.775 199.871C361.275 236.171 331.074 260.971 299.574 262.271C267.974 263.471 235.075 241.171 192.174 254.971C149.274 268.671 96.3745 318.471 57.3745 319.671C18.3745 320.871 -6.72549 273.371 2.27451 231.271C11.3745 189.171 54.4745 152.571 83.2745 125.871C112.074 99.1712 126.575 82.4712 143.975 56.5712C161.375 30.7712 181.775 -4.1288 198.575 0.771198C215.375 5.6712 228.674 50.4712 270.674 68.2712Z" fill="white"/>
</g>
<defs>
<clipPath id="clip0_703_8">
<rect width="420" height="320" fill="white"/>
</clipPath>
</defs>
</svg>
