<svg width="426" height="466" viewBox="0 0 426 466" fill="none" xmlns="http://www.w3.org/2000/svg">
<g clip-path="url(#clip0_449_2)">
<path d="M348.416 81.8937C371.116 114.294 386.716 140.094 399.616 167.394C412.516 194.694 422.816 223.494 425.416 255.794C428.016 288.094 422.816 323.994 402.916 347.094C383.016 370.294 348.416 380.794 309.016 406.894C269.616 432.894 225.416 474.494 198.016 464.094C170.716 453.694 160.016 391.394 126.916 350.194C93.8159 308.994 38.3159 288.994 14.3159 252.294C-9.58407 215.694 -1.98406 162.594 24.9159 124.194C51.8159 85.8937 98.0159 62.3937 141.316 39.3937C184.716 16.2937 225.316 -6.20626 260.516 1.99374C295.716 10.2937 325.616 49.3937 348.416 81.8937Z" fill="#EEF4F9"/>
</g>
<defs>
<clipPath id="clip0_449_2">
<rect width="426" height="466" fill="white"/>
</clipPath>
</defs>
</svg>
