<svg width="430" height="418" viewBox="0 0 430 418" fill="none" xmlns="http://www.w3.org/2000/svg">
<g clip-path="url(#clip0_449_8)">
<path d="M373.693 65.8213C404.693 102.221 425.393 140.521 428.993 179.221C432.593 217.821 418.993 256.821 402.393 301.721C385.693 346.621 365.993 397.621 331.093 412.721C296.293 427.821 246.293 407.221 193.993 389.621C141.693 372.121 86.9927 357.621 48.2927 319.821C9.69268 282.021 -12.9073 220.821 8.99267 179.721C30.8927 138.721 97.1927 117.721 146.493 84.6213C195.693 51.4213 227.893 6.12126 264.593 0.621257C301.393 -4.87874 342.693 29.5213 373.693 65.8213Z" fill="#EEF4F9"/>
</g>
<defs>
<clipPath id="clip0_449_8">
<rect width="430" height="418" fill="white"/>
</clipPath>
</defs>
</svg>
