<svg width="384" height="470" viewBox="0 0 384 470" fill="none" xmlns="http://www.w3.org/2000/svg">
<g clip-path="url(#clip0_449_11)">
<path d="M313.394 37.5771C336.094 72.5771 327.494 135.877 333.994 182.777C340.394 229.677 361.894 260.077 374.194 300.777C386.494 341.477 389.494 392.577 366.394 422.977C343.194 453.277 293.894 462.977 248.594 467.377C203.394 471.677 162.394 470.777 119.394 463.877C76.4943 456.877 31.5943 444.077 12.7943 413.477C-6.10569 382.977 1.0943 334.777 5.1943 293.577C9.3943 252.277 10.3943 217.877 16.0943 177.377C21.7943 136.877 32.0943 90.2771 60.5943 57.9771C89.0943 25.6771 135.794 7.57705 186.194 1.87705C236.594 -3.92295 290.594 2.67706 313.394 37.5771Z" fill="#5957AA"/>
</g>
<defs>
<clipPath id="clip0_449_11">
<rect width="384" height="470" fill="white"/>
</clipPath>
</defs>
</svg>
