<svg width="1661" height="1844" viewBox="0 0 1661 1844" preserveAspectRatio="none" fill="none" xmlns="http://www.w3.org/2000/svg">
<path d="M0 13.0001C0 8.66725 0 4.33446 0 0.00125659C553.931 0.000854585 1107.86 0.000854492 1662 0.000854492C1662 538.364 1662 1076.73 1661.67 1615.29C1644.52 1622.86 1627.67 1630.15 1610.89 1637.6C1594.4 1644.92 1577.83 1652.07 1561.58 1659.89C1545.48 1667.64 1528.6 1673.5 1512.56 1681.48C1493.21 1691.11 1473.09 1699.17 1453.31 1707.93C1429.47 1718.49 1405.7 1729.18 1381.8 1739.6C1350.75 1753.13 1319.6 1766.42 1288.51 1779.88C1281.13 1783.07 1273.81 1786.4 1266.53 1789.82C1258.05 1793.8 1249.92 1798.74 1241.15 1801.89C1217.3 1810.45 1193.41 1818.99 1169.12 1826.15C1151.76 1831.27 1133.79 1834.48 1115.97 1837.9C1104.07 1840.19 1091.95 1841.32 1079.94 1843.09C1079.22 1843.2 1078.64 1844.34 1078 1845C1034.64 1845 991.271 1845 947.567 1844.58C940.673 1843.11 934.1 1842.17 927.57 1840.99C909.858 1837.78 892.059 1834.96 874.486 1831.11C840.83 1823.74 808.325 1812.72 776.547 1799.36C744.519 1785.89 713.949 1769.74 684.691 1751.1C654.817 1732.07 626.767 1710.53 601.033 1686.24C584.634 1670.75 568.922 1654.4 554.213 1637.31C540.174 1621 526.362 1604.44 515.63 1585.42C502.299 1561.81 487.436 1539.06 473.476 1515.79C470.367 1510.61 468.065 1504.91 465.736 1499.3C458.386 1481.62 450.232 1464.18 444.158 1446.06C432.462 1411.16 422.268 1375.77 410.871 1340.77C405.095 1323.03 400.638 1304.92 394.432 1287.28C386.625 1265.08 380.706 1242.23 373.852 1219.69C367.235 1197.94 360.507 1176.22 353.755 1154.51C341.544 1115.25 329.193 1076.03 317.099 1036.74C314.216 1027.37 312.389 1017.68 309.594 1008.28C304.374 990.719 298.913 973.231 293.335 955.784C289.737 944.53 285.623 933.442 281.978 922.202C277.587 908.666 273.451 895.048 269.202 881.466C264.171 865.382 259.062 849.322 254.119 833.211C242.558 795.523 231.117 757.798 219.545 720.113C213.543 700.566 207.285 681.097 201.285 661.548C191.109 628.397 181.118 595.189 170.909 562.048C164.455 541.097 157.641 520.257 151.174 499.309C140.849 465.862 130.725 432.353 120.426 398.897C114.122 378.415 107.564 358.01 101.274 337.523C91.0472 304.216 81.0277 270.845 70.7636 237.549C64.0644 215.818 56.9845 194.204 50.2589 172.481C40.1485 139.825 30.1908 107.121 20.1843 74.433C14.103 54.5674 8.06605 34.6883 1.9321 14.8391C1.70304 14.0978 0.662424 13.6074 0 13.0001Z" fill="#5957AA"/>
</svg>
