<svg version="1.1" id="Layer_1" xmlns="http://www.w3.org/2000/svg" xmlns:xlink="http://www.w3.org/1999/xlink" x="0px" y="0px"
	 width="100%" viewBox="0 0 400 194" enable-background="new 0 0 400 194" xml:space="preserve">
<path fill="#000000" opacity="1.000000" stroke="none" 
	d="
M263.000000,1.000000 
	C308.963104,1.000000 354.926239,1.000000 400.944672,1.000000 
	C400.944672,65.577888 400.944672,130.155838 400.944672,195.000000 
	C329.979340,195.000000 258.958313,195.000000 187.178864,194.774963 
	C186.858444,193.997177 187.296478,193.444427 188.089355,192.874161 
	C188.728912,192.708969 189.267151,192.551910 189.262085,192.414963 
	C188.936768,183.629181 188.402985,174.847519 188.269699,166.059723 
	C188.200928,161.525620 187.417953,156.166092 189.457031,152.614487 
	C193.411697,145.726334 194.224518,146.053253 188.221039,140.823654 
	C186.275620,139.129013 183.902496,137.779739 181.514664,136.769852 
	C176.977737,134.851028 177.106995,130.808670 177.364273,127.192078 
	C177.425903,126.325546 181.179245,125.292503 183.298767,125.119125 
	C185.530670,124.936562 187.839310,125.692123 190.058960,126.399612 
	C188.580353,127.889366 187.157181,129.017288 185.734009,130.145203 
	C186.086792,130.618439 186.439575,131.091660 186.792358,131.564896 
	C189.441071,130.121399 192.089783,128.677917 194.738495,127.234436 
	C194.737427,127.773193 194.736374,128.311966 194.735306,128.850723 
	C197.036987,128.962372 199.338669,129.074005 202.248810,129.215164 
	C202.257248,129.229507 202.698990,130.816696 203.304977,130.882095 
	C211.015442,131.714355 218.749466,132.328140 226.477509,132.997513 
	C226.531052,132.715698 226.584595,132.433884 226.638138,132.152069 
	C224.549347,131.604767 222.460556,131.057480 218.830246,130.106277 
	C221.822144,129.218658 223.766266,127.994125 225.415802,128.309662 
	C227.690948,128.744858 229.654480,130.604736 231.914963,131.373947 
	C234.584442,132.282349 237.428284,132.678314 241.014145,133.479004 
	C239.402466,129.278366 239.402466,129.278366 234.308884,129.747910 
	C237.714355,125.394753 237.714355,125.394753 242.967209,128.070312 
	C243.977112,125.040504 244.963272,122.081924 246.099243,118.809166 
	C249.582565,113.565865 253.075287,108.871368 253.382172,102.384392 
	C253.472473,100.475586 256.683319,98.523613 258.738220,96.949303 
	C261.040527,95.185440 264.209656,94.306473 266.024323,92.200386 
	C270.833405,86.619080 268.235107,77.714539 261.327118,75.695633 
	C256.719940,74.349159 258.212280,71.050041 258.169647,68.083046 
	C257.963074,53.716003 258.564758,39.268421 257.192383,25.011841 
	C256.312195,15.868276 255.030441,7.586136 263.000000,1.000000 
z"/>
<path fill="#000000" opacity="1.000000" stroke="none" 
	d="
M158.000000,195.000000 
	C105.710548,195.000000 53.421093,195.000000 1.065819,195.000000 
	C1.065819,130.431488 1.065819,65.862892 1.065819,1.000000 
	C57.687222,1.000000 114.374954,1.000000 171.524506,1.367568 
	C169.930557,5.715265 167.287292,8.444420 162.184509,8.051413 
	C151.126114,7.199714 140.042053,6.681226 128.585419,5.971271 
	C122.165001,5.262314 116.127640,4.608562 109.693398,3.993717 
	C107.529175,4.397424 105.761826,4.762225 103.664246,5.038545 
	C102.208961,4.944001 101.083923,4.937937 99.591919,4.964358 
	C97.852142,4.681668 96.479317,4.366492 94.711060,4.022201 
	C92.860580,5.225868 90.419838,6.254151 90.114578,7.725475 
	C88.453850,15.730325 87.437714,23.866171 85.954834,31.911797 
	C85.200134,36.006561 83.931862,40.006676 82.579529,43.913582 
	C80.541168,44.198219 78.819016,44.618855 76.713394,45.037842 
	C72.018616,46.434212 71.951202,50.359646 72.186440,53.566254 
	C72.535118,58.319096 73.279678,63.983372 78.688850,65.462357 
	C83.801643,66.860306 84.055206,69.803505 84.058861,73.927475 
	C84.067360,83.520988 82.830185,93.294083 87.008957,102.442566 
	C90.377640,109.817520 94.193733,117.327553 103.103806,118.689606 
	C114.040817,120.361511 125.138489,121.012894 136.178268,121.972481 
	C145.080063,122.746239 153.992645,123.439407 162.913620,123.927017 
	C166.317551,124.113068 167.082214,125.797539 167.025818,128.751648 
	C166.940781,133.206833 163.661530,134.897675 160.500793,136.764114 
	C155.485443,139.725723 154.932358,142.271149 157.533371,147.394577 
	C158.511642,149.321518 159.040649,151.740356 158.952148,153.901276 
	C158.457474,165.979813 157.710983,178.048050 157.028442,190.516693 
	C157.337570,192.275726 157.668793,193.637863 158.000000,195.000000 
z"/>
<path fill="#11100E" opacity="1.000000" stroke="none" 
	d="
M157.050537,190.119797 
	C157.710983,178.048050 158.457474,165.979813 158.952148,153.901276 
	C159.040649,151.740356 158.511642,149.321518 157.533371,147.394577 
	C154.932358,142.271149 155.485443,139.725723 160.500793,136.764114 
	C163.661530,134.897675 166.940781,133.206833 167.025818,128.751648 
	C167.082214,125.797539 166.317551,124.113068 162.913620,123.927017 
	C153.992645,123.439407 145.080063,122.746239 136.178268,121.972481 
	C125.138489,121.012894 114.040817,120.361511 103.103806,118.689606 
	C94.193733,117.327553 90.377640,109.817520 87.008957,102.442566 
	C82.830185,93.294083 84.067360,83.520988 84.058861,73.927475 
	C84.055206,69.803505 83.801643,66.860306 78.688850,65.462357 
	C73.279678,63.983372 72.535118,58.319096 72.186440,53.566254 
	C71.951202,50.359646 72.018616,46.434212 76.568954,45.384773 
	C76.260277,47.808262 75.712570,49.883171 75.099747,52.359589 
	C75.795853,55.399498 75.958199,58.501682 77.520798,60.519489 
	C78.633347,61.956131 81.610954,62.229347 83.799301,62.375137 
	C84.428642,62.417068 85.207626,60.212833 85.966637,59.428535 
	C86.327972,65.369774 87.391960,71.005608 86.778046,76.452316 
	C85.847244,84.710434 87.946297,92.310730 89.955360,100.430771 
	C91.630615,104.227959 93.260956,107.640327 95.043106,111.372375 
	C97.783134,112.738228 100.371353,113.784409 103.378235,114.916801 
	C112.864586,115.944115 121.932259,116.885231 131.418396,117.910141 
	C140.629028,118.963249 149.403366,120.177711 158.219406,120.819153 
	C164.519669,121.277542 170.890350,120.704224 177.204208,121.052155 
	C192.358505,121.887238 207.488907,123.456573 222.647858,123.748482 
	C228.213562,123.855652 234.379684,122.189194 239.255249,119.493210 
	C243.206314,117.308426 248.494598,114.100693 246.861237,107.519402 
	C246.763000,107.123619 246.627533,106.737076 246.465698,106.201759 
	C247.730591,106.422813 248.725098,106.596611 249.541077,106.739212 
	C250.964676,99.521156 252.321625,92.640953 253.968826,84.289124 
	C254.588043,88.283073 255.000473,90.943344 255.412491,93.600708 
	C261.291779,94.222275 263.834991,92.665428 265.166138,86.176941 
	C265.607025,84.028030 264.232819,81.012978 262.731323,79.176468 
	C262.025330,78.312927 259.028625,79.164444 257.119141,79.510345 
	C256.189545,79.678749 255.372940,80.470703 254.317902,81.090378 
	C252.667236,73.465561 258.658417,66.169861 253.168732,59.433971 
	C257.275055,57.271725 257.097900,44.969109 253.329300,40.510456 
	C254.179443,39.313457 255.831573,38.052696 255.735260,36.943787 
	C255.242340,31.267942 254.258575,25.636444 253.525467,19.979195 
	C252.946350,15.510242 250.409409,13.549357 246.001190,13.481358 
	C246.001160,12.492128 246.001297,11.832641 246.418152,11.108610 
	C250.929276,11.891098 252.809036,9.882100 253.493530,6.067778 
	C253.802902,4.343922 254.486313,2.687190 255.000000,1.000001 
	C257.370544,1.000000 259.741119,1.000000 262.555847,1.000000 
	C255.030441,7.586136 256.312195,15.868276 257.192383,25.011841 
	C258.564758,39.268421 257.963074,53.716003 258.169647,68.083046 
	C258.212280,71.050041 256.719940,74.349159 261.327118,75.695633 
	C268.235107,77.714539 270.833405,86.619080 266.024323,92.200386 
	C264.209656,94.306473 261.040527,95.185440 258.738220,96.949303 
	C256.683319,98.523613 253.472473,100.475586 253.382172,102.384392 
	C253.075287,108.871368 249.582565,113.565865 245.760498,118.855347 
	C240.141068,124.602455 233.569992,126.911873 226.420364,126.916908 
	C214.318588,126.925415 202.216415,126.361214 190.114410,126.037788 
	C187.839310,125.692123 185.530670,124.936562 183.298767,125.119125 
	C181.179245,125.292503 177.425903,126.325546 177.364273,127.192078 
	C177.106995,130.808670 176.977737,134.851028 181.514664,136.769852 
	C183.902496,137.779739 186.275620,139.129013 188.221039,140.823654 
	C194.224518,146.053253 193.411697,145.726334 189.457031,152.614487 
	C187.417953,156.166092 188.200928,161.525620 188.269699,166.059723 
	C188.402985,174.847519 188.936768,183.629181 189.262085,192.414963 
	C189.267151,192.551910 188.728912,192.708969 188.022125,192.595108 
	C187.055695,191.823349 186.511353,191.313126 185.983047,190.415405 
	C185.409546,188.018127 184.820023,186.008331 184.266815,183.640015 
	C188.180389,179.770096 187.909195,177.971161 182.915314,174.555115 
	C183.825592,172.482559 184.850433,170.690475 185.923325,168.533051 
	C184.907043,166.786865 183.842697,165.406006 182.778366,164.025146 
	C183.173630,164.153839 183.568878,164.282516 183.964142,164.411209 
	C184.258392,162.606995 184.552643,160.802795 184.900970,158.595322 
	C184.114365,156.816345 183.477310,154.455521 182.398346,154.232468 
	C177.250824,153.168442 171.987854,152.647766 166.756683,152.009811 
	C163.906937,151.662262 161.705231,152.291763 161.602173,156.135513 
	C161.228775,160.949936 161.204575,165.504105 161.118362,170.430557 
	C161.081100,171.560516 161.105820,172.318192 161.052490,173.461426 
	C160.672012,175.881287 160.369583,177.915573 159.977875,180.394775 
	C159.966370,183.250336 160.044098,185.661011 160.063690,188.386841 
	C159.020569,189.174606 158.035553,189.647202 157.050537,190.119797 
M159.679810,142.826080 
	C161.214447,144.562744 162.521408,147.473480 164.325012,147.823288 
	C170.568283,149.034119 176.974182,149.577988 183.341309,149.868011 
	C185.115829,149.948822 186.970215,148.276138 188.787964,147.407898 
	C188.055679,146.071411 187.619278,144.000397 186.526031,143.560043 
	C184.588715,142.779648 181.827621,142.136108 180.170197,142.960754 
	C176.565674,144.754181 167.331131,144.390854 164.830276,141.443771 
	C162.715073,138.951172 161.271729,139.768768 159.679810,142.826080 
M168.973618,133.275833 
	C168.549164,135.728012 168.124710,138.180191 167.682495,140.735107 
	C170.912201,140.735107 173.320694,140.735107 175.699951,140.735107 
	C176.459671,131.284134 174.377106,127.056984 168.993591,127.517166 
	C168.993591,129.109268 168.993591,130.742859 168.973618,133.275833 
z"/>
<path fill="#13110D" opacity="1.000000" stroke="none" 
	d="
M246.001434,11.173155 
	C246.001297,11.832641 246.001160,12.492128 245.694427,13.547564 
	C244.969498,13.948827 244.551147,13.954142 243.923767,13.605938 
	C234.846573,12.813006 225.978455,12.373592 216.877136,11.562059 
	C203.439362,11.179365 190.234772,11.168791 176.595184,11.083237 
	C172.291992,10.673512 168.427307,10.287559 164.554459,10.019815 
	C161.306503,9.795273 158.047791,9.730148 154.796295,9.550181 
	C153.527603,9.479961 152.265625,9.288748 150.544312,9.072042 
	C143.888504,8.987143 137.688553,9.016148 131.489914,8.939713 
	C130.639908,8.929232 129.796371,8.394200 128.970276,7.756258 
	C128.983322,6.949151 128.975906,6.487813 128.968506,6.026476 
	C140.042053,6.681226 151.126114,7.199714 162.184509,8.051413 
	C167.287292,8.444420 169.930557,5.715265 171.993164,1.367568 
	C173.388885,1.000000 174.777786,1.000000 176.487152,1.327294 
	C174.973389,3.960082 173.139145,6.265574 171.028305,8.918703 
	C175.025436,8.918703 178.291489,8.918703 181.460785,8.918703 
	C183.022507,6.194276 184.511261,3.597140 186.000000,1.000002 
	C197.020889,1.000000 208.041794,1.000000 219.489029,1.437767 
	C220.068359,9.110672 220.068359,9.110672 227.436569,9.034893 
	C230.550674,9.423491 233.248444,9.720571 235.945312,10.025555 
	C239.297745,10.404675 242.649429,10.790325 246.001434,11.173155 
z"/>
<path fill="#585EAB" opacity="1.000000" stroke="none" 
	d="
M246.418152,11.108612 
	C242.649429,10.790325 239.297745,10.404675 235.945312,10.025555 
	C233.248444,9.720571 230.550674,9.423491 227.390350,8.667156 
	C226.284943,5.807604 225.642471,3.403802 225.000000,1.000000 
	C234.687561,1.000000 244.375122,1.000000 254.531342,1.000001 
	C254.486313,2.687190 253.802902,4.343922 253.493530,6.067778 
	C252.809036,9.882100 250.929276,11.891098 246.418152,11.108612 
z"/>
<path fill="#FCFCFB" opacity="1.000000" stroke="none" 
	d="
M157.028442,190.516693 
	C158.035553,189.647202 159.020569,189.174606 160.407623,188.489136 
	C162.861984,188.910645 164.914261,189.545029 167.129974,190.508362 
	C169.872787,191.539703 172.477081,192.163727 175.022858,192.972000 
	C176.724960,193.512436 178.343872,194.314819 180.000000,195.000000 
	C172.979050,195.000000 165.958099,195.000000 158.468582,195.000000 
	C157.668793,193.637863 157.337570,192.275726 157.028442,190.516693 
z"/>
<path fill="#F0D433" opacity="1.000000" stroke="none" 
	d="
M185.550018,1.000002 
	C184.511261,3.597140 183.022507,6.194276 181.460785,8.918703 
	C178.291489,8.918703 175.025436,8.918703 171.028305,8.918703 
	C173.139145,6.265574 174.973389,3.960082 176.903824,1.327294 
	C179.700012,1.000000 182.400024,1.000000 185.550018,1.000002 
z"/>
<path fill="#E5E23C" opacity="1.000000" stroke="none" 
	d="
M180.437500,195.000000 
	C178.343872,194.314819 176.724960,193.512436 175.022858,192.972000 
	C172.477081,192.163727 169.872787,191.539703 167.591064,190.442139 
	C173.914856,190.298950 179.940933,190.550934 185.967026,190.802917 
	C186.511353,191.313126 187.055695,191.823349 187.667267,192.612625 
	C187.296478,193.444427 186.858444,193.997177 186.710205,194.774963 
	C184.958328,195.000000 182.916672,195.000000 180.437500,195.000000 
z"/>
<path fill="#9797CA" opacity="1.000000" stroke="none" 
	d="
M224.583344,1.000000 
	C225.642471,3.403802 226.284943,5.807604 226.973633,8.579144 
	C220.068359,9.110672 220.068359,9.110672 219.957687,1.437767 
	C221.388885,1.000000 222.777786,1.000000 224.583344,1.000000 
z"/>
<path fill="#FCFCFB" opacity="1.000000" stroke="none" 
	d="
M190.058960,126.399612 
	C202.216415,126.361214 214.318588,126.925415 226.420364,126.916908 
	C233.569992,126.911873 240.141068,124.602455 245.610687,119.169525 
	C244.963272,122.081924 243.977112,125.040504 242.967209,128.070312 
	C237.714355,125.394753 237.714355,125.394753 234.308884,129.747910 
	C239.402466,129.278366 239.402466,129.278366 241.014145,133.479004 
	C237.428284,132.678314 234.584442,132.282349 231.914963,131.373947 
	C229.654480,130.604736 227.690948,128.744858 225.415802,128.309662 
	C223.766266,127.994125 221.822144,129.218658 218.830246,130.106277 
	C222.460556,131.057480 224.549347,131.604767 226.638138,132.152069 
	C226.584595,132.433884 226.531052,132.715698 226.477509,132.997513 
	C218.749466,132.328140 211.015442,131.714355 203.304977,130.882095 
	C202.698990,130.816696 202.257248,129.229507 202.248810,129.215164 
	C199.338669,129.074005 197.036987,128.962372 194.735306,128.850723 
	C194.736374,128.311966 194.737427,127.773193 194.738495,127.234436 
	C192.089783,128.677917 189.441071,130.121399 186.792358,131.564896 
	C186.439575,131.091660 186.086792,130.618439 185.734009,130.145203 
	C187.157181,129.017288 188.580353,127.889366 190.058960,126.399612 
z"/>
<path fill="#EBE72C" opacity="1.000000" stroke="none" 
	d="
M102.959564,114.830597 
	C100.371353,113.784409 97.783134,112.738228 95.408577,111.318932 
	C96.787910,110.143753 97.953575,109.341682 99.119247,108.539619 
	C92.288948,107.920692 92.253059,104.378845 93.817413,99.719688 
	C94.177971,98.645844 93.870605,97.347725 93.870605,96.263672 
	C92.434418,97.635361 91.172440,98.840660 89.910461,100.045959 
	C87.946297,92.310730 85.847244,84.710434 86.778046,76.452316 
	C87.391960,71.005608 86.327972,65.369774 86.170685,59.201241 
	C85.892418,56.372505 85.458740,54.161152 85.442055,51.969177 
	C86.241501,51.220047 86.825615,50.487965 86.972145,49.676830 
	C87.676331,45.778664 88.262329,41.859142 89.152260,38.126369 
	C90.013885,38.998276 90.613541,39.691017 90.955482,40.086040 
	C90.955482,34.070293 90.992920,28.045988 90.905350,22.023497 
	C90.895073,21.316700 90.196594,20.619909 89.857819,19.526146 
	C89.977440,18.090286 90.056389,17.046757 90.463554,15.993637 
	C94.528595,14.896293 91.786064,13.387339 91.037064,11.615696 
	C92.384789,8.832147 93.745644,6.441730 95.106491,4.051315 
	C96.479317,4.366492 97.852142,4.681668 99.692444,5.255232 
	C98.981339,6.390437 97.802750,7.267253 96.329002,8.363657 
	C100.194931,8.363657 103.681641,8.363657 107.229111,8.363657 
	C105.947372,7.081121 104.970924,6.104073 103.994484,5.127026 
	C105.761826,4.762225 107.529175,4.397424 110.045044,4.180982 
	C115.194481,5.281858 119.595390,6.234376 123.928040,7.584986 
	C122.437248,14.375288 121.769981,20.575901 126.891670,25.943308 
	C128.303070,27.422421 129.091675,29.495804 130.366470,31.549038 
	C131.448029,33.929195 132.329178,36.056820 133.183807,38.120380 
	C134.649063,38.352180 136.342850,38.620132 138.013916,39.284721 
	C137.469711,42.146801 136.948227,44.612244 136.426727,47.077686 
	C139.135635,47.157028 141.857468,47.099522 144.549850,47.353809 
	C147.298065,47.613373 150.017334,48.179173 152.534760,48.871956 
	C151.899323,51.052044 151.478409,52.971077 150.926270,55.188572 
	C150.419754,56.493176 150.044434,57.499317 150.172592,57.155746 
	C152.412476,59.148052 154.006149,60.565590 156.708725,62.969444 
	C157.200348,60.007706 157.596466,57.621330 158.381622,55.150978 
	C162.842560,53.233242 165.640396,54.142475 167.968475,58.247818 
	C168.828949,59.765186 171.990311,61.176765 173.679688,60.790119 
	C177.973816,59.807320 181.418198,61.729492 185.267288,62.449219 
	C188.456604,63.045570 192.037399,61.548153 195.444763,60.978359 
	C194.849716,58.012676 194.445892,54.989586 193.580017,52.105198 
	C193.138367,50.633972 191.867294,49.411732 191.177704,47.803345 
	C198.708908,43.213085 199.179977,42.074364 197.262085,33.868088 
	C199.094818,29.919067 197.896332,27.996193 193.622787,27.986729 
	C192.305496,27.285198 191.354752,26.588888 190.403992,25.892578 
	C191.251205,25.220678 192.004059,24.223766 192.965332,23.944637 
	C194.956009,23.366594 197.057526,23.170198 198.736115,22.881716 
	C200.010193,25.980196 201.007050,28.404457 201.672974,31.026703 
	C202.932327,35.009926 203.916733,39.304996 206.440796,42.304432 
	C207.326691,43.357193 212.196777,41.670620 214.877686,40.433361 
	C217.773605,39.096863 220.236816,36.822723 223.202713,34.827553 
	C225.670120,33.456017 227.823608,32.214520 229.986572,31.443062 
	C229.996994,36.716873 230.150604,41.528755 229.896088,46.318958 
	C229.828934,47.582977 228.790695,49.405880 227.706543,49.906067 
	C220.792984,53.095749 219.033356,59.066883 223.530319,65.653473 
	C218.865799,72.304939 218.724442,81.606888 211.384476,86.944145 
	C210.841522,87.338959 211.095276,88.829445 210.637878,89.986130 
	C205.518158,91.440079 200.778503,93.584023 195.951447,93.803253 
	C187.775391,94.174606 179.500702,93.735001 171.350677,92.860786 
	C165.508148,92.234093 159.801331,90.342110 154.286163,88.777130 
	C156.722198,86.827591 158.906052,85.115540 161.334091,83.212044 
	C154.910812,79.708595 149.403137,82.526062 143.513428,85.126152 
	C139.018463,80.829140 134.361130,76.965347 130.924789,72.217781 
	C128.162796,68.401909 126.879288,63.515903 125.090240,58.774109 
	C125.880928,56.920166 126.701958,55.445885 127.130539,53.865204 
	C129.169113,46.346615 122.971985,39.261791 115.829086,41.384041 
	C112.161507,42.473724 108.557297,44.628456 105.668762,47.153370 
	C104.061752,48.558083 102.834671,52.160057 103.534103,53.953777 
	C104.259155,55.813190 107.401154,57.472198 109.695480,57.814285 
	C113.753387,58.419334 117.970009,57.960045 122.450928,58.146538 
	C124.797226,63.903561 126.812790,69.460258 128.558594,75.179710 
	C127.066841,76.432671 125.844833,77.522865 124.622826,78.613068 
	C125.180519,78.125824 125.738220,77.638573 126.295914,77.151321 
	C129.959641,81.409698 133.623367,85.668068 136.717438,89.264328 
	C136.560944,87.901131 136.334076,85.924973 136.417999,84.082962 
	C139.344467,86.091080 141.704346,88.802643 144.620346,89.693054 
	C156.801956,93.412766 168.808868,98.327835 181.711899,97.400085 
	C180.147629,97.955963 178.855301,98.287231 176.848114,98.801735 
	C181.097443,100.388748 184.559906,101.681885 187.762207,103.249245 
	C185.428131,104.021210 183.372665,104.621201 181.277252,105.000038 
	C168.190460,107.365990 155.094727,109.682533 141.544754,112.008675 
	C131.080856,112.261322 121.093803,114.425140 111.051086,112.067604 
	C108.998856,111.585854 106.697029,111.782425 104.590500,112.139587 
	C103.914215,112.254250 103.495903,113.890488 102.959564,114.830597 
M201.991684,47.718163 
	C201.618546,46.204403 201.245407,44.690643 200.677780,42.387848 
	C199.795837,46.866497 199.134262,50.226036 198.472702,53.585575 
	C199.032867,53.765240 199.593018,53.944901 200.153183,54.124561 
	C200.767654,52.257980 201.382111,50.391396 201.991684,47.718163 
M93.086212,20.789230 
	C93.483772,22.494062 93.881340,24.198895 94.278900,25.903727 
	C94.702011,25.733952 95.125122,25.564175 95.548233,25.394400 
	C94.783127,23.630507 94.018021,21.866615 93.086212,20.789230 
z"/>
<path fill="#191814" opacity="1.000000" stroke="none" 
	d="
M90.135330,16.003227 
	C90.056389,17.046757 89.977440,18.090286 89.518814,19.793430 
	C89.056190,26.284433 88.973244,32.115818 88.890297,37.947205 
	C88.262329,41.859142 87.676331,45.778664 86.972145,49.676830 
	C86.825615,50.487965 86.241501,51.220047 85.418503,51.640739 
	C84.594841,50.529377 84.211731,49.765831 83.900589,48.632610 
	C83.613625,46.858479 83.254684,45.454029 82.895744,44.049576 
	C83.931862,40.006676 85.200134,36.006561 85.954834,31.911797 
	C87.437714,23.866171 88.453850,15.730325 90.114578,7.725475 
	C90.419838,6.254151 92.860580,5.225868 94.711060,4.022200 
	C93.745644,6.441730 92.384789,8.832147 90.767700,11.857360 
	C90.386093,13.662515 90.260712,14.832870 90.135330,16.003227 
z"/>
<path fill="#ECEED9" opacity="1.000000" stroke="none" 
	d="
M82.579529,43.913582 
	C83.254684,45.454029 83.613625,46.858479 83.532150,48.628670 
	C79.281609,46.858692 77.237900,49.447594 75.164871,51.958084 
	C75.712570,49.883171 76.260277,47.808262 76.952423,45.386421 
	C78.819016,44.618855 80.541168,44.198219 82.579529,43.913582 
z"/>
<path fill="#35341C" opacity="1.000000" stroke="none" 
	d="
M123.996307,7.186894 
	C119.595390,6.234376 115.194481,5.281858 110.441925,4.142075 
	C116.127640,4.608562 122.165001,5.262314 128.585434,5.971271 
	C128.975906,6.487813 128.983322,6.949151 128.667084,7.710903 
	C126.894402,7.736509 125.445351,7.461702 123.996307,7.186894 
z"/>
<path fill="#EEE83F" opacity="1.000000" stroke="none" 
	d="
M103.664246,5.038545 
	C104.970924,6.104073 105.947372,7.081121 107.229111,8.363657 
	C103.681641,8.363657 100.194931,8.363657 96.329002,8.363657 
	C97.802750,7.267253 98.981339,6.390437 100.059402,5.222747 
	C101.083923,4.937937 102.208961,4.944001 103.664246,5.038545 
z"/>
<path fill="#CBDB2C" opacity="1.000000" stroke="none" 
	d="
M142.001968,112.015450 
	C155.094727,109.682533 168.190460,107.365990 181.277252,105.000038 
	C183.372665,104.621201 185.428131,104.021210 188.107971,103.249557 
	C189.798508,102.636574 190.883102,102.297508 192.295883,101.939423 
	C193.730103,100.619278 194.836151,99.318169 195.951431,97.821487 
	C195.960678,97.625923 196.007019,97.237114 196.431610,97.136414 
	C210.849960,96.880692 229.769318,83.717537 232.856491,66.533562 
	C233.295029,64.092545 234.660660,60.515324 230.434021,59.048874 
	C230.029510,73.325241 223.276871,83.333580 210.978653,89.810562 
	C211.095276,88.829445 210.841522,87.338959 211.384476,86.944145 
	C218.724442,81.606888 218.865799,72.304939 223.530319,65.653473 
	C219.033356,59.066883 220.792984,53.095749 227.706543,49.906067 
	C228.790695,49.405880 229.828934,47.582977 229.896088,46.318958 
	C230.150604,41.528755 229.996994,36.716873 229.995209,31.120113 
	C230.003036,29.896175 230.011703,29.465225 230.280212,28.790976 
	C231.418808,26.245384 232.271011,23.932526 233.181808,21.642973 
	C235.149109,16.697565 237.915070,12.860425 244.132812,13.959455 
	C244.551147,13.954142 244.969498,13.948827 245.694611,13.877307 
	C250.409409,13.549357 252.946350,15.510242 253.525467,19.979195 
	C254.258575,25.636444 255.242340,31.267942 255.735260,36.943787 
	C255.831573,38.052696 254.179443,39.313457 253.329300,40.510456 
	C257.097900,44.969109 257.275055,57.271725 253.168732,59.433971 
	C258.658417,66.169861 252.667236,73.465561 254.317902,81.090378 
	C255.372940,80.470703 256.189545,79.678749 257.119141,79.510345 
	C259.028625,79.164444 262.025330,78.312927 262.731323,79.176468 
	C264.232819,81.012978 265.607025,84.028030 265.166138,86.176941 
	C263.834991,92.665428 261.291779,94.222275 255.412491,93.600708 
	C255.000473,90.943344 254.588043,88.283073 253.968826,84.289124 
	C252.321625,92.640953 250.964676,99.521156 249.541077,106.739212 
	C248.725098,106.596611 247.730591,106.422813 246.465698,106.201759 
	C246.627533,106.737076 246.763000,107.123619 246.861237,107.519402 
	C248.494598,114.100693 243.206314,117.308426 239.255249,119.493210 
	C234.379684,122.189194 228.213562,123.855652 222.647858,123.748482 
	C207.488907,123.456573 192.358505,121.887238 177.204208,121.052155 
	C170.890350,120.704224 164.519669,121.277542 158.219406,120.819153 
	C149.403366,120.177711 140.629028,118.963249 131.481354,117.554733 
	C133.494385,116.077919 135.877274,115.071434 138.225784,113.990288 
	C139.514450,113.397034 140.745132,112.677856 142.001968,112.015450 
z"/>
<path fill="#F2EA1E" opacity="1.000000" stroke="none" 
	d="
M161.180359,170.058258 
	C161.204575,165.504105 161.228775,160.949936 161.992966,156.297119 
	C170.104263,157.131821 177.475586,158.065201 184.846893,158.998581 
	C184.552643,160.802795 184.258392,162.606995 183.964142,164.411209 
	C183.568878,164.282516 183.173630,164.153839 182.778366,164.025146 
	C183.842697,165.406006 184.907043,166.786865 185.512726,168.591370 
	C180.487366,169.204590 175.920364,169.387665 171.354050,169.585922 
	C167.962372,169.733170 164.571564,169.900085 161.180359,170.058258 
z"/>
<path fill="#F2EA1E" opacity="1.000000" stroke="none" 
	d="
M183.029861,174.835571 
	C187.909195,177.971161 188.180389,179.770096 183.879639,183.809921 
	C176.814148,183.907883 170.156631,183.623062 163.543869,182.918182 
	C162.293701,182.784912 161.221481,180.982239 160.067139,179.949875 
	C160.369583,177.915573 160.672012,175.881287 161.475998,173.456818 
	C168.994980,173.656296 176.012421,174.245926 183.029861,174.835571 
z"/>
<path fill="#3F9745" opacity="1.000000" stroke="none" 
	d="
M159.822388,142.490143 
	C161.271729,139.768768 162.715073,138.951172 164.830276,141.443771 
	C167.331131,144.390854 176.565674,144.754181 180.170197,142.960754 
	C181.827621,142.136108 184.588715,142.779648 186.526031,143.560043 
	C187.619278,144.000397 188.055679,146.071411 188.787964,147.407898 
	C186.970215,148.276138 185.115829,149.948822 183.341309,149.868011 
	C176.974182,149.577988 170.568283,149.034119 164.325012,147.823288 
	C162.521408,147.473480 161.214447,144.562744 159.822388,142.490143 
z"/>
<path fill="#3F9B47" opacity="1.000000" stroke="none" 
	d="
M159.977875,180.394775 
	C161.221481,180.982239 162.293701,182.784912 163.543869,182.918182 
	C170.156631,183.623062 176.814148,183.907883 183.843323,184.168442 
	C184.820023,186.008331 185.409546,188.018127 185.983047,190.415421 
	C179.940933,190.550934 173.914856,190.298950 167.427658,190.113190 
	C164.914261,189.545029 162.861984,188.910645 160.465759,188.173965 
	C160.044098,185.661011 159.966370,183.250336 159.977875,180.394775 
z"/>
<path fill="#CEDC29" opacity="1.000000" stroke="none" 
	d="
M141.544754,112.008675 
	C140.745132,112.677856 139.514450,113.397034 138.225784,113.990288 
	C135.877274,115.071434 133.494385,116.077919 131.062897,117.470947 
	C121.932259,116.885231 112.864586,115.944115 103.378235,114.916801 
	C103.495903,113.890488 103.914215,112.254250 104.590500,112.139587 
	C106.697029,111.782425 108.998856,111.585854 111.051086,112.067604 
	C121.093803,114.425140 131.080856,112.261322 141.544754,112.008675 
z"/>
<path fill="#CBDB2C" opacity="1.000000" stroke="none" 
	d="
M75.099747,52.359589 
	C77.237900,49.447594 79.281609,46.858692 83.460175,48.998344 
	C84.211731,49.765831 84.594841,50.529377 85.001511,51.621357 
	C85.458740,54.161152 85.892418,56.372505 86.122047,58.811150 
	C85.207626,60.212833 84.428642,62.417068 83.799301,62.375137 
	C81.610954,62.229347 78.633347,61.956131 77.520798,60.519489 
	C75.958199,58.501682 75.795853,55.399498 75.099747,52.359589 
z"/>
<path fill="#3F9B47" opacity="1.000000" stroke="none" 
	d="
M182.915314,174.555115 
	C176.012421,174.245926 168.994980,173.656296 161.554047,173.071259 
	C161.105820,172.318192 161.081100,171.560516 161.118362,170.430542 
	C164.571564,169.900085 167.962372,169.733170 171.354050,169.585922 
	C175.920364,169.387665 180.487366,169.204590 185.464661,168.956696 
	C184.850433,170.690475 183.825592,172.482559 182.915314,174.555115 
z"/>
<path fill="#3F9B47" opacity="1.000000" stroke="none" 
	d="
M184.900970,158.595322 
	C177.475586,158.065201 170.104263,157.131821 162.342163,156.036850 
	C161.705231,152.291763 163.906937,151.662262 166.756683,152.009811 
	C171.987854,152.647766 177.250824,153.168442 182.398346,154.232468 
	C183.477310,154.455521 184.114365,156.816345 184.900970,158.595322 
z"/>
<path fill="#CADA2C" opacity="1.000000" stroke="none" 
	d="
M168.983612,132.826141 
	C168.993591,130.742859 168.993591,129.109268 168.993591,127.517166 
	C174.377106,127.056984 176.459671,131.284134 175.699951,140.735107 
	C173.320694,140.735107 170.912201,140.735107 167.682495,140.735107 
	C168.124710,138.180191 168.549164,135.728012 168.983612,132.826141 
z"/>
<path fill="#EEE83F" opacity="1.000000" stroke="none" 
	d="
M89.955368,100.430771 
	C91.172440,98.840660 92.434418,97.635361 93.870605,96.263672 
	C93.870605,97.347725 94.177971,98.645844 93.817413,99.719688 
	C92.253059,104.378845 92.288948,107.920692 99.119247,108.539619 
	C97.953575,109.341682 96.787910,110.143753 95.256775,110.999260 
	C93.260956,107.640327 91.630615,104.227959 89.955368,100.430771 
z"/>
<path fill="#EBE72C" opacity="1.000000" stroke="none" 
	d="
M243.923767,13.605938 
	C237.915070,12.860425 235.149109,16.697565 233.181808,21.642973 
	C232.271011,23.932526 231.418808,26.245384 230.072800,28.552910 
	C227.384399,29.742485 225.163239,30.926826 222.633896,32.089981 
	C221.921844,32.149101 221.517975,32.229412 221.118011,31.932953 
	C221.395874,28.637548 227.333725,27.850477 223.371185,22.410290 
	C221.613953,26.559095 220.147705,30.020948 218.572113,33.553612 
	C218.462769,33.624428 218.225922,33.515915 217.841339,33.355415 
	C215.055695,32.679806 213.821457,33.537189 213.887939,36.396103 
	C212.327576,37.658470 210.917450,38.625988 209.282867,39.747517 
	C208.603989,38.974804 207.783493,38.040890 207.030334,36.756607 
	C209.859314,33.848122 212.702942,31.371050 215.346573,28.696302 
	C216.592346,27.435877 217.454102,25.795906 218.489868,24.327917 
	C216.835388,23.219965 215.231033,21.256727 213.517487,21.156258 
	C207.061096,20.777714 200.549179,20.692989 194.096893,21.105471 
	C188.993729,21.431704 184.214890,23.110756 181.039764,28.180906 
	C185.724106,29.201458 189.859909,30.102505 194.107574,31.258263 
	C194.479950,32.003254 194.740479,32.493534 194.582458,32.975769 
	C186.480179,32.313293 178.801895,31.570217 171.107071,31.095089 
	C169.880371,31.019346 167.705002,31.942451 167.513382,32.764114 
	C167.209869,34.065620 167.755646,36.337830 168.749817,37.017078 
	C171.227585,38.709984 174.057602,40.075760 176.935532,40.948875 
	C180.922882,42.158577 185.610184,41.921135 187.059174,47.331192 
	C187.034164,47.513775 187.073776,47.880219 186.833221,48.192078 
	C182.066422,48.838440 177.513641,49.643314 173.020630,49.389618 
	C167.270569,49.064945 161.568649,47.887363 155.544418,47.057690 
	C154.842255,47.067486 154.441666,47.096912 154.032776,46.710556 
	C155.054718,45.199612 156.091278,43.174759 157.114059,43.181694 
	C160.323959,43.203480 162.014664,41.768421 163.009476,38.608421 
	C165.525986,27.684771 166.526352,26.816410 174.515488,28.338245 
	C176.402847,18.507957 168.037064,21.858694 163.533234,19.785547 
	C165.574829,18.999641 167.447479,19.226898 169.245941,18.957996 
	C175.178589,18.070957 181.084412,17.004490 187.357697,15.994095 
	C188.301331,15.696242 188.887772,15.411210 189.474228,15.126177 
	C189.416809,14.751436 189.359390,14.376697 189.301971,14.001956 
	C184.536331,14.001956 179.770691,14.001956 174.628571,14.001232 
	C173.499146,14.001275 172.746170,14.002043 171.565735,14.002880 
	C169.427338,14.002704 167.716415,14.002458 165.670715,14.001467 
	C164.889496,14.000972 164.443069,14.001223 163.665436,14.001463 
	C162.892700,14.002513 162.451187,14.003572 161.546539,14.003428 
	C157.233963,14.002225 153.384476,14.002225 149.055252,14.002225 
	C149.942261,11.790973 150.471420,10.471809 151.000580,9.152645 
	C152.265625,9.288748 153.527603,9.479961 154.796295,9.550181 
	C158.047791,9.730148 161.306503,9.795273 164.554459,10.019815 
	C168.427307,10.287559 172.291992,10.673512 176.918182,11.338681 
	C190.820877,11.757463 203.965591,11.845821 217.110321,11.934178 
	C225.978455,12.373592 234.846573,12.813006 243.923767,13.605938 
z"/>
<path fill="#ECE831" opacity="1.000000" stroke="none" 
	d="
M163.996658,14.001474 
	C164.443069,14.001223 164.889496,14.000972 165.925613,14.263347 
	C168.341278,14.351584 170.167252,14.177197 171.993210,14.002810 
	C172.746170,14.002043 173.499146,14.001275 174.926849,14.280380 
	C179.401245,15.042473 183.200897,15.524693 187.000534,16.006914 
	C181.084412,17.004490 175.178589,18.070957 169.245941,18.957996 
	C167.447479,19.226898 165.574829,18.999641 163.533234,19.785547 
	C168.037064,21.858694 176.402847,18.507957 174.515488,28.338245 
	C166.526352,26.816410 165.525986,27.684771 162.575882,38.608513 
	C157.508286,39.182869 152.036179,36.506512 149.217361,42.721882 
	C150.454636,44.695763 151.642090,46.590153 152.821213,48.523582 
	C152.812881,48.562626 152.749283,48.610905 152.749283,48.610905 
	C150.017334,48.179173 147.298065,47.613373 144.549850,47.353809 
	C141.857468,47.099522 139.135635,47.157028 136.426727,47.077686 
	C136.948227,44.612244 137.469711,42.146801 138.386566,39.326469 
	C143.164337,36.290249 147.546768,33.608906 151.942322,31.297245 
	C151.833389,32.997612 151.711304,34.328304 151.589233,35.658993 
	C154.210907,33.848663 156.069687,31.719358 157.553009,29.354540 
	C157.953079,28.716707 157.213852,27.364265 156.997604,26.339844 
	C156.018524,26.847610 154.935043,27.226883 154.096771,27.907953 
	C153.530487,28.368048 153.309692,29.253378 152.961197,29.607538 
	C151.242065,27.324612 150.304153,27.457266 147.869568,29.990496 
	C141.732361,36.376358 138.684860,36.660870 131.956879,31.568552 
	C131.533722,31.248268 130.770874,31.376785 130.166061,31.296509 
	C129.091675,29.495804 128.303070,27.422421 126.891670,25.943308 
	C121.769981,20.575901 122.437248,14.375288 123.928040,7.584987 
	C125.445351,7.461702 126.894402,7.736509 128.646637,8.056671 
	C129.796371,8.394200 130.639908,8.929232 131.489914,8.939713 
	C137.688553,9.016148 143.888504,8.987143 150.544312,9.072043 
	C150.471420,10.471809 149.942261,11.790973 149.055252,14.002225 
	C153.384476,14.002225 157.233963,14.002225 161.696533,14.216393 
	C162.871979,14.287533 163.434311,14.144504 163.996658,14.001474 
M144.422195,42.023335 
	C143.366135,42.551189 142.310089,43.079048 141.254044,43.606907 
	C141.480530,44.138081 141.707016,44.669254 141.933502,45.200428 
	C143.421539,44.681667 144.909576,44.162903 146.397614,43.644138 
	C145.982651,43.114616 145.567703,42.585094 144.422195,42.023335 
z"/>
<path fill="#EDEA63" opacity="1.000000" stroke="none" 
	d="
M216.877136,11.562059 
	C203.965591,11.845821 190.820877,11.757463 177.353165,11.413662 
	C190.234772,11.168791 203.439362,11.179365 216.877136,11.562059 
z"/>
<path fill="#15150E" opacity="1.000000" stroke="none" 
	d="
M210.637878,89.986130 
	C223.276871,83.333580 230.029510,73.325241 230.434021,59.048874 
	C234.660660,60.515324 233.295029,64.092545 232.856491,66.533562 
	C229.769318,83.717537 210.849960,96.880692 195.967072,97.084648 
	C190.713242,97.147545 186.348526,97.161507 181.983826,97.175476 
	C168.808868,98.327835 156.801956,93.412766 144.620346,89.693054 
	C141.704346,88.802643 139.344467,86.091080 136.284119,83.773514 
	C133.502411,80.558937 131.165375,77.787949 128.828354,75.016953 
	C126.812790,69.460258 124.797226,63.903561 122.523697,57.831074 
	C123.157074,57.911770 124.048409,58.508255 124.939743,59.104744 
	C126.879288,63.515903 128.162796,68.401909 130.924789,72.217781 
	C134.361130,76.965347 139.018463,80.829140 143.698608,85.442093 
	C147.510468,86.877930 150.772217,87.946274 154.033966,89.014626 
	C159.801331,90.342110 165.508148,92.234093 171.350677,92.860786 
	C179.500702,93.735001 187.775391,94.174606 195.951447,93.803253 
	C200.778503,93.584023 205.518158,91.440079 210.637878,89.986130 
z"/>
<path fill="#CBDB2C" opacity="1.000000" stroke="none" 
	d="
M125.090240,58.774109 
	C124.048409,58.508255 123.157074,57.911770 122.192963,57.630745 
	C117.970009,57.960045 113.753387,58.419334 109.695480,57.814285 
	C107.401154,57.472198 104.259155,55.813190 103.534103,53.953777 
	C102.834671,52.160057 104.061752,48.558083 105.668762,47.153370 
	C108.557297,44.628456 112.161507,42.473724 115.829086,41.384041 
	C122.971985,39.261791 129.169113,46.346615 127.130539,53.865204 
	C126.701958,55.445885 125.880928,56.920166 125.090240,58.774109 
z"/>
<path fill="#CBDB2C" opacity="1.000000" stroke="none" 
	d="
M187.084183,47.148609 
	C185.610184,41.921135 180.922882,42.158577 176.935532,40.948875 
	C174.057602,40.075760 171.227585,38.709984 168.749817,37.017078 
	C167.755646,36.337830 167.209869,34.065620 167.513382,32.764114 
	C167.705002,31.942451 169.880371,31.019346 171.107071,31.095089 
	C178.801895,31.570217 186.480179,32.313293 194.835602,33.093643 
	C195.995071,33.488308 196.482864,33.757061 196.970642,34.025810 
	C199.179977,42.074364 198.708908,43.213085 190.861404,47.655304 
	C189.253738,47.570110 188.168961,47.359360 187.084183,47.148609 
z"/>
<path fill="#EEE934" opacity="1.000000" stroke="none" 
	d="
M193.995728,31.003551 
	C189.859909,30.102505 185.724106,29.201458 181.039764,28.180906 
	C184.214890,23.110756 188.993729,21.431704 194.096893,21.105471 
	C200.549179,20.692989 207.061096,20.777714 213.517487,21.156258 
	C215.231033,21.256727 216.835388,23.219965 218.489868,24.327917 
	C217.454102,25.795906 216.592346,27.435877 215.346573,28.696302 
	C212.702942,31.371050 209.859314,33.848122 206.710907,36.614525 
	C204.884064,34.824776 203.443985,32.826744 202.003906,30.828716 
	C201.007050,28.404457 200.010193,25.980196 198.736115,22.881716 
	C197.057526,23.170198 194.956009,23.366594 192.965332,23.944637 
	C192.004059,24.223766 191.251205,25.220678 190.403992,25.892578 
	C191.354752,26.588888 192.305496,27.285198 193.625717,28.363297 
	C193.995361,29.497906 193.995544,30.250729 193.995728,31.003551 
M202.934982,23.302198 
	C202.986908,23.778811 203.038818,24.255424 203.090744,24.732042 
	C203.513031,24.621861 203.935318,24.511679 204.357620,24.401485 
	C204.072220,23.993320 203.786819,23.585155 202.934982,23.302198 
M207.434189,32.487083 
	C207.434189,32.487083 207.520584,32.440231 207.434189,32.487083 
z"/>
<path fill="#1E2013" opacity="1.000000" stroke="none" 
	d="
M187.059174,47.331192 
	C188.168961,47.359360 189.253738,47.570110 190.654816,47.928905 
	C191.867294,49.411732 193.138367,50.633972 193.580017,52.105198 
	C194.445892,54.989586 194.849716,58.012676 195.444763,60.978359 
	C192.037399,61.548153 188.456604,63.045570 185.267288,62.449219 
	C181.418198,61.729492 177.973816,59.807320 173.679688,60.790119 
	C171.990311,61.176765 168.828949,59.765186 167.968475,58.247818 
	C165.640396,54.142475 162.842560,53.233242 157.952652,55.073616 
	C155.108932,55.016857 153.083206,54.953484 151.057480,54.890110 
	C151.478409,52.971077 151.899323,51.052044 152.534760,48.871956 
	C152.749283,48.610905 152.812881,48.562626 153.009369,48.382893 
	C153.484268,47.844219 153.762665,47.485279 154.041077,47.126343 
	C154.441666,47.096912 154.842255,47.067486 155.586807,47.411736 
	C154.947342,49.231689 153.963913,50.677971 152.878616,52.274090 
	C156.496506,56.009449 159.828339,52.587803 162.858231,51.773472 
	C166.050125,50.915600 167.616730,51.254555 169.116760,54.230293 
	C171.789719,59.532810 172.809113,59.458271 176.267426,54.414040 
	C176.692215,53.794441 177.419891,53.382492 177.364990,53.429993 
	C180.842575,55.806133 183.665512,58.255489 186.926926,59.744381 
	C188.564148,60.491791 190.999222,59.491539 193.073471,59.281647 
	C192.644852,57.339577 192.611145,55.178909 191.687759,53.510704 
	C190.531815,51.422398 188.645065,49.738617 187.073776,47.880219 
	C187.073776,47.880219 187.034164,47.513775 187.059174,47.331192 
z"/>
<path fill="#35341C" opacity="1.000000" stroke="none" 
	d="
M201.672989,31.026699 
	C203.443985,32.826744 204.884064,34.824776 206.643555,36.964890 
	C207.783493,38.040890 208.603989,38.974804 209.282867,39.747517 
	C210.917450,38.625988 212.327576,37.658470 214.189819,36.291294 
	C215.836594,35.099728 217.031265,34.307819 218.225922,33.515915 
	C218.225922,33.515915 218.462769,33.624428 218.813812,33.424213 
	C219.814606,32.919239 220.464355,32.614479 221.114105,32.309719 
	C221.517975,32.229412 221.921844,32.149101 222.656586,32.446175 
	C222.954559,33.534897 222.921677,34.246246 222.888794,34.957588 
	C220.236816,36.822723 217.773605,39.096863 214.877686,40.433361 
	C212.196777,41.670620 207.326691,43.357193 206.440796,42.304432 
	C203.916733,39.304996 202.932327,35.009926 201.672989,31.026699 
z"/>
<path fill="#2C2C19" opacity="1.000000" stroke="none" 
	d="
M130.366470,31.549038 
	C130.770874,31.376785 131.533722,31.248268 131.956879,31.568552 
	C138.684860,36.660870 141.732361,36.376358 147.869568,29.990496 
	C150.304153,27.457266 151.242065,27.324612 152.979645,29.623692 
	C152.971252,29.980804 152.957672,29.936338 152.707367,30.015686 
	C152.274979,30.384102 152.092911,30.673170 151.938065,30.965866 
	C151.965286,30.969494 151.929184,30.927565 151.929184,30.927563 
	C147.546768,33.608906 143.164337,36.290249 138.409286,38.929836 
	C136.342850,38.620132 134.649063,38.352180 133.183807,38.120380 
	C132.329178,36.056820 131.448029,33.929195 130.366470,31.549038 
z"/>
<path fill="#EAE73D" opacity="1.000000" stroke="none" 
	d="
M154.286163,88.777130 
	C150.772217,87.946274 147.510468,86.877930 144.063538,85.493637 
	C149.403137,82.526062 154.910812,79.708595 161.334091,83.212044 
	C158.906052,85.115540 156.722198,86.827591 154.286163,88.777130 
z"/>
<path fill="#EEE83F" opacity="1.000000" stroke="none" 
	d="
M128.558594,75.179710 
	C131.165375,77.787949 133.502411,80.558937 135.973328,83.639374 
	C136.334076,85.924973 136.560944,87.901131 136.717438,89.264328 
	C133.623367,85.668068 129.959641,81.409698 126.295914,77.151321 
	C125.738220,77.638573 125.180519,78.125824 124.622826,78.613068 
	C125.844833,77.522865 127.066841,76.432671 128.558594,75.179710 
z"/>
<path fill="#EAE73D" opacity="1.000000" stroke="none" 
	d="
M181.711899,97.400085 
	C186.348526,97.161507 190.713242,97.147545 195.542480,97.185349 
	C196.007019,97.237114 195.960678,97.625923 195.599197,97.831879 
	C194.147720,99.344704 193.057724,100.651581 191.967712,101.958450 
	C190.883102,102.297508 189.798508,102.636574 188.368134,102.975327 
	C184.559906,101.681885 181.097443,100.388748 176.848114,98.801735 
	C178.855301,98.287231 180.147629,97.955963 181.711899,97.400085 
z"/>
<path fill="#E5E23C" opacity="1.000000" stroke="none" 
	d="
M150.926270,55.188572 
	C153.083206,54.953484 155.108932,55.016857 157.563629,55.157593 
	C157.596466,57.621330 157.200348,60.007706 156.708725,62.969444 
	C154.006149,60.565590 152.412476,59.148052 150.172592,57.155746 
	C150.044434,57.499317 150.419754,56.493176 150.926270,55.188572 
M155.432861,56.488625 
	C155.432861,56.488625 155.521942,56.440998 155.432861,56.488625 
z"/>
<path fill="#EAE73D" opacity="1.000000" stroke="none" 
	d="
M89.152260,38.126369 
	C88.973244,32.115818 89.056190,26.284433 89.478142,20.185762 
	C90.196594,20.619909 90.895073,21.316700 90.905350,22.023497 
	C90.992920,28.045988 90.955482,34.070293 90.955482,40.086040 
	C90.613541,39.691017 90.013885,38.998276 89.152260,38.126369 
z"/>
<path fill="#EEE83F" opacity="1.000000" stroke="none" 
	d="
M201.994125,48.121490 
	C201.382111,50.391396 200.767654,52.257980 200.153183,54.124561 
	C199.593018,53.944901 199.032867,53.765240 198.472702,53.585575 
	C199.134262,50.226036 199.795837,46.866497 200.677780,42.387848 
	C201.245407,44.690643 201.618546,46.204403 201.994125,48.121490 
z"/>
<path fill="#EEE83F" opacity="1.000000" stroke="none" 
	d="
M194.107574,31.258263 
	C193.995544,30.250729 193.995361,29.497906 193.992249,28.368515 
	C197.896332,27.996193 199.094818,29.919067 197.262085,33.868088 
	C196.482864,33.757061 195.995071,33.488308 195.254150,33.101685 
	C194.740479,32.493534 194.479950,32.003254 194.107574,31.258263 
z"/>
<path fill="#EAE73D" opacity="1.000000" stroke="none" 
	d="
M223.202728,34.827553 
	C222.921677,34.246246 222.954559,33.534897 222.964752,32.467361 
	C225.163239,30.926826 227.384399,29.742485 229.812973,28.796207 
	C230.011703,29.465225 230.003036,29.896175 229.985718,30.650074 
	C227.823608,32.214520 225.670120,33.456017 223.202728,34.827553 
z"/>
<path fill="#EAE73D" opacity="1.000000" stroke="none" 
	d="
M93.169571,20.445976 
	C94.018021,21.866615 94.783127,23.630507 95.548233,25.394400 
	C95.125122,25.564175 94.702011,25.733952 94.278900,25.903727 
	C93.881340,24.198895 93.483772,22.494062 93.169571,20.445976 
z"/>
<path fill="#EAE73D" opacity="1.000000" stroke="none" 
	d="
M90.463547,15.993637 
	C90.260712,14.832870 90.386093,13.662515 90.780823,12.250494 
	C91.786064,13.387339 94.528595,14.896293 90.463547,15.993637 
z"/>
<path fill="#EBE72C" opacity="1.000000" stroke="none" 
	d="
M192.295883,101.939423 
	C193.057724,100.651581 194.147720,99.344704 195.589951,98.027443 
	C194.836151,99.318169 193.730103,100.619278 192.295883,101.939423 
z"/>
<path fill="#CADA2C" opacity="1.000000" stroke="none" 
	d="
M186.833221,48.192078 
	C188.645065,49.738617 190.531815,51.422398 191.687759,53.510704 
	C192.611145,55.178909 192.644852,57.339577 193.073471,59.281647 
	C190.999222,59.491539 188.564148,60.491791 186.926926,59.744381 
	C183.665512,58.255489 180.842575,55.806133 177.364990,53.429993 
	C177.419891,53.382492 176.692215,53.794441 176.267426,54.414040 
	C172.809113,59.458271 171.789719,59.532810 169.116760,54.230293 
	C167.616730,51.254555 166.050125,50.915600 162.858231,51.773472 
	C159.828339,52.587803 156.496506,56.009449 152.878616,52.274090 
	C153.963913,50.677971 154.947342,49.231689 155.888382,47.431366 
	C161.568649,47.887363 167.270569,49.064945 173.020630,49.389618 
	C177.513641,49.643314 182.066422,48.838440 186.833221,48.192078 
z"/>
<path fill="#EBE72C" opacity="1.000000" stroke="none" 
	d="
M154.032776,46.710556 
	C153.762665,47.485279 153.484268,47.844219 153.017700,48.343849 
	C151.642090,46.590153 150.454636,44.695763 149.217361,42.721882 
	C152.036179,36.506512 157.508286,39.182869 162.566406,38.999176 
	C162.014664,41.768421 160.323959,43.203480 157.114059,43.181694 
	C156.091278,43.174759 155.054718,45.199612 154.032776,46.710556 
z"/>
<path fill="#EAE73D" opacity="1.000000" stroke="none" 
	d="
M221.118011,31.932953 
	C220.464355,32.614479 219.814606,32.919239 218.923157,33.353401 
	C220.147705,30.020948 221.613953,26.559095 223.371185,22.410290 
	C227.333725,27.850477 221.395874,28.637548 221.118011,31.932953 
z"/>
<path fill="#EEE83F" opacity="1.000000" stroke="none" 
	d="
M187.357697,15.994095 
	C183.200897,15.524693 179.401245,15.042473 175.303329,14.281104 
	C179.770691,14.001956 184.536331,14.001956 189.301971,14.001956 
	C189.359390,14.376697 189.416809,14.751436 189.474228,15.126177 
	C188.887772,15.411210 188.301331,15.696242 187.357697,15.994095 
z"/>
<path fill="#EAE73D" opacity="1.000000" stroke="none" 
	d="
M217.841339,33.355412 
	C217.031265,34.307819 215.836594,35.099728 214.340057,35.996445 
	C213.821457,33.537189 215.055695,32.679806 217.841339,33.355412 
z"/>
<path fill="#EEE83F" opacity="1.000000" stroke="none" 
	d="
M171.565735,14.002880 
	C170.167252,14.177197 168.341278,14.351584 166.260406,14.264091 
	C167.716415,14.002458 169.427338,14.002704 171.565735,14.002880 
z"/>
<path fill="#EEE83F" opacity="1.000000" stroke="none" 
	d="
M163.665436,14.001465 
	C163.434311,14.144504 162.871979,14.287533 162.159637,14.217596 
	C162.451187,14.003572 162.892700,14.002513 163.665436,14.001465 
z"/>
<path fill="#EBE72C" opacity="1.000000" stroke="none" 
	d="
M152.952805,29.964649 
	C153.309692,29.253378 153.530487,28.368048 154.096771,27.907953 
	C154.935043,27.226883 156.018524,26.847610 156.997604,26.339844 
	C157.213852,27.364265 157.953079,28.716707 157.553009,29.354540 
	C156.069687,31.719358 154.210907,33.848663 151.589233,35.658993 
	C151.711304,34.328304 151.833389,32.997612 151.942322,31.297245 
	C151.929184,30.927565 151.965286,30.969494 152.169006,30.859077 
	C152.567703,30.477886 152.762695,30.207113 152.957672,29.936340 
	C152.957672,29.936338 152.971252,29.980804 152.952805,29.964649 
z"/>
<path fill="#EBE72C" opacity="1.000000" stroke="none" 
	d="
M144.787476,42.039452 
	C145.567703,42.585094 145.982651,43.114616 146.397614,43.644142 
	C144.909576,44.162903 143.421539,44.681667 141.933502,45.200428 
	C141.707016,44.669254 141.480530,44.138081 141.254044,43.606907 
	C142.310089,43.079048 143.366135,42.551189 144.787476,42.039452 
z"/>
<path fill="#EBE72C" opacity="1.000000" stroke="none" 
	d="
M203.218201,23.239595 
	C203.786819,23.585155 204.072220,23.993320 204.357605,24.401491 
	C203.935318,24.511679 203.513031,24.621861 203.090744,24.732040 
	C203.038818,24.255424 202.986908,23.778811 203.218201,23.239595 
z"/>
<path fill="#EBE72C" opacity="1.000000" stroke="none" 
	d="
M207.477386,32.463657 
	C207.520584,32.440231 207.434189,32.487083 207.477386,32.463657 
z"/>
<path fill="#ECE831" opacity="1.000000" stroke="none" 
	d="
M152.707367,30.015686 
	C152.762695,30.207113 152.567703,30.477886 152.141785,30.855450 
	C152.092911,30.673170 152.274979,30.384102 152.707367,30.015686 
z"/>
<path fill="#EBE72C" opacity="1.000000" stroke="none" 
	d="
M155.477402,56.464813 
	C155.521942,56.440998 155.432861,56.488625 155.477402,56.464813 
z"/>
</svg>