<?xml version="1.0" encoding="UTF-8"?>
<!DOCTYPE svg PUBLIC "-//W3C//DTD SVG 1.1//EN" "http://www.w3.org/Graphics/SVG/1.1/DTD/svg11.dtd">
<svg xmlns="http://www.w3.org/2000/svg" version="1.1" width="517px" height="250px" style="shape-rendering:geometricPrecision; text-rendering:geometricPrecision; image-rendering:optimizeQuality; fill-rule:evenodd; clip-rule:evenodd" xmlns:xlink="http://www.w3.org/1999/xlink">
<g><path style="opacity:0.999" fill="#211f18" d="M 221.5,-0.5 C 223.167,-0.5 224.833,-0.5 226.5,-0.5C 224.384,2.78892 222.051,5.95558 219.5,9C 220.729,9.78107 222.062,10.2811 223.5,10.5C 226.525,9.97279 229.525,9.63946 232.5,9.5C 234.072,5.60129 236.405,2.26796 239.5,-0.5C 241.167,-0.5 242.833,-0.5 244.5,-0.5C 243.448,2.19312 242.448,4.85979 241.5,7.5C 253.171,7.66653 264.838,7.49986 276.5,7C 277.136,4.60619 277.136,2.10619 276.5,-0.5C 278.167,-0.5 279.833,-0.5 281.5,-0.5C 282.165,2.47011 282.831,5.47011 283.5,8.5C 285.396,9.46557 287.396,9.7989 289.5,9.5C 291.292,10.3091 293.292,10.8091 295.5,11C 301.825,11.4995 308.158,11.6662 314.5,11.5C 314.893,13.2838 315.559,14.9505 316.5,16.5C 315.5,16.5 314.5,16.5 313.5,16.5C 313.389,15.8826 313.056,15.3826 312.5,15C 304.152,14.6221 295.819,14.1221 287.5,13.5C 267.34,12.5028 247.007,12.1695 226.5,12.5C 204.996,9.94954 183.496,8.94954 162,9.5C 158.399,6.62699 154.232,5.29366 149.5,5.5C 148.833,4.5 148.167,3.5 147.5,2.5C 153.918,2.82156 160.085,4.15489 166,6.5C 169.326,6.71196 172.826,6.37862 176.5,5.5C 186.302,7.08255 195.635,8.08255 204.5,8.5C 207.728,8.29945 210.895,8.63278 214,9.5C 216.28,9.10575 216.78,8.10575 215.5,6.5C 215.833,5.5 216.5,4.83333 217.5,4.5C 218.239,4.63101 218.906,4.46434 219.5,4C 220.738,3.31001 220.738,2.81001 219.5,2.5C 220.167,1.5 220.833,0.5 221.5,-0.5 Z"/></g>
<g><path style="opacity:1" fill="#9797c9" d="M 281.5,-0.5 C 284.167,-0.5 286.833,-0.5 289.5,-0.5C 288.814,3.287 289.814,6.45366 292.5,9C 291.552,9.48278 290.552,9.64945 289.5,9.5C 287.396,9.7989 285.396,9.46557 283.5,8.5C 282.831,5.47011 282.165,2.47011 281.5,-0.5 Z"/></g>
<g><path style="opacity:1" fill="#5a5fab" d="M 289.5,-0.5 C 302.167,-0.5 314.833,-0.5 327.5,-0.5C 326.668,3.82959 325.335,7.99625 323.5,12C 320.525,12.0435 317.525,11.8769 314.5,11.5C 308.158,11.6662 301.825,11.4995 295.5,11C 293.292,10.8091 291.292,10.3091 289.5,9.5C 290.552,9.64945 291.552,9.48278 292.5,9C 289.814,6.45366 288.814,3.287 289.5,-0.5 Z"/></g>
<g><path style="opacity:1" fill="#f2d131" d="M 226.5,-0.5 C 230.833,-0.5 235.167,-0.5 239.5,-0.5C 236.405,2.26796 234.072,5.60129 232.5,9.5C 229.525,9.63946 226.525,9.97279 223.5,10.5C 222.062,10.2811 220.729,9.78107 219.5,9C 222.051,5.95558 224.384,2.78892 226.5,-0.5 Z"/></g>
<g><path style="opacity:1" fill="#47463f" d="M 140.5,2.5 C 142.5,2.5 144.5,2.5 146.5,2.5C 146.167,3.5 145.5,4.16667 144.5,4.5C 142.62,4.77089 141.287,4.10422 140.5,2.5 Z"/></g>
<g><path style="opacity:1" fill="#e4e5dd" d="M 219.5,2.5 C 220.738,2.81001 220.738,3.31001 219.5,4C 218.906,4.46434 218.239,4.63101 217.5,4.5C 217.5,3.16667 218.167,2.5 219.5,2.5 Z"/></g>
<g><path style="opacity:1" fill="#595132" d="M 134.5,2.5 C 133.852,4.58639 132.352,5.58639 130,5.5C 126.65,5.05418 123.483,4.38752 120.5,3.5C 120.5,3.16667 120.5,2.83333 120.5,2.5C 125.032,2.32263 129.699,2.32263 134.5,2.5 Z"/></g>
<g><path style="opacity:1" fill="#d4c985" d="M 146.5,2.5 C 146.833,2.5 147.167,2.5 147.5,2.5C 148.167,3.5 148.833,4.5 149.5,5.5C 147.585,5.78448 145.919,5.45115 144.5,4.5C 145.5,4.16667 146.167,3.5 146.5,2.5 Z"/></g>
<g><path style="opacity:1" fill="#d6d7d3" d="M 215.5,6.5 C 216.78,8.10575 216.28,9.10575 214,9.5C 210.895,8.63278 207.728,8.29945 204.5,8.5C 208.061,7.76978 211.727,7.10311 215.5,6.5 Z"/></g>
<g><path style="opacity:1" fill="#1f1f1b" d="M 120.5,2.5 C 120.5,2.83333 120.5,3.16667 120.5,3.5C 118.777,5.25279 117.277,7.25279 116,9.5C 113.571,27.4437 111.737,45.4437 110.5,63.5C 110.631,64.3764 110.298,65.0431 109.5,65.5C 108.476,64.1482 107.476,62.8149 106.5,61.5C 106.371,59.7839 106.038,58.1172 105.5,56.5C 106.776,54.4375 107.61,52.1042 108,49.5C 108.917,38.8229 109.917,28.1563 111,17.5C 112.47,12.7574 114.136,8.09073 116,3.5C 117.356,2.61983 118.856,2.28649 120.5,2.5 Z"/></g>
<g><path style="opacity:1" fill="#e9e868" d="M 226.5,12.5 C 247.007,12.1695 267.34,12.5028 287.5,13.5C 268.263,13.7526 248.93,14.0859 229.5,14.5C 228.261,14.0576 227.261,13.3909 226.5,12.5 Z"/></g>
<g><path style="opacity:1" fill="#cbda2c" d="M 313.5,16.5 C 314.5,16.5 315.5,16.5 316.5,16.5C 318.735,16.2053 320.735,16.5386 322.5,17.5C 323.091,20.9254 324.425,23.9254 326.5,26.5C 327.677,33.0968 328.344,39.7635 328.5,46.5C 327.5,46.8333 326.833,47.5 326.5,48.5C 320.714,47.2733 320.381,47.94 325.5,50.5C 326.524,51.8518 327.524,53.1851 328.5,54.5C 327.013,56.842 327.346,58.842 329.5,60.5C 329.737,64.722 329.404,68.8886 328.5,73C 328.167,73.5 327.833,74 327.5,74.5C 326.549,73.6744 325.549,73.5078 324.5,74C 327.219,76.773 328.553,80.1063 328.5,84C 327.245,90.1058 326.579,96.2724 326.5,102.5C 328.433,102.271 330.1,101.438 331.5,100C 339.762,98.6345 342.928,102.135 341,110.5C 339.141,116.997 334.975,119.83 328.5,119C 327.726,115.228 327.06,111.395 326.5,107.5C 326.167,106.833 325.833,106.167 325.5,105.5C 325.9,114.066 324.234,122.4 320.5,130.5C 321.309,132.071 321.643,133.738 321.5,135.5C 319.669,134.948 318.003,134.948 316.5,135.5C 317.562,138.103 317.728,140.77 317,143.5C 313.461,147.9 309.294,151.233 304.5,153.5C 302.067,153.273 300.401,154.273 299.5,156.5C 289.607,158.293 279.607,158.96 269.5,158.5C 265.285,156.564 260.619,155.897 255.5,156.5C 236.198,154.931 216.865,153.931 197.5,153.5C 196.866,152.053 195.699,151.387 194,151.5C 192.93,151.528 192.097,151.861 191.5,152.5C 171.066,151.436 150.733,149.436 130.5,146.5C 129.829,145.153 129.829,143.986 130.5,143C 139.563,141.826 148.396,142.659 157,145.5C 178.688,142.141 200.521,138.974 222.5,136C 230.589,134.368 238.589,132.368 246.5,130C 249.362,129.07 251.695,127.403 253.5,125C 252.944,124.617 252.611,124.117 252.5,123.5C 276.383,120.447 291.883,107.447 299,84.5C 300.336,80.1005 299.336,76.4338 296,73.5C 295.835,87.6707 290.335,99.5041 279.5,109C 276.757,111.038 273.757,112.538 270.5,113.5C 270.351,112.448 270.517,111.448 271,110.5C 273.094,108.473 275.427,106.806 278,105.5C 279.217,99.9792 280.883,94.6458 283,89.5C 284.868,87.2439 286.368,84.7439 287.5,82C 285.667,81.5 284.5,80.3333 284,78.5C 283.05,69.0382 287.05,63.0382 296,60.5C 292.745,44.5076 295.911,30.0076 305.5,17C 308.146,16.5026 310.813,16.3359 313.5,16.5 Z"/></g>
<g><path style="opacity:1" fill="#dddfba" d="M 322.5,17.5 C 323.822,17.33 324.989,17.6634 326,18.5C 326.497,21.146 326.664,23.8127 326.5,26.5C 324.425,23.9254 323.091,20.9254 322.5,17.5 Z"/></g>
<g><path style="opacity:1" fill="#ebe72d" d="M 134.5,2.5 C 136.5,3.83333 138.5,3.83333 140.5,2.5C 141.287,4.10422 142.62,4.77089 144.5,4.5C 145.919,5.45115 147.585,5.78448 149.5,5.5C 154.232,5.29366 158.399,6.62699 162,9.5C 183.496,8.94954 204.996,9.94954 226.5,12.5C 227.261,13.3909 228.261,14.0576 229.5,14.5C 248.93,14.0859 268.263,13.7526 287.5,13.5C 295.819,14.1221 304.152,14.6221 312.5,15C 313.056,15.3826 313.389,15.8826 313.5,16.5C 310.813,16.3359 308.146,16.5026 305.5,17C 295.911,30.0076 292.745,44.5076 296,60.5C 287.05,63.0382 283.05,69.0382 284,78.5C 284.5,80.3333 285.667,81.5 287.5,82C 286.368,84.7439 284.868,87.2439 283,89.5C 280.883,94.6458 279.217,99.9792 278,105.5C 275.427,106.806 273.094,108.473 271,110.5C 270.517,111.448 270.351,112.448 270.5,113.5C 269.025,115.41 267.025,116.576 264.5,117C 258.636,118.806 252.636,119.64 246.5,119.5C 225.757,120.806 205.757,117.64 186.5,110C 172.284,101.627 163.284,89.4605 159.5,73.5C 161.468,71.0605 162.801,68.2272 163.5,65C 162.104,61.5838 160.937,58.0838 160,54.5C 157.442,50.7884 153.942,49.6217 149.5,51C 143.357,52.6543 137.857,55.4877 133,59.5C 131,63.1667 131,66.8333 133,70.5C 133.75,71.1258 134.584,71.6258 135.5,72C 142.492,72.4996 149.492,72.6663 156.5,72.5C 159.445,88.189 167.112,101.022 179.5,111C 190.205,115.457 201.205,119.124 212.5,122C 225.837,122.488 239.17,122.988 252.5,123.5C 252.611,124.117 252.944,124.617 253.5,125C 251.695,127.403 249.362,129.07 246.5,130C 238.589,132.368 230.589,134.368 222.5,136C 200.521,138.974 178.688,142.141 157,145.5C 148.396,142.659 139.563,141.826 130.5,143C 129.829,143.986 129.829,145.153 130.5,146.5C 126.347,145.197 122.514,143.197 119,140.5C 113.601,128.477 110.434,115.81 109.5,102.5C 109.942,93.0415 109.942,83.7082 109.5,74.5C 109.567,72.5992 109.233,70.7659 108.5,69C 109.009,67.8315 109.842,66.9981 111,66.5C 111.74,65.2506 111.573,64.2506 110.5,63.5C 111.737,45.4437 113.571,27.4437 116,9.5C 117.277,7.25279 118.777,5.25279 120.5,3.5C 123.483,4.38752 126.65,5.05418 130,5.5C 132.352,5.58639 133.852,4.58639 134.5,2.5 Z"/></g>
<g><path style="opacity:1" fill="#2c2c19" d="M 192.5,33.5 C 193.5,33.5 194.5,33.5 195.5,33.5C 195.731,36.7845 194.397,39.2845 191.5,41C 187.463,44.379 182.963,46.879 178,48.5C 175.433,47.73 172.933,46.73 170.5,45.5C 164.846,36.3202 165.846,35.4868 173.5,43C 181.668,43.6985 188.001,40.5319 192.5,33.5 Z"/></g>
<g><path style="opacity:1" fill="#35341b" d="M 257.5,38.5 C 260.434,39.2894 262.268,41.2894 263,44.5C 265.209,45.92 267.209,47.5867 269,49.5C 273.95,45.2741 279.45,41.9408 285.5,39.5C 285.833,40 286.167,40.5 286.5,41C 281.392,47.306 274.892,51.4727 267,53.5C 261.368,50.2726 258.201,45.2726 257.5,38.5 Z"/></g>
<g><path style="opacity:1" fill="#cada2c" d="M 245.5,60.5 C 244.142,59.3744 242.808,59.3744 241.5,60.5C 244.488,64.3105 246.821,68.4772 248.5,73C 247.831,74.8475 246.497,76.0142 244.5,76.5C 240.972,75.8942 237.639,74.7275 234.5,73C 232.267,70.7669 230.1,68.6003 228,66.5C 222.773,74.9775 218.607,74.4775 215.5,65C 209.42,65.0773 203.42,65.9106 197.5,67.5C 197.5,66.1667 197.5,64.8333 197.5,63.5C 198.29,62.2058 199.29,61.0391 200.5,60C 199.906,59.5357 199.239,59.369 198.5,59.5C 199.622,58.8442 200.955,58.5108 202.5,58.5C 211.435,60.3176 220.435,61.6509 229.5,62.5C 232.167,62.1667 234.833,61.8333 237.5,61.5C 238.115,59.8839 239.115,58.5505 240.5,57.5C 238.684,56.1851 237.017,54.6851 235.5,53C 230.868,51.9279 226.201,50.9279 221.5,50C 215.46,48.3381 213.46,44.6714 215.5,39C 225.532,38.2872 235.532,38.6206 245.5,40C 250.052,39.8817 252.885,42.0484 254,46.5C 254.667,48.8333 254.667,51.1667 254,53.5C 250.977,55.6976 248.144,58.031 245.5,60.5 Z"/></g>
<g><path style="opacity:1" fill="#645c2d" d="M 160.5,30.5 C 161.189,29.2264 162.023,29.2264 163,30.5C 163.749,31.635 163.583,32.635 162.5,33.5C 161.824,32.3984 161.158,31.3984 160.5,30.5 Z"/></g>
<g><path style="opacity:1" fill="#f8f7cf" d="M 328.5,46.5 C 328.719,47.675 328.386,48.675 327.5,49.5C 326.893,49.3764 326.56,49.0431 326.5,48.5C 326.833,47.5 327.5,46.8333 328.5,46.5 Z"/></g>
<g><path style="opacity:1" fill="#cbda2b" d="M 159.5,73.5 C 158.144,70.4233 157.311,67.0899 157,63.5C 156.056,64.263 155.556,65.263 155.5,66.5C 156.156,68.4534 156.489,70.4534 156.5,72.5C 149.492,72.6663 142.492,72.4996 135.5,72C 134.584,71.6258 133.75,71.1258 133,70.5C 131,66.8333 131,63.1667 133,59.5C 137.857,55.4877 143.357,52.6543 149.5,51C 153.942,49.6217 157.442,50.7884 160,54.5C 160.937,58.0838 162.104,61.5838 163.5,65C 162.801,68.2272 161.468,71.0605 159.5,73.5 Z"/></g>
<g><path style="opacity:1" fill="#3b3e34" d="M 103.5,53.5 C 102.292,54.2341 100.959,54.5674 99.5,54.5C 100.538,52.4805 101.872,52.1472 103.5,53.5 Z"/></g>
<g><path style="opacity:1" fill="#ebecd9" d="M 103.5,53.5 C 104.401,54.2905 105.068,55.2905 105.5,56.5C 106.038,58.1172 106.371,59.7839 106.5,61.5C 103.823,60.3855 101.156,60.3855 98.5,61.5C 97.9649,63.261 96.9649,64.5943 95.5,65.5C 94.6583,60.9494 95.9917,57.2827 99.5,54.5C 100.959,54.5674 102.292,54.2341 103.5,53.5 Z"/></g>
<g><path style="opacity:0.97" fill="#fbfbfa" d="M 315.5,152.5 C 316.043,152.56 316.376,152.893 316.5,153.5C 315.265,156.894 313.432,159.894 311,162.5C 309.667,161.833 308.333,161.167 307,160.5C 299.906,164.456 300.073,165.956 307.5,165C 309.394,166.079 309.727,167.413 308.5,169C 305.5,169.667 302.5,169.667 299.5,169C 295.101,165.019 290.101,163.519 284.5,164.5C 283.614,165.325 283.281,166.325 283.5,167.5C 286.32,167.248 288.986,167.748 291.5,169C 289.5,169.167 287.5,169.333 285.5,169.5C 280.591,168.968 275.758,167.968 271,166.5C 267.15,167.652 263.317,167.652 259.5,166.5C 260.879,165.137 260.713,164.137 259,163.5C 257.263,164.62 255.429,165.62 253.5,166.5C 252.167,165.167 250.833,163.833 249.5,162.5C 247.088,164.099 244.588,165.432 242,166.5C 241.167,166.333 240.333,166.167 239.5,166C 241.746,164.743 243.079,162.91 243.5,160.5C 261.486,161.55 279.486,161.717 297.5,161C 304.183,159.491 310.183,156.657 315.5,152.5 Z"/></g>
<g><path style="opacity:1" fill="#141312" d="M 327.5,-0.5 C 328.833,-0.5 330.167,-0.5 331.5,-0.5C 332.26,1.98452 333.26,1.98452 334.5,-0.5C 335.5,-0.5 336.5,-0.5 337.5,-0.5C 334.856,2.99381 332.356,6.66048 330,10.5C 329.833,12.6667 329.667,14.8333 329.5,17C 333.913,43.0731 334.58,69.2397 331.5,95.5C 342.394,94.5811 346.894,99.5811 345,110.5C 343.974,114.722 341.807,118.222 338.5,121C 334.611,122.427 330.778,123.927 327,125.5C 325.839,130.106 324.839,134.773 324,139.5C 321.156,143.862 318.323,148.195 315.5,152.5C 310.183,156.657 304.183,159.491 297.5,161C 279.486,161.717 261.486,161.55 243.5,160.5C 237.877,158.933 232.211,158.599 226.5,159.5C 227.378,163.809 228.212,168.142 229,172.5C 236.137,174.739 242.137,178.739 247,184.5C 248.471,189.371 246.805,192.704 242,194.5C 241.042,196.199 240.542,198.033 240.5,200C 242.842,215.427 243.675,230.927 243,246.5C 242.617,247.056 242.117,247.389 241.5,247.5C 240.488,246.128 239.488,244.795 238.5,243.5C 238.663,241.143 238.497,238.81 238,236.5C 237.329,235.748 236.496,235.414 235.5,235.5C 239.663,233.226 240.497,229.893 238,225.5C 236.887,224.695 235.721,224.028 234.5,223.5C 234.196,222.85 233.863,222.183 233.5,221.5C 235.341,220.77 237.175,220.103 239,219.5C 239.47,218.423 239.303,217.423 238.5,216.5C 238.657,215.127 238.49,213.793 238,212.5C 232.746,210.847 232.579,209.847 237.5,209.5C 237.5,207.167 237.5,204.833 237.5,202.5C 237.528,200.418 236.861,198.584 235.5,197C 226.499,196.272 217.666,194.772 209,192.5C 207.941,192.63 207.108,193.13 206.5,194C 207.406,195.699 207.739,197.533 207.5,199.5C 206.511,204.975 206.178,210.642 206.5,216.5C 206.5,218.167 206.5,219.833 206.5,221.5C 205.699,223.042 205.366,224.708 205.5,226.5C 204.753,231.097 204.419,235.763 204.5,240.5C 204.5,241.5 204.5,242.5 204.5,243.5C 202.801,243.473 201.467,242.806 200.5,241.5C 201.568,227.153 202.902,212.82 204.5,198.5C 204.333,195.833 204.167,193.167 204,190.5C 198.427,185.328 198.261,180.162 203.5,175C 212.371,172.519 215.538,167.019 213,158.5C 185.234,156.444 157.734,153.944 130.5,151C 122.218,148.607 116.385,143.44 113,135.5C 110.739,131.05 109.072,126.383 108,121.5C 106.775,109.548 106.109,97.5477 106,85.5C 92.9204,80.9953 88.5871,71.9953 93,58.5C 94.359,55.9778 96.5257,54.6445 99.5,54.5C 95.9917,57.2827 94.6583,60.9494 95.5,65.5C 95.334,70.6698 97.0006,75.1698 100.5,79C 102.579,79.8077 104.579,79.641 106.5,78.5C 106.815,76.517 107.815,75.1837 109.5,74.5C 109.942,83.7082 109.942,93.0415 109.5,102.5C 110.434,115.81 113.601,128.477 119,140.5C 122.514,143.197 126.347,145.197 130.5,146.5C 150.733,149.436 171.066,151.436 191.5,152.5C 193.435,153.15 195.435,153.483 197.5,153.5C 216.865,153.931 236.198,154.931 255.5,156.5C 259.9,158.104 264.566,158.771 269.5,158.5C 279.607,158.96 289.607,158.293 299.5,156.5C 301.674,156.25 303.341,155.25 304.5,153.5C 309.294,151.233 313.461,147.9 317,143.5C 317.728,140.77 317.562,138.103 316.5,135.5C 318.003,134.948 319.669,134.948 321.5,135.5C 321.643,133.738 321.309,132.071 320.5,130.5C 324.234,122.4 325.9,114.066 325.5,105.5C 325.833,106.167 326.167,106.833 326.5,107.5C 327.06,111.395 327.726,115.228 328.5,119C 334.975,119.83 339.141,116.997 341,110.5C 342.928,102.135 339.762,98.6345 331.5,100C 330.1,101.438 328.433,102.271 326.5,102.5C 326.579,96.2724 327.245,90.1058 328.5,84C 328.553,80.1063 327.219,76.773 324.5,74C 325.549,73.5078 326.549,73.6744 327.5,74.5C 327.833,74 328.167,73.5 328.5,73C 329.404,68.8886 329.737,64.722 329.5,60.5C 329.795,58.2646 329.461,56.2646 328.5,54.5C 327.524,53.1851 326.524,51.8518 325.5,50.5C 320.381,47.94 320.714,47.2733 326.5,48.5C 326.56,49.0431 326.893,49.3764 327.5,49.5C 328.386,48.675 328.719,47.675 328.5,46.5C 328.344,39.7635 327.677,33.0968 326.5,26.5C 326.664,23.8127 326.497,21.146 326,18.5C 324.989,17.6634 323.822,17.33 322.5,17.5C 320.735,16.5386 318.735,16.2053 316.5,16.5C 315.559,14.9505 314.893,13.2838 314.5,11.5C 317.525,11.8769 320.525,12.0435 323.5,12C 325.335,7.99625 326.668,3.82959 327.5,-0.5 Z"/></g>
<g><path style="opacity:1" fill="#d3db86" d="M 255.5,156.5 C 260.619,155.897 265.285,156.564 269.5,158.5C 264.566,158.771 259.9,158.104 255.5,156.5 Z"/></g>
<g><path style="opacity:1" fill="#dcddbe" d="M 304.5,153.5 C 303.341,155.25 301.674,156.25 299.5,156.5C 300.401,154.273 302.067,153.273 304.5,153.5 Z"/></g>
<g><path style="opacity:1" fill="#e4e6d6" d="M 191.5,152.5 C 192.097,151.861 192.93,151.528 194,151.5C 195.699,151.387 196.866,152.053 197.5,153.5C 195.435,153.483 193.435,153.15 191.5,152.5 Z"/></g>
<g><path style="opacity:1" fill="#15140e" d="M 159.5,73.5 C 163.284,89.4605 172.284,101.627 186.5,110C 205.757,117.64 225.757,120.806 246.5,119.5C 252.636,119.64 258.636,118.806 264.5,117C 267.025,116.576 269.025,115.41 270.5,113.5C 273.757,112.538 276.757,111.038 279.5,109C 290.335,99.5041 295.835,87.6707 296,73.5C 299.336,76.4338 300.336,80.1005 299,84.5C 291.883,107.447 276.383,120.447 252.5,123.5C 239.17,122.988 225.837,122.488 212.5,122C 201.205,119.124 190.205,115.457 179.5,111C 167.112,101.022 159.445,88.189 156.5,72.5C 156.489,70.4534 156.156,68.4534 155.5,66.5C 155.556,65.263 156.056,64.263 157,63.5C 157.311,67.0899 158.144,70.4233 159.5,73.5 Z"/></g>
<g><path style="opacity:1" fill="#1f2114" d="M 198.5,59.5 C 199.239,59.369 199.906,59.5357 200.5,60C 199.29,61.0391 198.29,62.2058 197.5,63.5C 194.833,64.8333 194.833,66.1667 197.5,67.5C 203.42,65.9106 209.42,65.0773 215.5,65C 218.607,74.4775 222.773,74.9775 228,66.5C 230.1,68.6003 232.267,70.7669 234.5,73C 237.639,74.7275 240.972,75.8942 244.5,76.5C 246.497,76.0142 247.831,74.8475 248.5,73C 246.821,68.4772 244.488,64.3105 241.5,60.5C 242.808,59.3744 244.142,59.3744 245.5,60.5C 248.598,64.3597 250.932,68.693 252.5,73.5C 250.742,78.0483 247.409,80.0483 242.5,79.5C 237.051,79.0268 232.218,77.0268 228,73.5C 224.961,76.1344 221.461,76.9678 217.5,76C 215.329,72.7849 212.829,69.9516 210,67.5C 204.64,69.4051 199.14,69.9051 193.5,69C 192.595,64.6479 194.261,61.4813 198.5,59.5 Z"/></g>
<g><path style="opacity:1" fill="#e0e0c9" d="M 197.5,63.5 C 197.5,64.8333 197.5,66.1667 197.5,67.5C 194.833,66.1667 194.833,64.8333 197.5,63.5 Z"/></g>
<g><path style="opacity:1" fill="#cbda2e" d="M 106.5,61.5 C 107.476,62.8149 108.476,64.1482 109.5,65.5C 110.298,65.0431 110.631,64.3764 110.5,63.5C 111.573,64.2506 111.74,65.2506 111,66.5C 109.842,66.9981 109.009,67.8315 108.5,69C 109.233,70.7659 109.567,72.5992 109.5,74.5C 107.815,75.1837 106.815,76.517 106.5,78.5C 104.579,79.641 102.579,79.8077 100.5,79C 97.0006,75.1698 95.334,70.6698 95.5,65.5C 96.9649,64.5943 97.9649,63.261 98.5,61.5C 101.156,60.3855 103.823,60.3855 106.5,61.5 Z"/></g>
<g><path style="opacity:1" fill="#c5c5bd" d="M 328.5,54.5 C 329.461,56.2646 329.795,58.2646 329.5,60.5C 327.346,58.842 327.013,56.842 328.5,54.5 Z"/></g>
<g><path style="opacity:1" fill="#bad247" d="M 331.5,-0.5 C 332.5,-0.5 333.5,-0.5 334.5,-0.5C 333.26,1.98452 332.26,1.98452 331.5,-0.5 Z"/></g>
<g><path style="opacity:1" fill="#c9d62f" d="M 216.5,161.5 C 219.044,161.104 221.211,161.771 223,163.5C 223.977,168.217 225.143,172.884 226.5,177.5C 226.392,178.442 226.059,179.275 225.5,180C 221.663,180.761 217.996,180.261 214.5,178.5C 216.125,172.961 216.792,167.295 216.5,161.5 Z"/></g>
<g><path style="opacity:1" fill="#ccd533" d="M 235.5,180.5 C 234.817,182.176 233.483,182.843 231.5,182.5C 231.461,181.417 231.127,180.417 230.5,179.5C 232.582,178.106 234.249,178.439 235.5,180.5 Z"/></g>
<g><path style="opacity:1" fill="#c4d53e" d="M 210.5,179.5 C 209.099,179.971 207.766,180.638 206.5,181.5C 206.069,183.74 206.069,185.74 206.5,187.5C 205.542,187.047 204.708,186.381 204,185.5C 202.32,180.619 203.82,177.286 208.5,175.5C 211.038,176.257 211.705,177.59 210.5,179.5 Z"/></g>
<g><path style="opacity:1" fill="#3b9845" d="M 210.5,179.5 C 211.028,180.721 211.695,181.887 212.5,183C 216.514,183.39 220.514,183.89 224.5,184.5C 227.08,184.276 229.414,183.609 231.5,182.5C 233.483,182.843 234.817,182.176 235.5,180.5C 238.432,181.8 240.766,183.8 242.5,186.5C 240.896,187.287 240.229,188.62 240.5,190.5C 232.579,191.633 224.579,191.8 216.5,191C 212.941,190.148 209.607,188.981 206.5,187.5C 206.069,185.74 206.069,183.74 206.5,181.5C 207.766,180.638 209.099,179.971 210.5,179.5 Z"/></g>
<g><path style="opacity:1" fill="#c2cdbc" d="M 242.5,186.5 C 243.679,188.441 243.013,189.774 240.5,190.5C 240.229,188.62 240.896,187.287 242.5,186.5 Z"/></g>
<g><path style="opacity:1" fill="#469a48" d="M 237.5,202.5 C 227.497,201.405 217.497,200.405 207.5,199.5C 207.739,197.533 207.406,195.699 206.5,194C 207.108,193.13 207.941,192.63 209,192.5C 217.666,194.772 226.499,196.272 235.5,197C 236.861,198.584 237.528,200.418 237.5,202.5 Z"/></g>
<g><path style="opacity:1" fill="#f1ea1f" d="M 207.5,199.5 C 217.497,200.405 227.497,201.405 237.5,202.5C 237.5,204.833 237.5,207.167 237.5,209.5C 232.579,209.847 232.746,210.847 238,212.5C 238.49,213.793 238.657,215.127 238.5,216.5C 227.859,217.273 217.192,217.273 206.5,216.5C 206.178,210.642 206.511,204.975 207.5,199.5 Z"/></g>
<g><path style="opacity:1" fill="#419b45" d="M 206.5,216.5 C 217.192,217.273 227.859,217.273 238.5,216.5C 239.303,217.423 239.47,218.423 239,219.5C 237.175,220.103 235.341,220.77 233.5,221.5C 233.863,222.183 234.196,222.85 234.5,223.5C 225.158,222.944 215.824,222.277 206.5,221.5C 206.5,219.833 206.5,218.167 206.5,216.5 Z"/></g>
<g><path style="opacity:1" fill="#f2ea1d" d="M 206.5,221.5 C 215.824,222.277 225.158,222.944 234.5,223.5C 235.721,224.028 236.887,224.695 238,225.5C 240.497,229.893 239.663,233.226 235.5,235.5C 233.59,236.094 231.59,236.427 229.5,236.5C 222.439,235.063 215.439,234.229 208.5,234C 205.961,232.195 204.961,229.695 205.5,226.5C 205.366,224.708 205.699,223.042 206.5,221.5 Z"/></g>
<g><path style="opacity:1" fill="#419b46" d="M 205.5,226.5 C 204.961,229.695 205.961,232.195 208.5,234C 215.439,234.229 222.439,235.063 229.5,236.5C 231.59,236.427 233.59,236.094 235.5,235.5C 236.496,235.414 237.329,235.748 238,236.5C 238.497,238.81 238.663,241.143 238.5,243.5C 230.217,243.215 221.883,243.215 213.5,243.5C 210.548,242.346 207.548,241.346 204.5,240.5C 204.419,235.763 204.753,231.097 205.5,226.5 Z"/></g>
<g><path style="opacity:1" fill="#f8f8f5" d="M 204.5,240.5 C 207.548,241.346 210.548,242.346 213.5,243.5C 215.121,245.117 217.121,246.284 219.5,247C 222.514,247.128 225.514,247.128 228.5,247C 229.756,247.417 230.423,248.25 230.5,249.5C 221.5,249.5 212.5,249.5 203.5,249.5C 201.94,247.046 200.94,244.38 200.5,241.5C 201.467,242.806 202.801,243.473 204.5,243.5C 204.5,242.5 204.5,241.5 204.5,240.5 Z"/></g>
<g><path style="opacity:1" fill="#e4e23d" d="M 238.5,243.5 C 239.488,244.795 240.488,246.128 241.5,247.5C 239.973,247.427 238.973,248.094 238.5,249.5C 235.833,249.5 233.167,249.5 230.5,249.5C 230.423,248.25 229.756,247.417 228.5,247C 225.514,247.128 222.514,247.128 219.5,247C 217.121,246.284 215.121,245.117 213.5,243.5C 221.883,243.215 230.217,243.215 238.5,243.5 Z"/></g>
</svg>
