<?xml version="1.0" encoding="UTF-8"?>
<!DOCTYPE svg PUBLIC "-//W3C//DTD SVG 1.1//EN" "http://www.w3.org/Graphics/SVG/1.1/DTD/svg11.dtd">
<svg xmlns="http://www.w3.org/2000/svg" version="1.1" width="500px" height="556px" style="shape-rendering:geometricPrecision; text-rendering:geometricPrecision; image-rendering:optimizeQuality; fill-rule:evenodd; clip-rule:evenodd" xmlns:xlink="http://www.w3.org/1999/xlink">
<g><path style="opacity:1" fill="#f0e929" d="M 219.5,-0.5 C 231.833,-0.5 244.167,-0.5 256.5,-0.5C 277.99,10.4871 294.823,26.4871 307,47.5C 312.241,62.351 314.741,77.6843 314.5,93.5C 314.059,104.876 313.226,116.209 312,127.5C 306.816,142.198 300.816,156.532 294,170.5C 286.509,178.624 278.675,186.457 270.5,194C 265.167,198 259.833,202 254.5,206C 247.49,207.417 240.823,209.751 234.5,213C 225.986,215.463 217.319,216.963 208.5,217.5C 207.833,217.5 207.167,217.5 206.5,217.5C 205.833,215.5 205.167,213.5 204.5,211.5C 233.42,210.811 257.92,200.144 278,179.5C 295.408,156.276 304.241,130.109 304.5,101C 304.113,88.883 302.613,76.7163 300,64.5C 297.721,57.2755 294.388,50.6089 290,44.5C 278.927,30.0887 265.427,18.5887 249.5,10C 239.07,9.15051 228.737,7.65051 218.5,5.5C 217.15,3.21739 217.483,1.21739 219.5,-0.5 Z"/></g>
<g><path style="opacity:1" fill="#f6eb2d" d="M 201.5,183.5 C 202.265,180.904 202.599,178.237 202.5,175.5C 205.443,175.647 208.276,176.313 211,177.5C 236.849,172.652 252.516,157.318 258,131.5C 259.185,119.001 260.352,106.501 261.5,94C 259.126,78.9218 252.46,65.9218 241.5,55C 230.029,48.5858 217.696,45.9191 204.5,47C 202.919,46.2935 201.419,45.4601 200,44.5C 199.383,43.5509 199.549,42.7175 200.5,42C 208.781,40.2447 217.114,39.2447 225.5,39C 235.458,39.6176 243.625,43.7843 250,51.5C 255.513,59.1965 260.513,67.1965 265,75.5C 267.225,97.3246 266.225,118.991 262,140.5C 254.079,163.093 238.579,177.26 215.5,183C 210.845,183.499 206.179,183.666 201.5,183.5 Z"/></g>
<g><path style="opacity:1" fill="#f6ed3d" d="M 200.5,212.5 C 199.454,214.785 199.454,217.118 200.5,219.5C 174.656,221.206 150.656,215.372 128.5,202C 120.5,196.667 112.5,191.333 104.5,186C 84.6341,162.063 77.1341,134.563 82,103.5C 93.5421,69.9093 113.709,42.7426 142.5,22C 153.788,16.0262 165.455,11.0262 177.5,7C 181.833,6.33333 186.167,6.33333 190.5,7C 190.957,7.41395 191.291,7.91395 191.5,8.5C 185.798,9.47379 180.131,10.6405 174.5,12C 164.5,16.6667 154.5,21.3333 144.5,26C 136.551,34.0685 128.051,41.5685 119,48.5C 114.817,54.8619 110.15,60.8619 105,66.5C 99.053,77.9812 94.053,89.9812 90,102.5C 85.2878,128.235 89.6212,152.235 103,174.5C 107.133,179.634 111.633,184.468 116.5,189C 130.103,195.631 143.436,202.631 156.5,210C 159.167,210.333 161.833,210.667 164.5,211C 165.893,212.363 167.559,213.196 169.5,213.5C 179.809,213.738 190.142,213.405 200.5,212.5 Z"/></g>
<g><path style="opacity:1" fill="#f4eb2f" d="M 198.5,174.5 C 198.5,177.167 198.5,179.833 198.5,182.5C 197.292,183.234 195.959,183.567 194.5,183.5C 190.312,182.684 185.979,181.851 181.5,181C 173.153,176.884 164.487,173.55 155.5,171C 148.023,163.191 140.189,155.691 132,148.5C 129.916,144.664 127.583,140.997 125,137.5C 119.964,110.443 127.797,87.7767 148.5,69.5C 155.352,64.0629 162.352,58.8962 169.5,54C 171.459,53.0691 173.459,52.2357 175.5,51.5C 177.836,52.5939 177.836,53.9272 175.5,55.5C 165.711,58.8126 157.544,64.4793 151,72.5C 147.157,78.8534 142.823,84.8534 138,90.5C 135.74,94.516 133.907,98.6827 132.5,103C 133.059,103.725 133.392,104.558 133.5,105.5C 130.701,116.894 130.868,128.227 134,139.5C 135.271,142.433 136.938,145.099 139,147.5C 145.797,152.63 151.964,158.463 157.5,165C 165.07,165.453 171.737,168.12 177.5,173C 184.558,174.451 191.558,174.951 198.5,174.5 Z"/></g>
<g><path style="opacity:1" fill="#f4eb33" d="M 199.5,153.5 C 198.609,152.739 197.942,151.739 197.5,150.5C 198.156,148.382 198.489,146.382 198.5,144.5C 204.82,143.425 210.653,141.091 216,137.5C 219.216,131.736 221.883,125.736 224,119.5C 227.466,107.951 223.966,99.4511 213.5,94C 205.872,90.426 197.872,88.0927 189.5,87C 187.93,84.0733 185.596,83.0733 182.5,84C 178.667,87.8333 174.833,91.6667 171,95.5C 167.567,104.947 167.9,114.281 172,123.5C 175.371,128.036 178.538,132.702 181.5,137.5C 185.457,141.145 190.124,143.145 195.5,143.5C 195.264,146.609 195.597,149.609 196.5,152.5C 195.883,152.611 195.383,152.944 195,153.5C 190.043,151.373 184.876,149.873 179.5,149C 174.135,140.727 167.968,133.227 161,126.5C 158.932,122.364 157.432,118.031 156.5,113.5C 159.023,105.768 161.857,98.1011 165,90.5C 175.432,79.3702 188.265,74.5369 203.5,76C 209.954,79.3107 216.454,82.4774 223,85.5C 225.723,88.5568 228.056,91.8901 230,95.5C 232.587,110.136 230.587,124.136 224,137.5C 220.324,142.342 216.158,146.675 211.5,150.5C 207.736,152.441 203.736,153.441 199.5,153.5 Z"/></g>
<g><path style="opacity:1" fill="#fefefe" d="M 198.5,144.5 C 197.549,143.081 197.216,141.415 197.5,139.5C 197.335,135.818 197.501,132.152 198,128.5C 205.213,125.516 208.213,120.183 207,112.5C 202.221,106.076 196.555,105.076 190,109.5C 186.951,113.589 186.285,117.923 188,122.5C 190.806,124.395 193.14,126.728 195,129.5C 195.499,134.155 195.666,138.821 195.5,143.5C 190.124,143.145 185.457,141.145 181.5,137.5C 178.538,132.702 175.371,128.036 172,123.5C 167.9,114.281 167.567,104.947 171,95.5C 174.833,91.6667 178.667,87.8333 182.5,84C 185.596,83.0733 187.93,84.0733 189.5,87C 197.872,88.0927 205.872,90.426 213.5,94C 223.966,99.4511 227.466,107.951 224,119.5C 221.883,125.736 219.216,131.736 216,137.5C 210.653,141.091 204.82,143.425 198.5,144.5 Z"/></g>
<g><path style="opacity:1" fill="#3c302d" d="M 197.5,139.5 C 196.833,140.833 196.167,142.167 195.5,143.5C 195.666,138.821 195.499,134.155 195,129.5C 193.14,126.728 190.806,124.395 188,122.5C 186.285,117.923 186.951,113.589 190,109.5C 196.555,105.076 202.221,106.076 207,112.5C 208.213,120.183 205.213,125.516 198,128.5C 197.501,132.152 197.335,135.818 197.5,139.5 Z"/></g>
<g><path style="opacity:1" fill="#e62024" d="M 193.5,110.5 C 200.001,109.341 203.668,112.007 204.5,118.5C 203.022,118.238 201.689,118.571 200.5,119.5C 201.641,120.425 201.641,121.259 200.5,122C 197.512,124.144 194.512,124.477 191.5,123C 188.64,118.323 189.307,114.156 193.5,110.5 Z"/></g>
<g><path style="opacity:0.999" fill="#161515" d="M 197.5,139.5 C 197.216,141.415 197.549,143.081 198.5,144.5C 198.489,146.382 198.156,148.382 197.5,150.5C 197.942,151.739 198.609,152.739 199.5,153.5C 199.588,161.1 200.588,168.434 202.5,175.5C 202.599,178.237 202.265,180.904 201.5,183.5C 201.977,192.887 202.977,202.22 204.5,211.5C 205.167,213.5 205.833,215.5 206.5,217.5C 206.167,218.167 205.833,218.833 205.5,219.5C 204.177,222.281 204.344,224.947 206,227.5C 213.684,231.514 220.517,236.681 226.5,243C 233.477,242.603 240.477,242.603 247.5,243C 252.651,243.91 257.318,245.91 261.5,249C 266.376,253.708 271.043,258.541 275.5,263.5C 277.287,265.858 278.287,268.525 278.5,271.5C 281.237,271.401 283.904,271.735 286.5,272.5C 284.997,277.568 281.663,279.235 276.5,277.5C 273.633,278.774 270.633,279.607 267.5,280C 266.944,280.383 266.611,280.883 266.5,281.5C 265.142,282.626 263.808,282.626 262.5,281.5C 264.186,280.143 265.852,278.81 267.5,277.5C 269.414,276.815 271.414,276.315 273.5,276C 271.443,271.946 269.609,267.779 268,263.5C 266.951,261.382 265.451,259.716 263.5,258.5C 257.166,251.333 249.166,247.333 239.5,246.5C 236.795,246.316 234.462,246.983 232.5,248.5C 232.415,251.649 233.415,254.316 235.5,256.5C 236.891,262.747 237.558,269.081 237.5,275.5C 237.5,277.167 237.5,278.833 237.5,280.5C 235.398,283.931 233.565,287.598 232,291.5C 231.292,292.381 230.458,293.047 229.5,293.5C 231.292,288.668 232.625,283.668 233.5,278.5C 233.618,275.514 232.952,272.848 231.5,270.5C 230.943,265.835 229.61,261.502 227.5,257.5C 224.184,246.014 216.851,238.181 205.5,234C 201.442,233.66 197.442,232.993 193.5,232C 187.78,231.212 182.114,231.379 176.5,232.5C 175.537,232.03 175.537,231.363 176.5,230.5C 184.762,228.377 193.095,228.044 201.5,229.5C 201.167,226.167 200.833,222.833 200.5,219.5C 199.454,217.118 199.454,214.785 200.5,212.5C 199.563,203.243 198.896,194.243 198.5,185.5C 198.5,184.5 198.5,183.5 198.5,182.5C 198.5,179.833 198.5,177.167 198.5,174.5C 197.504,167.218 196.837,159.884 196.5,152.5C 195.597,149.609 195.264,146.609 195.5,143.5C 196.167,142.167 196.833,140.833 197.5,139.5 Z"/></g>
<g><path style="opacity:1" fill="#fcfbf2" d="M 198.5,182.5 C 198.5,183.5 198.5,184.5 198.5,185.5C 196.62,185.771 195.287,185.104 194.5,183.5C 195.959,183.567 197.292,183.234 198.5,182.5 Z"/></g>
<g><path style="opacity:1" fill="#9ea34e" d="M 104.5,218.5 C 105.289,218.783 105.956,219.283 106.5,220C 104.655,222.851 103.489,226.018 103,229.5C 101.916,228.335 101.083,227.002 100.5,225.5C 101.592,222.976 102.926,220.643 104.5,218.5 Z"/></g>
<g><path style="opacity:1" fill="#faf9e9" d="M 206.5,217.5 C 207.167,217.5 207.833,217.5 208.5,217.5C 208.027,218.906 207.027,219.573 205.5,219.5C 205.833,218.833 206.167,218.167 206.5,217.5 Z"/></g>
<g><path style="opacity:1" fill="#a3a654" d="M 111.5,221.5 C 112.5,221.5 113.5,221.5 114.5,221.5C 114.202,225.623 113.369,229.623 112,233.5C 108.926,229.663 108.759,225.663 111.5,221.5 Z"/></g>
<g><path style="opacity:1" fill="#f5eb1a" d="M 227.5,257.5 C 229.61,261.502 230.943,265.835 231.5,270.5C 226.124,264.351 219.457,260.018 211.5,257.5C 208.476,258.291 205.476,257.958 202.5,256.5C 201.062,256.719 199.729,257.219 198.5,258C 194.287,261.388 190.287,264.888 186.5,268.5C 183.822,259.477 178.488,252.477 170.5,247.5C 175.179,243.305 180.513,239.805 186.5,237C 191.5,236.333 196.5,236.333 201.5,237C 203.589,238.171 205.589,239.504 207.5,241C 212.586,247.351 218.252,253.017 224.5,258C 225.577,258.47 226.577,258.303 227.5,257.5 Z"/></g>
<g><path style="opacity:0.998" fill="#1a1716" d="M 136.5,243.5 C 147.863,243.786 159.197,245.119 170.5,247.5C 178.488,252.477 183.822,259.477 186.5,268.5C 186.429,272.697 186.763,276.863 187.5,281C 187.238,283.547 186.738,286.047 186,288.5C 183.808,295.468 180.641,301.801 176.5,307.5C 173.027,309.652 169.36,311.319 165.5,312.5C 165.5,312.167 165.5,311.833 165.5,311.5C 166.456,310.341 167.456,309.174 168.5,308C 167.971,306.441 167.304,304.941 166.5,303.5C 167.002,302.479 167.668,302.312 168.5,303C 169.191,304.067 169.691,305.234 170,306.5C 176.081,302.273 176.914,297.273 172.5,291.5C 172.833,291.167 173.167,290.833 173.5,290.5C 175.133,292.503 177.133,293.836 179.5,294.5C 179.777,291.552 179.444,288.719 178.5,286C 179.938,284.759 181.438,284.259 183,284.5C 183.49,283.207 183.657,281.873 183.5,280.5C 184.447,266.511 178.78,256.511 166.5,250.5C 158.092,247.807 149.425,246.807 140.5,247.5C 136.395,247.234 132.395,247.734 128.5,249C 121.257,252.585 114.924,257.085 109.5,262.5C 108.662,262.842 108.328,263.508 108.5,264.5C 98.0288,270.763 92.6954,280.096 92.5,292.5C 91.0497,307.213 94.2164,320.88 102,333.5C 102.5,335 103,336.5 103.5,338C 103.43,338.765 103.097,339.265 102.5,339.5C 100.983,339.489 99.8159,338.823 99,337.5C 96.1383,331.248 93.4716,324.915 91,318.5C 89.2757,310.763 88.109,302.93 87.5,295C 87.7267,292.381 88.3934,289.881 89.5,287.5C 89.3918,286.558 89.0585,285.725 88.5,285C 98.1901,263.806 114.19,249.973 136.5,243.5 Z"/></g>
<g><path style="opacity:1" fill="#f6f4c9" d="M 176.5,230.5 C 175.537,231.363 175.537,232.03 176.5,232.5C 182.114,231.379 187.78,231.212 193.5,232C 197.442,232.993 201.442,233.66 205.5,234C 216.851,238.181 224.184,246.014 227.5,257.5C 226.577,258.303 225.577,258.47 224.5,258C 218.252,253.017 212.586,247.351 207.5,241C 205.589,239.504 203.589,238.171 201.5,237C 196.5,236.333 191.5,236.333 186.5,237C 180.513,239.805 175.179,243.305 170.5,247.5C 159.197,245.119 147.863,243.786 136.5,243.5C 142.176,243.666 147.843,243.499 153.5,243C 158.044,240.481 162.711,238.148 167.5,236C 168.571,231.138 171.571,229.305 176.5,230.5 Z"/></g>
<g><path style="opacity:1" fill="#191918" d="M 170.5,234.5 C 171.601,233.402 172.934,233.235 174.5,234C 173.122,235.334 171.789,235.501 170.5,234.5 Z"/></g>
<g><path style="opacity:1" fill="#edebe0" d="M 263.5,258.5 C 258.406,255.923 253.406,253.089 248.5,250C 243.233,248.809 237.899,248.309 232.5,248.5C 234.462,246.983 236.795,246.316 239.5,246.5C 249.166,247.333 257.166,251.333 263.5,258.5 Z"/></g>
<g><path style="opacity:1" fill="#f5f3df" d="M 140.5,247.5 C 136.741,250.034 132.407,251.534 127.5,252C 124.898,254.312 125.232,256.145 128.5,257.5C 126.784,259.025 124.784,260.025 122.5,260.5C 117.969,259.604 113.636,260.271 109.5,262.5C 114.924,257.085 121.257,252.585 128.5,249C 132.395,247.734 136.395,247.234 140.5,247.5 Z"/></g>
<g><path style="opacity:1" fill="#f9f7cc" d="M 232.5,248.5 C 237.899,248.309 243.233,248.809 248.5,250C 253.406,253.089 258.406,255.923 263.5,258.5C 263.5,260.167 263.5,261.833 263.5,263.5C 260.222,262.191 257.222,260.358 254.5,258C 248.106,255.918 241.773,255.418 235.5,256.5C 233.415,254.316 232.415,251.649 232.5,248.5 Z"/></g>
<g><path style="opacity:1" fill="#f9f6c6" d="M 140.5,247.5 C 149.425,246.807 158.092,247.807 166.5,250.5C 158.94,251.572 151.273,252.739 143.5,254C 139.49,255.124 135.656,256.624 132,258.5C 130.862,258.011 129.695,257.678 128.5,257.5C 125.232,256.145 124.898,254.312 127.5,252C 132.407,251.534 136.741,250.034 140.5,247.5 Z"/></g>
<g><path style="opacity:1" fill="#f5eb1b" d="M 166.5,250.5 C 178.78,256.511 184.447,266.511 183.5,280.5C 181.932,281.473 180.265,281.64 178.5,281C 172.65,277.983 166.65,275.483 160.5,273.5C 158.486,273.437 156.819,274.103 155.5,275.5C 151.616,267.558 145.283,264.391 136.5,266C 126.192,268.979 120.026,275.813 118,286.5C 116.933,292.192 117.766,297.525 120.5,302.5C 120.833,302.333 121.167,302.167 121.5,302C 117.235,289.461 120.568,279.461 131.5,272C 139.887,266.338 146.553,267.838 151.5,276.5C 148.784,276.678 146.117,277.178 143.5,278C 141.112,279.861 138.446,281.194 135.5,282C 133.632,285.36 131.132,288.193 128,290.5C 126.908,293.044 126.241,295.711 126,298.5C 122.842,302.411 122.675,306.411 125.5,310.5C 125.5,311.5 125.5,312.5 125.5,313.5C 126.212,315.928 127.212,318.261 128.5,320.5C 130.705,321.871 132.372,323.704 133.5,326C 126.301,339.006 127.301,351.339 136.5,363C 140.471,365.093 144.471,365.927 148.5,365.5C 149.76,371.979 153.76,374.812 160.5,374C 162.093,373.051 163.426,371.885 164.5,370.5C 167.172,369.499 169.838,368.499 172.5,367.5C 176.226,367.177 179.893,367.511 183.5,368.5C 184.95,369.85 185.617,371.516 185.5,373.5C 185.167,373.5 184.833,373.5 184.5,373.5C 183.518,372.859 182.518,372.193 181.5,371.5C 166.106,380.68 149.439,384.18 131.5,382C 128.204,380.489 124.871,379.323 121.5,378.5C 121.167,378.5 120.833,378.5 120.5,378.5C 119.644,374.736 118.644,371.069 117.5,367.5C 117.667,366.167 117.833,364.833 118,363.5C 123.521,356.857 125.021,349.524 122.5,341.5C 121.448,341.649 120.448,341.483 119.5,341C 104.176,325.234 98.6765,306.4 103,284.5C 104.278,280.835 105.444,277.168 106.5,273.5C 108.167,272.5 109.5,271.167 110.5,269.5C 114.5,266.5 118.5,263.5 122.5,260.5C 124.784,260.025 126.784,259.025 128.5,257.5C 129.695,257.678 130.862,258.011 132,258.5C 135.656,256.624 139.49,255.124 143.5,254C 151.273,252.739 158.94,251.572 166.5,250.5 Z"/></g>
<g><path style="opacity:1" fill="#f5eb1d" d="M 263.5,263.5 C 266.212,267.695 267.545,272.361 267.5,277.5C 265.852,278.81 264.186,280.143 262.5,281.5C 263.808,282.626 265.142,282.626 266.5,281.5C 267.673,283.504 269.34,285.004 271.5,286C 274.877,286.452 278.211,287.118 281.5,288C 286.875,292.048 292.708,295.215 299,297.5C 303.872,306.812 304.705,316.478 301.5,326.5C 301.199,329.317 299.866,329.984 297.5,328.5C 295.739,330.68 293.573,332.346 291,333.5C 290.839,324.783 290.173,316.116 289,307.5C 282.198,301.699 275.698,295.532 269.5,289C 260.712,288.136 252.046,288.636 243.5,290.5C 241.5,290.167 239.5,289.833 237.5,289.5C 238.407,286.579 238.74,283.579 238.5,280.5C 238.897,278.338 240.231,277.005 242.5,276.5C 240.955,275.548 239.288,275.215 237.5,275.5C 237.558,269.081 236.891,262.747 235.5,256.5C 241.773,255.418 248.106,255.918 254.5,258C 257.222,260.358 260.222,262.191 263.5,263.5 Z"/></g>
<g><path style="opacity:1" fill="#f9f6bb" d="M 122.5,260.5 C 118.5,263.5 114.5,266.5 110.5,269.5C 109.559,267.95 108.893,266.284 108.5,264.5C 108.328,263.508 108.662,262.842 109.5,262.5C 113.636,260.271 117.969,259.604 122.5,260.5 Z"/></g>
<g><path style="opacity:1" fill="#9fa44c" d="M 304.5,261.5 C 310.646,264.226 316.979,266.392 323.5,268C 321.238,270.829 318.905,270.996 316.5,268.5C 310.415,270.444 306.415,268.111 304.5,261.5 Z"/></g>
<g><path style="opacity:1" fill="#f2f1eb" d="M 263.5,258.5 C 265.451,259.716 266.951,261.382 268,263.5C 269.609,267.779 271.443,271.946 273.5,276C 271.414,276.315 269.414,276.815 267.5,277.5C 267.545,272.361 266.212,267.695 263.5,263.5C 263.5,261.833 263.5,260.167 263.5,258.5 Z"/></g>
<g><path style="opacity:1" fill="#a2a650" d="M 320.5,272.5 C 325.41,273.81 325.743,275.977 321.5,279C 317.797,279.579 314.131,279.412 310.5,278.5C 310.312,276.897 310.812,275.563 312,274.5C 312.333,274.833 312.667,275.167 313,275.5C 315.756,274.93 318.256,273.93 320.5,272.5 Z"/></g>
<g><path style="opacity:1" fill="#392f17" d="M 155.5,275.5 C 159.025,289.443 153.691,297.776 139.5,300.5C 137.595,299.935 135.929,298.935 134.5,297.5C 150.174,298.498 155.841,291.498 151.5,276.5C 146.553,267.838 139.887,266.338 131.5,272C 120.568,279.461 117.235,289.461 121.5,302C 121.167,302.167 120.833,302.333 120.5,302.5C 117.766,297.525 116.933,292.192 118,286.5C 120.026,275.813 126.192,268.979 136.5,266C 145.283,264.391 151.616,267.558 155.5,275.5 Z"/></g>
<g><path style="opacity:1" fill="#faf8dd" d="M 237.5,275.5 C 239.288,275.215 240.955,275.548 242.5,276.5C 240.231,277.005 238.897,278.338 238.5,280.5C 238.167,280.5 237.833,280.5 237.5,280.5C 237.5,278.833 237.5,277.167 237.5,275.5 Z"/></g>
<g><path style="opacity:1" fill="#f5f3df" d="M 108.5,264.5 C 108.893,266.284 109.559,267.95 110.5,269.5C 109.5,271.167 108.167,272.5 106.5,273.5C 104.5,273.5 102.5,273.5 100.5,273.5C 99.5994,277.316 98.0994,280.983 96,284.5C 95.5026,287.146 95.3359,289.813 95.5,292.5C 94.5,292.5 93.5,292.5 92.5,292.5C 92.6954,280.096 98.0288,270.763 108.5,264.5 Z"/></g>
<g><path style="opacity:1" fill="#5a3f21" d="M 220.5,283.5 C 220.5,284.833 220.5,286.167 220.5,287.5C 219.325,287.719 218.325,287.386 217.5,286.5C 218.711,285.28 218.711,284.113 217.5,283C 215.153,282.666 212.819,282.833 210.5,283.5C 209.508,286.822 208.508,290.155 207.5,293.5C 208.847,296.507 210.18,299.507 211.5,302.5C 207.117,300.763 205.117,297.43 205.5,292.5C 206.551,288.732 207.884,285.065 209.5,281.5C 213.688,279.682 217.355,280.349 220.5,283.5 Z"/></g>
<g><path style="opacity:1" fill="#f8f6cc" d="M 286.5,272.5 C 287.833,272.5 288.5,273.167 288.5,274.5C 288.082,275.222 287.416,275.722 286.5,276C 300.874,278.374 309.207,286.707 311.5,301C 311.371,305.393 309.705,309.06 306.5,312C 308.598,312.678 310.598,312.511 312.5,311.5C 312.842,312.338 313.508,312.672 314.5,312.5C 314.5,313.167 314.5,313.833 314.5,314.5C 313.427,315.251 313.26,316.251 314,317.5C 317.029,319.029 319.195,321.362 320.5,324.5C 321.991,325.244 323.491,325.91 325,326.5C 325.191,328.708 325.691,330.708 326.5,332.5C 327.718,345.545 324.551,357.545 317,368.5C 313.069,371.877 308.902,374.877 304.5,377.5C 299.473,378.523 294.806,381.023 290.5,385C 288.613,385.78 286.946,385.613 285.5,384.5C 290.803,380.727 296.303,377.06 302,373.5C 307.545,367.621 311.878,360.955 315,353.5C 318.725,340.39 314.225,331.39 301.5,326.5C 304.705,316.478 303.872,306.812 299,297.5C 292.708,295.215 286.875,292.048 281.5,288C 278.211,287.118 274.877,286.452 271.5,286C 269.34,285.004 267.673,283.504 266.5,281.5C 266.611,280.883 266.944,280.383 267.5,280C 270.633,279.607 273.633,278.774 276.5,277.5C 281.663,279.235 284.997,277.568 286.5,272.5 Z"/></g>
<g><path style="opacity:1" fill="#2c2c28" d="M 288.5,274.5 C 295.496,275.913 301.996,278.58 308,282.5C 310.588,286.674 312.921,291.007 315,295.5C 315.775,301.117 314.942,306.45 312.5,311.5C 310.598,312.511 308.598,312.678 306.5,312C 309.705,309.06 311.371,305.393 311.5,301C 309.207,286.707 300.874,278.374 286.5,276C 287.416,275.722 288.082,275.222 288.5,274.5 Z"/></g>
<g><path style="opacity:1" fill="#fdce33" d="M 231.5,270.5 C 232.952,272.848 233.618,275.514 233.5,278.5C 232.625,283.668 231.292,288.668 229.5,293.5C 228.417,293.461 227.417,293.127 226.5,292.5C 225.996,295.342 224.329,296.675 221.5,296.5C 221.503,293.325 222.503,290.492 224.5,288C 222.93,286.603 221.596,285.103 220.5,283.5C 217.355,280.349 213.688,279.682 209.5,281.5C 207.884,285.065 206.551,288.732 205.5,292.5C 205.117,297.43 207.117,300.763 211.5,302.5C 214.167,302.5 216.833,302.5 219.5,302.5C 218.889,305.961 220.056,308.628 223,310.5C 226.163,315.06 226.663,319.727 224.5,324.5C 223.551,327.029 224.218,329.362 226.5,331.5C 225.41,332.609 225.41,333.609 226.5,334.5C 227.325,332.64 228.325,330.974 229.5,329.5C 231.045,330.23 231.878,331.563 232,333.5C 233.243,332.664 234.41,332.997 235.5,334.5C 234.975,335.192 234.308,335.692 233.5,336C 236.167,337.333 236.167,338.667 233.5,340C 234.893,341.171 235.727,342.671 236,344.5C 236.333,344.167 236.667,343.833 237,343.5C 237.72,345.255 238.887,346.089 240.5,346C 239.786,344.657 240.12,343.324 241.5,342C 238.903,341.221 238.903,340.721 241.5,340.5C 242.833,340.5 244.167,340.5 245.5,340.5C 246.429,341.315 247.429,342.148 248.5,343C 247.594,344.699 247.261,346.533 247.5,348.5C 250.05,348.439 251.55,347.106 252,344.5C 252.251,346.433 252.751,348.266 253.5,350C 252.747,351.487 251.914,351.654 251,350.5C 249.385,352.011 249.385,353.344 251,354.5C 251.333,353.833 251.667,353.167 252,352.5C 252.21,354.058 252.71,355.391 253.5,356.5C 253.5,357.5 253.5,358.5 253.5,359.5C 252.655,360.671 251.989,362.005 251.5,363.5C 246.901,361.226 242.901,358.226 239.5,354.5C 232.785,358.189 225.785,361.356 218.5,364C 216.768,365.972 215.435,368.139 214.5,370.5C 211.638,372.76 208.638,374.76 205.5,376.5C 199.228,377.566 192.895,377.566 186.5,376.5C 185.596,375.791 185.263,374.791 185.5,373.5C 185.617,371.516 184.95,369.85 183.5,368.5C 179.893,367.511 176.226,367.177 172.5,367.5C 174.072,365.133 173.739,363.133 171.5,361.5C 171.089,362.262 170.923,363.262 171,364.5C 168.937,366.734 166.771,368.734 164.5,370.5C 153.074,374.573 149.241,370.573 153,358.5C 154.306,354.187 156.806,350.687 160.5,348C 166.026,346.046 171.693,344.713 177.5,344C 175.19,343.503 172.857,343.337 170.5,343.5C 171.718,342.839 173.051,342.172 174.5,341.5C 173.833,340.833 173.167,340.167 172.5,339.5C 173.651,338.269 174.817,338.269 176,339.5C 176.5,339 177,338.5 177.5,338C 176.167,337 176.167,336 177.5,335C 175.572,335.049 173.572,334.716 171.5,334C 169.291,335.873 167.458,338.04 166,340.5C 163.635,338.635 163.468,336.968 165.5,335.5C 165.291,334.914 164.957,334.414 164.5,334C 165.954,331.756 167.288,329.423 168.5,327C 167.833,326.333 167.167,325.667 166.5,325C 168.593,322.742 170.593,321.075 172.5,320C 172.025,318.237 171.358,316.57 170.5,315C 173.312,313.023 175.978,310.856 178.5,308.5C 178.043,307.702 177.376,307.369 176.5,307.5C 180.641,301.801 183.808,295.468 186,288.5C 186.738,286.047 187.238,283.547 187.5,281C 186.763,276.863 186.429,272.697 186.5,268.5C 190.287,264.888 194.287,261.388 198.5,258C 199.729,257.219 201.062,256.719 202.5,256.5C 205.476,257.958 208.476,258.291 211.5,257.5C 219.457,260.018 226.124,264.351 231.5,270.5 Z"/></g>
<g><path style="opacity:1" fill="#774327" d="M 125.5,310.5 C 130.463,312.394 130.463,313.394 125.5,313.5C 125.5,312.5 125.5,311.5 125.5,310.5 Z"/></g>
<g><path style="opacity:1" fill="#1b1b1a" d="M 314.5,312.5 C 321.432,313.25 326.265,316.916 329,323.5C 330.391,330.746 330.891,338.079 330.5,345.5C 330.567,346.959 330.234,348.292 329.5,349.5C 327.992,363.365 321.325,373.865 309.5,381C 306.074,382.238 304.408,381.071 304.5,377.5C 308.902,374.877 313.069,371.877 317,368.5C 324.551,357.545 327.718,345.545 326.5,332.5C 327.466,323.08 323.466,317.08 314.5,314.5C 314.5,313.833 314.5,313.167 314.5,312.5 Z"/></g>
<g><path style="opacity:1" fill="#f4f4f1" d="M 314.5,314.5 C 323.466,317.08 327.466,323.08 326.5,332.5C 325.691,330.708 325.191,328.708 325,326.5C 323.491,325.91 321.991,325.244 320.5,324.5C 319.195,321.362 317.029,319.029 314,317.5C 313.26,316.251 313.427,315.251 314.5,314.5 Z"/></g>
<g><path style="opacity:1" fill="#fbcd34" d="M 183.5,280.5 C 183.657,281.873 183.49,283.207 183,284.5C 181.438,284.259 179.938,284.759 178.5,286C 179.444,288.719 179.777,291.552 179.5,294.5C 177.133,293.836 175.133,292.503 173.5,290.5C 173.167,290.833 172.833,291.167 172.5,291.5C 176.914,297.273 176.081,302.273 170,306.5C 169.691,305.234 169.191,304.067 168.5,303C 167.668,302.312 167.002,302.479 166.5,303.5C 167.304,304.941 167.971,306.441 168.5,308C 167.456,309.174 166.456,310.341 165.5,311.5C 162.487,312.338 159.82,313.838 157.5,316C 154.367,316.96 151.2,317.793 148,318.5C 142.142,317.094 136.309,315.927 130.5,315C 131.5,316 132.5,317 133.5,318C 144.073,322.221 154.073,321.221 163.5,315C 164.381,314.292 165.047,313.458 165.5,312.5C 169.36,311.319 173.027,309.652 176.5,307.5C 177.376,307.369 178.043,307.702 178.5,308.5C 175.978,310.856 173.312,313.023 170.5,315C 171.358,316.57 172.025,318.237 172.5,320C 170.593,321.075 168.593,322.742 166.5,325C 167.167,325.667 167.833,326.333 168.5,327C 167.288,329.423 165.954,331.756 164.5,334C 164.957,334.414 165.291,334.914 165.5,335.5C 163.468,336.968 163.635,338.635 166,340.5C 167.458,338.04 169.291,335.873 171.5,334C 173.572,334.716 175.572,335.049 177.5,335C 176.167,336 176.167,337 177.5,338C 177,338.5 176.5,339 176,339.5C 174.817,338.269 173.651,338.269 172.5,339.5C 173.167,340.167 173.833,340.833 174.5,341.5C 173.051,342.172 171.718,342.839 170.5,343.5C 155.66,343.006 148.327,350.339 148.5,365.5C 144.471,365.927 140.471,365.093 136.5,363C 127.301,351.339 126.301,339.006 133.5,326C 132.372,323.704 130.705,321.871 128.5,320.5C 127.212,318.261 126.212,315.928 125.5,313.5C 130.463,313.394 130.463,312.394 125.5,310.5C 122.675,306.411 122.842,302.411 126,298.5C 126.241,295.711 126.908,293.044 128,290.5C 131.132,288.193 133.632,285.36 135.5,282C 138.446,281.194 141.112,279.861 143.5,278C 146.117,277.178 148.784,276.678 151.5,276.5C 155.841,291.498 150.174,298.498 134.5,297.5C 135.929,298.935 137.595,299.935 139.5,300.5C 153.691,297.776 159.025,289.443 155.5,275.5C 156.819,274.103 158.486,273.437 160.5,273.5C 166.65,275.483 172.65,277.983 178.5,281C 180.265,281.64 181.932,281.473 183.5,280.5 Z"/></g>
<g><path style="opacity:1" fill="#41301a" d="M 165.5,311.5 C 165.5,311.833 165.5,312.167 165.5,312.5C 165.047,313.458 164.381,314.292 163.5,315C 154.073,321.221 144.073,322.221 133.5,318C 132.5,317 131.5,316 130.5,315C 136.309,315.927 142.142,317.094 148,318.5C 151.2,317.793 154.367,316.96 157.5,316C 159.82,313.838 162.487,312.338 165.5,311.5 Z"/></g>
<g><path style="opacity:1" fill="#6b582c" d="M 132.5,288.5 C 133.725,289.152 134.392,290.319 134.5,292C 134.333,293.167 134.167,294.333 134,295.5C 132.648,293.406 132.148,291.073 132.5,288.5 Z"/></g>
<g><path style="opacity:1" fill="#facd36" d="M 237.5,280.5 C 237.833,280.5 238.167,280.5 238.5,280.5C 238.74,283.579 238.407,286.579 237.5,289.5C 239.5,289.833 241.5,290.167 243.5,290.5C 252.046,288.636 260.712,288.136 269.5,289C 275.698,295.532 282.198,301.699 289,307.5C 290.173,316.116 290.839,324.783 291,333.5C 293.573,332.346 295.739,330.68 297.5,328.5C 299.866,329.984 301.199,329.317 301.5,326.5C 314.225,331.39 318.725,340.39 315,353.5C 311.878,360.955 307.545,367.621 302,373.5C 296.303,377.06 290.803,380.727 285.5,384.5C 285.167,384.5 284.833,384.5 284.5,384.5C 280.943,385.617 277.276,386.617 273.5,387.5C 272.264,386.754 270.93,386.421 269.5,386.5C 261.919,383.027 258.086,377.027 258,368.5C 255.713,366.946 253.546,365.279 251.5,363.5C 251.989,362.005 252.655,360.671 253.5,359.5C 257.59,354.1 262.59,349.6 268.5,346C 268,345.5 267.5,345 267,344.5C 264.436,346.727 261.603,348.561 258.5,350C 256.97,352.352 255.303,354.519 253.5,356.5C 252.71,355.391 252.21,354.058 252,352.5C 251.667,353.167 251.333,353.833 251,354.5C 249.385,353.344 249.385,352.011 251,350.5C 251.914,351.654 252.747,351.487 253.5,350C 252.751,348.266 252.251,346.433 252,344.5C 251.55,347.106 250.05,348.439 247.5,348.5C 247.261,346.533 247.594,344.699 248.5,343C 247.429,342.148 246.429,341.315 245.5,340.5C 252.805,341.181 259.139,339.014 264.5,334C 274.197,326.813 277.03,317.646 273,306.5C 268.979,303.884 264.812,301.551 260.5,299.5C 258.556,302.155 255.89,303.489 252.5,303.5C 251.19,298.341 250.69,298.341 251,303.5C 251.674,304.578 252.674,305.245 254,305.5C 258.85,304.388 263.683,304.555 268.5,306C 272.13,309.05 273.297,312.883 272,317.5C 265.774,331.187 255.274,337.52 240.5,336.5C 240.579,335.07 240.246,333.736 239.5,332.5C 238.833,331.167 238.167,331.167 237.5,332.5C 237.95,335.714 239.283,338.381 241.5,340.5C 238.903,340.721 238.903,341.221 241.5,342C 240.12,343.324 239.786,344.657 240.5,346C 238.887,346.089 237.72,345.255 237,343.5C 236.667,343.833 236.333,344.167 236,344.5C 235.727,342.671 234.893,341.171 233.5,340C 236.167,338.667 236.167,337.333 233.5,336C 234.308,335.692 234.975,335.192 235.5,334.5C 234.41,332.997 233.243,332.664 232,333.5C 231.878,331.563 231.045,330.23 229.5,329.5C 229.66,327.801 229.494,326.134 229,324.5C 228.517,325.448 228.351,326.448 228.5,327.5C 226.381,327.532 225.048,326.532 224.5,324.5C 226.663,319.727 226.163,315.06 223,310.5C 220.056,308.628 218.889,305.961 219.5,302.5C 216.833,302.5 214.167,302.5 211.5,302.5C 210.18,299.507 208.847,296.507 207.5,293.5C 208.508,290.155 209.508,286.822 210.5,283.5C 212.819,282.833 215.153,282.666 217.5,283C 218.711,284.113 218.711,285.28 217.5,286.5C 218.325,287.386 219.325,287.719 220.5,287.5C 220.5,286.167 220.5,284.833 220.5,283.5C 221.596,285.103 222.93,286.603 224.5,288C 222.503,290.492 221.503,293.325 221.5,296.5C 224.329,296.675 225.996,295.342 226.5,292.5C 227.417,293.127 228.417,293.461 229.5,293.5C 230.458,293.047 231.292,292.381 232,291.5C 233.565,287.598 235.398,283.931 237.5,280.5 Z"/></g>
<g><path style="opacity:1" fill="#543e20" d="M 250.5,314.5 C 254.076,316.823 255.243,320.157 254,324.5C 252.263,327.533 250.097,328.033 247.5,326C 254.639,321.586 253.973,319.92 245.5,321C 242.979,323.22 240.812,325.72 239,328.5C 238.333,327.167 238.333,325.833 239,324.5C 242.47,320.551 246.303,317.218 250.5,314.5 Z"/></g>
<g><path style="opacity:1" fill="#5f4524" d="M 231.5,311.5 C 234.704,314.393 235.204,317.726 233,321.5C 232.545,318.146 232.045,314.813 231.5,311.5 Z"/></g>
<g><path style="opacity:1" fill="#8b7039" d="M 224.5,324.5 C 225.048,326.532 226.381,327.532 228.5,327.5C 228.351,326.448 228.517,325.448 229,324.5C 229.494,326.134 229.66,327.801 229.5,329.5C 228.325,330.974 227.325,332.64 226.5,334.5C 225.41,333.609 225.41,332.609 226.5,331.5C 224.218,329.362 223.551,327.029 224.5,324.5 Z"/></g>
<g><path style="opacity:1" fill="#f6f6f8" d="M 338.5,331.5 C 337.609,332.11 336.609,332.443 335.5,332.5C 336.221,330.618 337.221,330.285 338.5,331.5 Z"/></g>
<g><path style="opacity:1" fill="#2b1f1c" d="M 338.5,331.5 C 341.167,331.5 343.833,331.5 346.5,331.5C 346.5,332.833 346.5,334.167 346.5,335.5C 344.005,338.122 343.005,341.122 343.5,344.5C 345.371,345.767 347.204,345.767 349,344.5C 349.497,342.19 349.663,339.857 349.5,337.5C 349.5,336.5 349.5,335.5 349.5,334.5C 353.683,332.865 357.683,333.198 361.5,335.5C 362.614,340.446 362.781,345.446 362,350.5C 357.971,353.431 353.471,355.098 348.5,355.5C 351.842,352.732 355.342,350.066 359,347.5C 359.499,343.848 359.665,340.182 359.5,336.5C 357.139,336.674 354.806,337.007 352.5,337.5C 355.57,346.932 352.237,350.432 342.5,348C 340.354,347.521 339.354,346.188 339.5,344C 340.275,341.178 340.942,338.344 341.5,335.5C 339.856,335.286 338.356,335.62 337,336.5C 336.675,340.61 335.842,344.61 334.5,348.5C 334.668,350.171 335.335,351.504 336.5,352.5C 336.5,353.833 336.5,355.167 336.5,356.5C 335.761,356.631 335.094,356.464 334.5,356C 332.563,353.929 330.896,351.762 329.5,349.5C 330.234,348.292 330.567,346.959 330.5,345.5C 332.452,340.931 334.119,336.598 335.5,332.5C 336.609,332.443 337.609,332.11 338.5,331.5 Z"/></g>
<g><path style="opacity:1" fill="#3b2d18" d="M 245.5,340.5 C 244.167,340.5 242.833,340.5 241.5,340.5C 239.283,338.381 237.95,335.714 237.5,332.5C 238.167,331.167 238.833,331.167 239.5,332.5C 240.246,333.736 240.579,335.07 240.5,336.5C 255.274,337.52 265.774,331.187 272,317.5C 273.297,312.883 272.13,309.05 268.5,306C 263.683,304.555 258.85,304.388 254,305.5C 252.674,305.245 251.674,304.578 251,303.5C 250.69,298.341 251.19,298.341 252.5,303.5C 255.89,303.489 258.556,302.155 260.5,299.5C 264.812,301.551 268.979,303.884 273,306.5C 277.03,317.646 274.197,326.813 264.5,334C 259.139,339.014 252.805,341.181 245.5,340.5 Z"/></g>
<g><path style="opacity:1" fill="#ececec" d="M 346.5,335.5 C 347.29,336.401 348.29,337.068 349.5,337.5C 349.663,339.857 349.497,342.19 349,344.5C 347.204,345.767 345.371,345.767 343.5,344.5C 343.005,341.122 344.005,338.122 346.5,335.5 Z"/></g>
<g><path style="opacity:1" fill="#e62125" d="M 348.5,355.5 C 346.952,355.821 346.285,356.821 346.5,358.5C 345.673,363.651 345.173,368.984 345,374.5C 344.329,375.252 343.496,375.586 342.5,375.5C 342.821,369.151 342.987,362.818 343,356.5C 341.728,353.778 339.561,352.444 336.5,352.5C 335.335,351.504 334.668,350.171 334.5,348.5C 335.842,344.61 336.675,340.61 337,336.5C 338.356,335.62 339.856,335.286 341.5,335.5C 340.942,338.344 340.275,341.178 339.5,344C 339.354,346.188 340.354,347.521 342.5,348C 352.237,350.432 355.57,346.932 352.5,337.5C 354.806,337.007 357.139,336.674 359.5,336.5C 359.665,340.182 359.499,343.848 359,347.5C 355.342,350.066 351.842,352.732 348.5,355.5 Z"/></g>
<g><path style="opacity:1" fill="#44371c" d="M 275.5,340.5 C 289.208,338.579 294.041,344.246 290,357.5C 284.903,364.322 278.07,367.655 269.5,367.5C 264.299,363.375 264.299,359.208 269.5,355C 270.793,354.51 272.127,354.343 273.5,354.5C 273.5,355.5 273.5,356.5 273.5,357.5C 269.024,357.822 267.524,360.156 269,364.5C 279.158,365.812 285.324,361.312 287.5,351C 287.031,347.196 285.031,344.529 281.5,343C 277.467,343.126 273.467,343.46 269.5,344C 271.211,342.224 273.211,341.058 275.5,340.5 Z"/></g>
<g><path style="opacity:1" fill="#1a1713" d="M 170.5,343.5 C 172.857,343.337 175.19,343.503 177.5,344C 171.693,344.713 166.026,346.046 160.5,348C 156.806,350.687 154.306,354.187 153,358.5C 149.241,370.573 153.074,374.573 164.5,370.5C 163.426,371.885 162.093,373.051 160.5,374C 153.76,374.812 149.76,371.979 148.5,365.5C 148.327,350.339 155.66,343.006 170.5,343.5 Z"/></g>
<g><path style="opacity:1" fill="#f7f5ca" d="M 106.5,273.5 C 105.444,277.168 104.278,280.835 103,284.5C 98.6765,306.4 104.176,325.234 119.5,341C 120.448,341.483 121.448,341.649 122.5,341.5C 125.021,349.524 123.521,356.857 118,363.5C 117.833,364.833 117.667,366.167 117.5,367.5C 118.644,371.069 119.644,374.736 120.5,378.5C 111.315,368.794 105.315,357.461 102.5,344.5C 103.833,342.833 103.833,341.167 102.5,339.5C 103.097,339.265 103.43,338.765 103.5,338C 103,336.5 102.5,335 102,333.5C 94.2164,320.88 91.0497,307.213 92.5,292.5C 93.5,292.5 94.5,292.5 95.5,292.5C 95.3359,289.813 95.5026,287.146 96,284.5C 98.0994,280.983 99.5994,277.316 100.5,273.5C 102.5,273.5 104.5,273.5 106.5,273.5 Z"/></g>
<g><path style="opacity:1" fill="#1c1915" d="M 185.5,351.5 C 183.599,349.204 181.266,347.371 178.5,346C 183.178,344.994 185.512,346.828 185.5,351.5 Z"/></g>
<g><path style="opacity:1" fill="#5f3620" d="M 253.5,359.5 C 253.5,358.5 253.5,357.5 253.5,356.5C 255.303,354.519 256.97,352.352 258.5,350C 261.603,348.561 264.436,346.727 267,344.5C 267.5,345 268,345.5 268.5,346C 262.59,349.6 257.59,354.1 253.5,359.5 Z"/></g>
<g><path style="opacity:1" fill="#26201b" d="M 185.5,351.5 C 186.735,351.721 187.735,352.388 188.5,353.5C 189.289,356.646 189.955,359.813 190.5,363C 189.683,364.49 188.85,365.99 188,367.5C 187.487,362.103 186.653,356.77 185.5,351.5 Z"/></g>
<g><path style="opacity:1" fill="#5c2b26" d="M 336.5,352.5 C 339.561,352.444 341.728,353.778 343,356.5C 342.987,362.818 342.821,369.151 342.5,375.5C 341.326,374.486 340.66,373.153 340.5,371.5C 339.608,366.562 339.274,361.562 339.5,356.5C 338.5,356.5 337.5,356.5 336.5,356.5C 336.5,355.167 336.5,353.833 336.5,352.5 Z"/></g>
<g><path style="opacity:1" fill="#f4ea23" d="M 251.5,363.5 C 253.546,365.279 255.713,366.946 258,368.5C 258.086,377.027 261.919,383.027 269.5,386.5C 264.277,386.823 258.944,386.823 253.5,386.5C 251.989,385.498 250.322,384.831 248.5,384.5C 245.776,381.212 245.109,377.546 246.5,373.5C 245.68,371.889 244.346,371.222 242.5,371.5C 242.67,370.178 242.337,369.011 241.5,368C 236.292,366.325 230.959,365.492 225.5,365.5C 221.499,366.332 217.832,367.999 214.5,370.5C 215.435,368.139 216.768,365.972 218.5,364C 225.785,361.356 232.785,358.189 239.5,354.5C 242.901,358.226 246.901,361.226 251.5,363.5 Z"/></g>
<g><path style="opacity:1" fill="#1b1814" d="M 172.5,367.5 C 169.838,368.499 167.172,369.499 164.5,370.5C 166.771,368.734 168.937,366.734 171,364.5C 170.923,363.262 171.089,362.262 171.5,361.5C 173.739,363.133 174.072,365.133 172.5,367.5 Z"/></g>
<g><path style="opacity:1" fill="#f5f3e1" d="M 225.5,365.5 C 230.959,365.492 236.292,366.325 241.5,368C 242.337,369.011 242.67,370.178 242.5,371.5C 238.741,372.908 235.075,372.742 231.5,371C 232.833,370.667 234.167,370.333 235.5,370C 232.312,368.684 228.978,368.184 225.5,368.5C 225.5,367.5 225.5,366.5 225.5,365.5 Z"/></g>
<g><path style="opacity:1" fill="#1b1816" d="M 102.5,344.5 C 105.315,357.461 111.315,368.794 120.5,378.5C 120.833,378.5 121.167,378.5 121.5,378.5C 125.479,382.494 130.145,385.494 135.5,387.5C 149.068,394.888 162.068,393.888 174.5,384.5C 178.544,381.457 181.877,377.791 184.5,373.5C 184.833,373.5 185.167,373.5 185.5,373.5C 185.263,374.791 185.596,375.791 186.5,376.5C 186.202,379.265 185.202,381.765 183.5,384C 189.529,384.464 195.529,384.131 201.5,383C 202.628,380.935 204.294,380.268 206.5,381C 206.043,381.414 205.709,381.914 205.5,382.5C 206.689,383.429 208.022,383.762 209.5,383.5C 210.167,384.5 210.833,385.5 211.5,386.5C 210.833,386.5 210.5,386.833 210.5,387.5C 207.657,388.771 204.657,389.604 201.5,390C 193.484,390.331 185.484,390.331 177.5,390C 156.447,401.622 136.78,399.622 118.5,384C 115.299,380.464 111.799,377.297 108,374.5C 105.903,366.126 103.07,357.959 99.5,350C 100.14,347.88 101.14,346.046 102.5,344.5 Z"/></g>
<g><path style="opacity:1" fill="#f8f5bf" d="M 225.5,365.5 C 225.5,366.5 225.5,367.5 225.5,368.5C 225.443,369.609 225.11,370.609 224.5,371.5C 221.813,371.336 219.146,371.503 216.5,372C 214.65,374.018 212.65,375.851 210.5,377.5C 211.243,378.182 211.909,378.849 212.5,379.5C 212.5,379.833 212.5,380.167 212.5,380.5C 211.222,380.782 210.222,381.449 209.5,382.5C 208.078,380.488 206.745,378.488 205.5,376.5C 208.638,374.76 211.638,372.76 214.5,370.5C 217.832,367.999 221.499,366.332 225.5,365.5 Z"/></g>
<g><path style="opacity:1" fill="#f1f0e4" d="M 224.5,371.5 C 221.845,376.15 217.845,378.817 212.5,379.5C 211.909,378.849 211.243,378.182 210.5,377.5C 212.65,375.851 214.65,374.018 216.5,372C 219.146,371.503 221.813,371.336 224.5,371.5 Z"/></g>
<g><path style="opacity:1" fill="#fcfcfc" d="M 186.5,376.5 C 192.895,377.566 199.228,377.566 205.5,376.5C 206.745,378.488 208.078,380.488 209.5,382.5C 209.5,382.833 209.5,383.167 209.5,383.5C 208.022,383.762 206.689,383.429 205.5,382.5C 205.709,381.914 206.043,381.414 206.5,381C 204.294,380.268 202.628,380.935 201.5,383C 195.529,384.131 189.529,384.464 183.5,384C 185.202,381.765 186.202,379.265 186.5,376.5 Z"/></g>
<g><path style="opacity:1" fill="#c9c8c9" d="M 347.5,376.5 C 347.527,378.199 348.194,379.533 349.5,380.5C 347.801,380.66 346.134,380.494 344.5,380C 345.636,378.855 346.636,377.688 347.5,376.5 Z"/></g>
<g><path style="opacity:1" fill="#1f1f1d" d="M 225.5,368.5 C 228.978,368.184 232.312,368.684 235.5,370C 234.167,370.333 232.833,370.667 231.5,371C 235.075,372.742 238.741,372.908 242.5,371.5C 244.346,371.222 245.68,371.889 246.5,373.5C 245.109,377.546 245.776,381.212 248.5,384.5C 250.324,389.822 253.991,393.322 259.5,395C 265.088,396.289 270.755,396.789 276.5,396.5C 276.281,395.325 276.614,394.325 277.5,393.5C 280.677,396.019 283.677,395.685 286.5,392.5C 285.807,391.482 285.141,390.482 284.5,389.5C 285.167,389.167 285.833,388.833 286.5,388.5C 288.738,389.537 291.071,389.703 293.5,389C 296.843,387.078 299.677,384.578 302,381.5C 303.365,382.593 303.699,383.926 303,385.5C 288.351,399.496 271.518,402.996 252.5,396C 250.627,394.296 248.96,392.463 247.5,390.5C 247.068,389.29 246.401,388.29 245.5,387.5C 244.358,383.929 243.691,380.262 243.5,376.5C 237.788,375.957 232.121,375.457 226.5,375C 223.832,378.33 220.498,380.663 216.5,382C 218.268,386.248 220.601,390.081 223.5,393.5C 226.088,399.656 229.922,404.99 235,409.5C 237.431,413.363 239.598,417.363 241.5,421.5C 241.5,422.5 241.5,423.5 241.5,424.5C 237.805,420.285 234.639,415.618 232,410.5C 229.667,408.167 227.333,405.833 225,403.5C 220.571,395.923 216.404,388.256 212.5,380.5C 212.5,380.167 212.5,379.833 212.5,379.5C 217.845,378.817 221.845,376.15 224.5,371.5C 225.11,370.609 225.443,369.609 225.5,368.5 Z"/></g>
<g><path style="opacity:1" fill="#f7f5cd" d="M 184.5,373.5 C 181.877,377.791 178.544,381.457 174.5,384.5C 173.688,383.007 172.355,382.34 170.5,382.5C 167.313,383.919 163.98,385.086 160.5,386C 152.033,387.325 143.699,387.825 135.5,387.5C 130.145,385.494 125.479,382.494 121.5,378.5C 124.871,379.323 128.204,380.489 131.5,382C 149.439,384.18 166.106,380.68 181.5,371.5C 182.518,372.193 183.518,372.859 184.5,373.5 Z"/></g>
<g><path style="opacity:0.995" fill="#171717" d="M 372.5,383.5 C 372.747,386.939 372.414,390.272 371.5,393.5C 366.306,406.914 361.806,420.581 358,434.5C 356.811,436.233 355.644,437.9 354.5,439.5C 357.87,420.055 363.87,401.389 372.5,383.5 Z"/></g>
<g><path style="opacity:1" fill="#1b1b1a" d="M 377.5,383.5 C 378.833,383.5 380.167,383.5 381.5,383.5C 380.686,405.831 379.853,428.164 379,450.5C 377.446,459.657 375.946,468.824 374.5,478C 374.625,479.627 375.125,481.127 376,482.5C 382.182,487.846 387.182,494.179 391,501.5C 391.442,503.684 390.942,505.684 389.5,507.5C 388.122,504.659 386.455,501.992 384.5,499.5C 382.096,494.372 378.929,489.705 375,485.5C 376.477,490.404 378.643,495.07 381.5,499.5C 384.044,505.602 384.877,511.935 384,518.5C 381.508,508.355 377.842,498.688 373,489.5C 372.742,495.703 373.242,501.87 374.5,508C 374.107,511.759 373.441,515.426 372.5,519C 373.196,520.488 372.862,521.988 371.5,523.5C 371.321,516.935 371.321,510.268 371.5,503.5C 371.808,501.076 371.474,498.743 370.5,496.5C 369.702,496.957 369.369,497.624 369.5,498.5C 368.434,500.701 367.767,503.035 367.5,505.5C 366.026,506.436 365.026,507.77 364.5,509.5C 356.079,524.429 345.246,537.429 332,548.5C 330.489,550.862 328.989,553.195 327.5,555.5C 326.5,555.5 325.5,555.5 324.5,555.5C 328.09,550.064 331.923,544.73 336,539.5C 337.695,533.237 339.029,526.904 340,520.5C 340.709,524.868 340.542,529.201 339.5,533.5C 339.733,534.932 340.4,535.432 341.5,535C 345.775,530.455 347.775,524.955 347.5,518.5C 348.769,520.695 348.769,522.861 347.5,525C 348.167,525.667 348.833,525.667 349.5,525C 364.884,506.024 372.884,484.19 373.5,459.5C 377.205,450.295 377.872,440.795 375.5,431C 377.443,418.577 378.443,406.077 378.5,393.5C 380.11,389.951 379.777,386.617 377.5,383.5 Z"/></g>
<g><path style="opacity:1" fill="#281f1d" d="M 346.5,358.5 C 348.245,364.503 348.579,370.503 347.5,376.5C 346.636,377.688 345.636,378.855 344.5,380C 346.134,380.494 347.801,380.66 349.5,380.5C 352.254,382.053 353.087,384.386 352,387.5C 350.167,390 348.333,392.5 346.5,395C 348.493,396.999 350.827,398.499 353.5,399.5C 354.584,400.665 355.417,401.998 356,403.5C 355.675,408.157 355.008,412.824 354,417.5C 352.921,419.394 351.587,419.727 350,418.5C 346.563,421.075 343.729,420.741 341.5,417.5C 341.5,415.167 341.5,412.833 341.5,410.5C 342.686,409.295 342.686,407.961 341.5,406.5C 341.5,405.833 341.5,405.167 341.5,404.5C 342.822,404.33 343.989,404.663 345,405.5C 345.313,408.595 344.813,411.595 343.5,414.5C 345.915,417.128 348.415,417.128 351,414.5C 352.606,410.55 352.773,406.55 351.5,402.5C 348.961,401.885 346.461,401.218 344,400.5C 344.189,394.923 342.689,389.923 339.5,385.5C 339.539,384.417 339.873,383.417 340.5,382.5C 339.5,381.833 338.5,381.167 337.5,380.5C 344.022,378.529 344.022,377.362 337.5,377C 334.823,380.386 333.989,384.219 335,388.5C 335.383,387.944 335.883,387.611 336.5,387.5C 336.5,388.167 336.5,388.833 336.5,389.5C 334.972,390.802 333.972,392.469 333.5,394.5C 329.881,385.333 332.215,377.666 340.5,371.5C 340.66,373.153 341.326,374.486 342.5,375.5C 343.496,375.586 344.329,375.252 345,374.5C 345.173,368.984 345.673,363.651 346.5,358.5 Z"/></g>
<g><path style="opacity:1" fill="#e1dbde" d="M 339.5,385.5 C 338.833,385.5 338.5,385.833 338.5,386.5C 337.508,386.328 336.842,386.662 336.5,387.5C 335.883,387.611 335.383,387.944 335,388.5C 333.989,384.219 334.823,380.386 337.5,377C 344.022,377.362 344.022,378.529 337.5,380.5C 338.5,381.167 339.5,381.833 340.5,382.5C 339.873,383.417 339.539,384.417 339.5,385.5 Z"/></g>
<g><path style="opacity:1" fill="#e7e7de" d="M 372.5,383.5 C 374.167,384.833 375.833,384.833 377.5,383.5C 379.777,386.617 380.11,389.951 378.5,393.5C 376.167,393.5 373.833,393.5 371.5,393.5C 372.414,390.272 372.747,386.939 372.5,383.5 Z"/></g>
<g><path style="opacity:1" fill="#f9f8f6" d="M 174.5,384.5 C 162.068,393.888 149.068,394.888 135.5,387.5C 143.699,387.825 152.033,387.325 160.5,386C 163.98,385.086 167.313,383.919 170.5,382.5C 172.355,382.34 173.688,383.007 174.5,384.5 Z"/></g>
<g><path style="opacity:1" fill="#f9f6c4" d="M 284.5,384.5 C 284.733,386.062 285.4,387.395 286.5,388.5C 285.833,388.833 285.167,389.167 284.5,389.5C 280.719,388.789 277.719,389.955 275.5,393C 270.106,393.124 264.773,392.457 259.5,391C 257.316,389.637 255.316,388.137 253.5,386.5C 258.944,386.823 264.277,386.823 269.5,386.5C 270.93,386.421 272.264,386.754 273.5,387.5C 277.276,386.617 280.943,385.617 284.5,384.5 Z"/></g>
<g><path style="opacity:1" fill="#e62024" d="M 339.5,385.5 C 342.689,389.923 344.189,394.923 344,400.5C 346.461,401.218 348.961,401.885 351.5,402.5C 352.773,406.55 352.606,410.55 351,414.5C 348.415,417.128 345.915,417.128 343.5,414.5C 344.813,411.595 345.313,408.595 345,405.5C 343.989,404.663 342.822,404.33 341.5,404.5C 339.801,404.34 338.134,404.506 336.5,405C 335.88,407.212 334.713,409.046 333,410.5C 332.228,410.355 331.561,410.022 331,409.5C 328.466,402.295 330.966,398.962 338.5,399.5C 339.726,395.178 339.726,390.845 338.5,386.5C 338.5,385.833 338.833,385.5 339.5,385.5 Z"/></g>
<g><path style="opacity:1" fill="#eeedda" d="M 245.5,387.5 C 246.401,388.29 247.068,389.29 247.5,390.5C 246.5,390.5 245.5,390.5 244.5,390.5C 244.263,389.209 244.596,388.209 245.5,387.5 Z"/></g>
<g><path style="opacity:1" fill="#a5a1a1" d="M 336.5,389.5 C 337.291,391.309 337.291,393.309 336.5,395.5C 335.5,395.5 334.5,395.5 333.5,395.5C 333.5,395.167 333.5,394.833 333.5,394.5C 333.972,392.469 334.972,390.802 336.5,389.5 Z"/></g>
<g><path style="opacity:1" fill="#f1f0ef" d="M 248.5,384.5 C 250.322,384.831 251.989,385.498 253.5,386.5C 255.316,388.137 257.316,389.637 259.5,391C 264.773,392.457 270.106,393.124 275.5,393C 277.719,389.955 280.719,388.789 284.5,389.5C 285.141,390.482 285.807,391.482 286.5,392.5C 283.677,395.685 280.677,396.019 277.5,393.5C 276.614,394.325 276.281,395.325 276.5,396.5C 270.755,396.789 265.088,396.289 259.5,395C 253.991,393.322 250.324,389.822 248.5,384.5 Z"/></g>
<g><path style="opacity:1" fill="#c92627" d="M 333.5,395.5 C 334.5,395.5 335.5,395.5 336.5,395.5C 336.03,396.693 335.03,397.36 333.5,397.5C 332.274,397.48 331.274,397.147 330.5,396.5C 331.391,395.89 332.391,395.557 333.5,395.5 Z"/></g>
<g><path style="opacity:1" fill="#181111" d="M 338.5,386.5 C 339.726,390.845 339.726,395.178 338.5,399.5C 330.966,398.962 328.466,402.295 331,409.5C 331.561,410.022 332.228,410.355 333,410.5C 334.713,409.046 335.88,407.212 336.5,405C 338.134,404.506 339.801,404.34 341.5,404.5C 341.5,405.167 341.5,405.833 341.5,406.5C 338.691,406.958 338.024,408.291 339.5,410.5C 339.5,413.167 339.5,415.833 339.5,418.5C 339.665,421.85 339.498,425.183 339,428.5C 338.617,429.056 338.117,429.389 337.5,429.5C 336.5,429.5 335.5,429.5 334.5,429.5C 333.417,429.461 332.417,429.127 331.5,428.5C 330.38,429.833 329.047,430.333 327.5,430C 326.68,426.526 325.18,423.359 323,420.5C 319.385,418.28 315.885,415.947 312.5,413.5C 313.329,410.531 313.495,407.531 313,404.5C 312.34,402.676 311.173,401.343 309.5,400.5C 309.5,399.833 309.5,399.167 309.5,398.5C 313.552,396.809 316.385,398.142 318,402.5C 318.303,406.004 319.137,409.338 320.5,412.5C 322.76,415.588 325.593,418.255 329,420.5C 331.146,417.554 330.812,414.888 328,412.5C 327.821,408.975 327.321,405.641 326.5,402.5C 326.845,399.802 328.178,397.802 330.5,396.5C 331.274,397.147 332.274,397.48 333.5,397.5C 335.03,397.36 336.03,396.693 336.5,395.5C 337.291,393.309 337.291,391.309 336.5,389.5C 336.5,388.833 336.5,388.167 336.5,387.5C 336.842,386.662 337.508,386.328 338.5,386.5 Z"/></g>
<g><path style="opacity:1" fill="#aabe61" d="M 137.5,402.5 C 136.833,401.167 136.833,401.167 137.5,402.5 Z"/></g>
<g><path style="opacity:1" fill="#444447" d="M 309.5,398.5 C 309.5,399.167 309.5,399.833 309.5,400.5C 308.553,403.677 307.219,406.677 305.5,409.5C 304.06,404.82 305.393,401.153 309.5,398.5 Z"/></g>
<g><path style="opacity:1" fill="#e8ce52" d="M 223.5,393.5 C 228.167,396.167 231.833,399.833 234.5,404.5C 234.78,407.72 236.447,409.72 239.5,410.5C 241.874,416.239 245.04,421.572 249,426.5C 250.411,428.65 251.245,430.984 251.5,433.5C 248.634,429.096 245.301,425.096 241.5,421.5C 239.598,417.363 237.431,413.363 235,409.5C 229.922,404.99 226.088,399.656 223.5,393.5 Z"/></g>
<g><path style="opacity:1" fill="#9fa846" d="M 137.5,402.5 C 140.634,403.227 143.801,403.894 147,404.5C 153.529,403.43 159.696,401.597 165.5,399C 163.259,402.796 159.926,405.129 155.5,406C 151.5,406.667 147.5,406.667 143.5,406C 140.975,405.576 138.975,404.41 137.5,402.5 Z"/></g>
<g><path style="opacity:1" fill="#faf9e1" d="M 234.5,404.5 C 237.562,405.268 239.228,407.268 239.5,410.5C 236.447,409.72 234.78,407.72 234.5,404.5 Z"/></g>
<g><path style="opacity:1" fill="#ba2e2a" d="M 341.5,406.5 C 342.686,407.961 342.686,409.295 341.5,410.5C 340.833,410.5 340.167,410.5 339.5,410.5C 338.024,408.291 338.691,406.958 341.5,406.5 Z"/></g>
<g><path style="opacity:1" fill="#3a3a3e" d="M 283.5,413.5 C 284.724,409.793 287.391,407.627 291.5,407C 295.5,406.333 299.5,406.333 303.5,407C 296.527,408.046 289.86,410.213 283.5,413.5 Z"/></g>
<g><path style="opacity:1" fill="#dfdcdf" d="M 339.5,410.5 C 340.167,410.5 340.833,410.5 341.5,410.5C 341.5,412.833 341.5,415.167 341.5,417.5C 340.833,417.833 340.167,418.167 339.5,418.5C 339.5,415.833 339.5,413.167 339.5,410.5 Z"/></g>
<g><path style="opacity:1" fill="#f4f4f2" d="M 326.5,402.5 C 327.321,405.641 327.821,408.975 328,412.5C 330.812,414.888 331.146,417.554 329,420.5C 325.593,418.255 322.76,415.588 320.5,412.5C 324.726,413.341 325.393,412.008 322.5,408.5C 324.689,406.99 326.023,404.99 326.5,402.5 Z"/></g>
<g><path style="opacity:1" fill="#cccbe5" d="M 312.5,413.5 C 315.885,415.947 319.385,418.28 323,420.5C 325.18,423.359 326.68,426.526 327.5,430C 329.047,430.333 330.38,429.833 331.5,428.5C 332.417,429.127 333.417,429.461 334.5,429.5C 333.319,431.067 331.653,431.901 329.5,432C 331.553,433.08 333.72,433.914 336,434.5C 336.667,436.167 336.667,437.833 336,439.5C 331.799,440.866 327.633,442.199 323.5,443.5C 319.856,446.326 315.856,448.66 311.5,450.5C 306.875,451.008 302.208,450.508 297.5,449C 293.655,446.637 289.989,444.137 286.5,441.5C 286.5,440.833 286.167,440.5 285.5,440.5C 285.5,439.833 285.167,439.5 284.5,439.5C 282.352,432.617 284.019,426.95 289.5,422.5C 291.302,428.802 295.302,432.969 301.5,435C 306.833,435.667 312.167,435.667 317.5,435C 322.143,432.928 323.643,429.428 322,424.5C 317.968,432.037 311.802,434.537 303.5,432C 297.357,429.875 293.357,425.709 291.5,419.5C 294.93,418.286 298.264,416.786 301.5,415C 305.086,413.892 308.753,413.392 312.5,413.5 Z"/></g>
<g><path style="opacity:1" fill="#919546" d="M 140.5,413.5 C 146.876,417.432 153.542,418.099 160.5,415.5C 162.067,415.477 163.4,415.977 164.5,417C 159.261,421.283 153.261,422.616 146.5,421C 143.898,420.117 141.731,418.617 140,416.5C 139.53,415.423 139.697,414.423 140.5,413.5 Z"/></g>
<g><path style="opacity:1" fill="#e7c541" d="M 212.5,380.5 C 216.404,388.256 220.571,395.923 225,403.5C 227.333,405.833 229.667,408.167 232,410.5C 234.639,415.618 237.805,420.285 241.5,424.5C 244.897,428.41 247.731,432.744 250,437.5C 250.494,439.134 250.66,440.801 250.5,442.5C 249.325,442.719 248.325,442.386 247.5,441.5C 246.527,438.221 245.027,435.221 243,432.5C 231.308,419.1 221.641,404.434 214,388.5C 213.292,387.619 212.458,386.953 211.5,386.5C 210.833,385.5 210.167,384.5 209.5,383.5C 209.5,383.167 209.5,382.833 209.5,382.5C 210.222,381.449 211.222,380.782 212.5,380.5 Z"/></g>
<g><path style="opacity:1" fill="#171924" d="M 291.5,419.5 C 293.357,425.709 297.357,429.875 303.5,432C 311.802,434.537 317.968,432.037 322,424.5C 323.643,429.428 322.143,432.928 317.5,435C 312.167,435.667 306.833,435.667 301.5,435C 295.302,432.969 291.302,428.802 289.5,422.5C 289.491,420.692 289.991,419.025 291,417.5C 291.464,418.094 291.631,418.761 291.5,419.5 Z"/></g>
<g><path style="opacity:1" fill="#15161c" d="M 283.5,413.5 C 283.5,414.833 283.5,416.167 283.5,417.5C 281.08,417.708 278.747,417.374 276.5,416.5C 272.589,418.649 272.756,420.649 277,422.5C 278.206,426.855 279.539,431.189 281,435.5C 281.949,437.093 283.115,438.426 284.5,439.5C 285.167,439.5 285.5,439.833 285.5,440.5C 286.167,440.5 286.5,440.833 286.5,441.5C 289.989,444.137 293.655,446.637 297.5,449C 302.208,450.508 306.875,451.008 311.5,450.5C 311.5,451.167 311.5,451.833 311.5,452.5C 306.531,453.783 301.531,453.783 296.5,452.5C 290.846,450.386 285.179,448.053 279.5,445.5C 274.45,437.395 270.45,428.728 267.5,419.5C 270.57,411.45 275.903,409.45 283.5,413.5 Z"/></g>
<g><path style="opacity:1" fill="#292a32" d="M 334.5,429.5 C 335.5,429.5 336.5,429.5 337.5,429.5C 339.075,433.379 339.908,437.379 340,441.5C 339.5,443.333 338.333,444.5 336.5,445C 334.187,445.662 331.854,446.162 329.5,446.5C 327.833,445.833 326.167,445.167 324.5,444.5C 323.833,444.5 323.5,444.167 323.5,443.5C 327.633,442.199 331.799,440.866 336,439.5C 336.667,437.833 336.667,436.167 336,434.5C 333.72,433.914 331.553,433.08 329.5,432C 331.653,431.901 333.319,431.067 334.5,429.5 Z"/></g>
<g><path style="opacity:1" fill="#4b4335" d="M 353.5,441.5 C 353.88,443.698 353.213,445.365 351.5,446.5C 351.402,444.447 352.069,442.78 353.5,441.5 Z"/></g>
<g><path style="opacity:1" fill="#eae630" d="M 371.5,393.5 C 373.833,393.5 376.167,393.5 378.5,393.5C 378.443,406.077 377.443,418.577 375.5,431C 377.872,440.795 377.205,450.295 373.5,459.5C 369.071,455.305 364.904,455.638 361,460.5C 358,467.167 355,473.833 352,480.5C 348.284,484.548 344.95,488.882 342,493.5C 341.329,494.252 340.496,494.586 339.5,494.5C 343.368,479.561 347.034,464.561 350.5,449.5C 350.263,448.209 350.596,447.209 351.5,446.5C 353.213,445.365 353.88,443.698 353.5,441.5C 353.833,440.833 354.167,440.167 354.5,439.5C 355.644,437.9 356.811,436.233 358,434.5C 361.806,420.581 366.306,406.914 371.5,393.5 Z"/></g>
<g><path style="opacity:1" fill="#9797c9" d="M 279.5,445.5 C 285.179,448.053 290.846,450.386 296.5,452.5C 296.178,454.722 296.845,456.556 298.5,458C 301.778,458.919 304.945,460.086 308,461.5C 309.194,475.151 309.527,488.818 309,502.5C 306.762,514.478 301.262,524.645 292.5,533C 291.552,533.483 290.552,533.649 289.5,533.5C 284.656,531.697 279.656,530.031 274.5,528.5C 276.333,526.167 278.167,523.833 280,521.5C 280.77,513.452 280.603,505.452 279.5,497.5C 279.598,495.447 278.931,493.78 277.5,492.5C 275.76,487.962 277.093,486.629 281.5,488.5C 281.557,489.609 281.89,490.609 282.5,491.5C 282.987,492.473 283.487,493.473 284,494.5C 284.333,499.833 284.667,505.167 285,510.5C 285.718,509.549 286.551,509.383 287.5,510C 286.24,511.814 286.24,513.647 287.5,515.5C 289.483,516.982 291.316,518.649 293,520.5C 293.915,519.672 294.581,518.672 295,517.5C 295.179,514.447 295.679,511.447 296.5,508.5C 297.736,509.246 299.07,509.579 300.5,509.5C 300.973,503.363 299.973,497.53 297.5,492C 296.584,491.626 295.75,491.126 295,490.5C 294.601,490.728 294.435,491.062 294.5,491.5C 293.026,490.564 292.026,489.23 291.5,487.5C 290.492,485.661 288.992,484.328 287,483.5C 286.781,482.062 286.281,480.729 285.5,479.5C 283.833,481.5 282.167,483.5 280.5,485.5C 272.09,483.31 263.59,482.976 255,484.5C 253.596,484.491 252.43,483.991 251.5,483C 259.96,475.233 266.794,466.4 272,456.5C 274.761,453.286 277.261,449.953 279.5,446.5C 279.5,446.167 279.5,445.833 279.5,445.5 Z"/></g>
<g><path style="opacity:1" fill="#1f214c" d="M 323.5,443.5 C 323.5,444.167 323.833,444.5 324.5,444.5C 321.732,449.583 317.399,452.249 311.5,452.5C 311.5,451.833 311.5,451.167 311.5,450.5C 315.856,448.66 319.856,446.326 323.5,443.5 Z"/></g>
<g><path style="opacity:1" fill="#585eaa" d="M 324.5,444.5 C 326.167,445.167 327.833,445.833 329.5,446.5C 329.768,448.099 329.434,449.432 328.5,450.5C 328.19,449.262 327.69,449.262 327,450.5C 324.232,456.155 322.898,462.155 323,468.5C 322.333,482.833 322.333,497.167 323,511.5C 323.39,514.104 324.224,516.438 325.5,518.5C 325.205,520.735 325.539,522.735 326.5,524.5C 324.898,535.24 321.898,545.574 317.5,555.5C 305.167,555.5 292.833,555.5 280.5,555.5C 279.946,547.93 280.613,540.596 282.5,533.5C 286.291,536.118 289.957,538.951 293.5,542C 298.445,543.763 303.445,543.763 308.5,542C 306.743,540.641 304.743,540.474 302.5,541.5C 296.716,541.112 292.382,538.445 289.5,533.5C 290.552,533.649 291.552,533.483 292.5,533C 301.262,524.645 306.762,514.478 309,502.5C 309.527,488.818 309.194,475.151 308,461.5C 304.945,460.086 301.778,458.919 298.5,458C 296.845,456.556 296.178,454.722 296.5,452.5C 301.531,453.783 306.531,453.783 311.5,452.5C 317.399,452.249 321.732,449.583 324.5,444.5 Z"/></g>
<g><path style="opacity:1" fill="#171925" d="M 328.5,450.5 C 328.156,454.228 327.49,457.895 326.5,461.5C 326.709,462.086 327.043,462.586 327.5,463C 325.9,481.446 325.233,499.946 325.5,518.5C 324.224,516.438 323.39,514.104 323,511.5C 322.333,497.167 322.333,482.833 323,468.5C 322.898,462.155 324.232,456.155 327,450.5C 327.69,449.262 328.19,449.262 328.5,450.5 Z"/></g>
<g><path style="opacity:1" fill="#191413" d="M 350.5,449.5 C 347.034,464.561 343.368,479.561 339.5,494.5C 335.403,506.221 332.236,518.221 330,530.5C 327.258,538.894 324.424,547.227 321.5,555.5C 320.167,555.5 318.833,555.5 317.5,555.5C 321.898,545.574 324.898,535.24 326.5,524.5C 329.873,508.342 333.873,492.342 338.5,476.5C 338.833,475.833 339.167,475.167 339.5,474.5C 339.5,474.167 339.5,473.833 339.5,473.5C 339.5,473.167 339.5,472.833 339.5,472.5C 341.853,464.053 345.52,456.386 350.5,449.5 Z"/></g>
<g><path style="opacity:1" fill="#cada2d" d="M 373.5,459.5 C 372.884,484.19 364.884,506.024 349.5,525C 348.833,525.667 348.167,525.667 347.5,525C 348.769,522.861 348.769,520.695 347.5,518.5C 347.775,524.955 345.775,530.455 341.5,535C 340.4,535.432 339.733,534.932 339.5,533.5C 340.542,529.201 340.709,524.868 340,520.5C 339.029,526.904 337.695,533.237 336,539.5C 331.923,544.73 328.09,550.064 324.5,555.5C 323.5,555.5 322.5,555.5 321.5,555.5C 324.424,547.227 327.258,538.894 330,530.5C 332.236,518.221 335.403,506.221 339.5,494.5C 340.496,494.586 341.329,494.252 342,493.5C 344.95,488.882 348.284,484.548 352,480.5C 355,473.833 358,467.167 361,460.5C 364.904,455.638 369.071,455.305 373.5,459.5 Z"/></g>
<g><path style="opacity:1" fill="#ecda36" d="M 178.5,468.5 C 176.167,468.5 173.833,468.5 171.5,468.5C 172.11,467.609 172.443,466.609 172.5,465.5C 174.435,464.85 176.435,464.517 178.5,464.5C 184.651,465.109 190.318,464.109 195.5,461.5C 208.185,458.705 221.018,456.705 234,455.5C 239.76,455.751 239.927,456.917 234.5,459C 215.977,462.92 197.311,466.087 178.5,468.5 Z"/></g>
<g><path style="opacity:1" fill="#26221a" d="M 211.5,386.5 C 212.458,386.953 213.292,387.619 214,388.5C 221.641,404.434 231.308,419.1 243,432.5C 245.027,435.221 246.527,438.221 247.5,441.5C 248.325,442.386 249.325,442.719 250.5,442.5C 250.66,440.801 250.494,439.134 250,437.5C 247.731,432.744 244.897,428.41 241.5,424.5C 241.5,423.5 241.5,422.5 241.5,421.5C 245.301,425.096 248.634,429.096 251.5,433.5C 252.172,436.343 253.505,438.843 255.5,441C 259.084,443.041 262.584,445.208 266,447.5C 267.202,449.677 267.702,452.011 267.5,454.5C 267.702,456.989 267.202,459.323 266,461.5C 262.667,463.667 259.834,466.334 257.5,469.5C 248.976,472.621 241.31,471.121 234.5,465C 233.167,464.833 231.833,464.667 230.5,464.5C 219.09,467.227 207.59,469.56 196,471.5C 191.539,470.655 187.039,470.322 182.5,470.5C 181.167,470.5 179.833,470.5 178.5,470.5C 178.5,469.833 178.5,469.167 178.5,468.5C 197.311,466.087 215.977,462.92 234.5,459C 239.927,456.917 239.76,455.751 234,455.5C 221.018,456.705 208.185,458.705 195.5,461.5C 193.533,461.739 191.699,461.406 190,460.5C 186.006,461.676 182.173,463.01 178.5,464.5C 176.435,464.517 174.435,464.85 172.5,465.5C 170.007,465.869 169.34,465.203 170.5,463.5C 181.221,460.254 192.221,458.421 203.5,458C 213.774,455.677 224.107,453.677 234.5,452C 237.283,447.895 240.617,444.395 244.5,441.5C 231.655,424.484 220.322,406.484 210.5,387.5C 210.5,386.833 210.833,386.5 211.5,386.5 Z"/></g>
<g><path style="opacity:1" fill="#ea635e" d="M 247.5,445.5 C 248.342,448.154 248.842,450.821 249,453.5C 247.246,455.25 245.079,455.917 242.5,455.5C 241.763,453.695 240.763,452.029 239.5,450.5C 240.682,448.239 242.349,446.405 244.5,445C 245.577,444.53 246.577,444.697 247.5,445.5 Z"/></g>
<g><path style="opacity:1" fill="#eb2124" d="M 242.5,455.5 C 245.079,455.917 247.246,455.25 249,453.5C 248.842,450.821 248.342,448.154 247.5,445.5C 250.577,444.609 253.577,443.776 256.5,443C 266.675,449.329 267.008,455.996 257.5,463C 254.263,464.968 250.763,466.135 247,466.5C 244.966,466.646 243.299,465.98 242,464.5C 241.505,461.469 241.671,458.469 242.5,455.5 Z"/></g>
<g><path style="opacity:1" fill="#f0eac0" d="M 195.5,461.5 C 190.318,464.109 184.651,465.109 178.5,464.5C 182.173,463.01 186.006,461.676 190,460.5C 191.699,461.406 193.533,461.739 195.5,461.5 Z"/></g>
<g><path style="opacity:1" fill="#54589f" d="M 277.5,474.5 C 275.533,474.261 273.699,474.594 272,475.5C 271.167,474.667 270.333,473.833 269.5,473C 271.927,471.446 271.927,470.279 269.5,469.5C 270.203,467.284 271.536,465.451 273.5,464C 276.362,463.76 278.695,462.593 280.5,460.5C 281.244,461.991 281.91,463.491 282.5,465C 279.722,467.603 278.056,470.77 277.5,474.5 Z"/></g>
<g><path style="opacity:1" fill="#ec2224" d="M 170.5,477.5 C 170.167,478.167 169.833,478.833 169.5,479.5C 166.009,479.909 162.675,480.909 159.5,482.5C 156.133,481.823 153.466,480.157 151.5,477.5C 158.31,476.395 159.644,473.228 155.5,468C 156.459,466.536 157.792,465.703 159.5,465.5C 165.227,467.562 168.894,471.562 170.5,477.5 Z"/></g>
<g><path style="opacity:1" fill="#e9635f" d="M 164.5,462.5 C 165.145,463.812 166.145,464.812 167.5,465.5C 168.167,467.5 168.833,469.5 169.5,471.5C 170.417,472.127 171.417,472.461 172.5,472.5C 173.234,473.708 173.567,475.041 173.5,476.5C 172.609,477.11 171.609,477.443 170.5,477.5C 168.894,471.562 165.227,467.562 159.5,465.5C 157.792,465.703 156.459,466.536 155.5,468C 159.644,473.228 158.31,476.395 151.5,477.5C 148.121,466.197 152.455,461.197 164.5,462.5 Z"/></g>
<g><path style="opacity:1" fill="#6d392c" d="M 165.5,460.5 C 167.368,461.263 169.035,462.263 170.5,463.5C 169.34,465.203 170.007,465.869 172.5,465.5C 172.443,466.609 172.11,467.609 171.5,468.5C 172.11,469.391 172.443,470.391 172.5,471.5C 172.5,471.833 172.5,472.167 172.5,472.5C 171.417,472.461 170.417,472.127 169.5,471.5C 168.833,469.5 168.167,467.5 167.5,465.5C 166.145,464.812 165.145,463.812 164.5,462.5C 164.833,461.833 165.167,461.167 165.5,460.5 Z"/></g>
<g><path style="opacity:1" fill="#84825e" d="M 171.5,468.5 C 173.833,468.5 176.167,468.5 178.5,468.5C 178.5,469.167 178.5,469.833 178.5,470.5C 176.565,471.15 174.565,471.483 172.5,471.5C 172.443,470.391 172.11,469.391 171.5,468.5 Z"/></g>
<g><path style="opacity:1" fill="#f4f4ea" d="M 178.5,470.5 C 179.833,470.5 181.167,470.5 182.5,470.5C 182.5,471.833 181.833,472.5 180.5,472.5C 179.833,472.5 179.167,472.5 178.5,472.5C 178.5,471.833 178.5,471.167 178.5,470.5 Z"/></g>
<g><path style="opacity:0.742" fill="#f4f3f3" d="M 339.5,472.5 C 339.5,472.833 339.5,473.167 339.5,473.5C 338.167,473.833 338.167,474.167 339.5,474.5C 339.167,475.167 338.833,475.833 338.5,476.5C 336.19,474.855 336.023,472.855 338,470.5C 338.278,471.416 338.778,472.082 339.5,472.5 Z"/></g>
<g><path style="opacity:1" fill="#9f9f4a" d="M 178.5,472.5 C 179.167,472.5 179.833,472.5 180.5,472.5C 182.25,473.87 184.25,474.87 186.5,475.5C 186.631,476.239 186.464,476.906 186,477.5C 182.68,476.832 179.513,475.665 176.5,474C 177.044,473.283 177.711,472.783 178.5,472.5 Z"/></g>
<g><path style="opacity:1" fill="#1b1b33" d="M 269.5,469.5 C 271.927,470.279 271.927,471.446 269.5,473C 270.333,473.833 271.167,474.667 272,475.5C 273.699,474.594 275.533,474.261 277.5,474.5C 279.305,475.237 280.971,476.237 282.5,477.5C 281.758,478.287 280.925,478.953 280,479.5C 275.002,477.18 269.835,476.847 264.5,478.5C 264.351,477.448 264.517,476.448 265,475.5C 267.127,473.886 268.627,471.886 269.5,469.5 Z"/></g>
<g><path style="opacity:1" fill="#e8e25d" d="M 210.5,478.5 C 207.721,478.279 205.054,478.612 202.5,479.5C 200.264,478.018 197.931,477.685 195.5,478.5C 194.087,477.065 192.42,476.065 190.5,475.5C 193.64,474.359 196.973,474.192 200.5,475C 201.167,475.667 201.833,476.333 202.5,477C 205.365,477.183 208.031,477.683 210.5,478.5 Z"/></g>
<g><path style="opacity:1" fill="#eae9db" d="M 173.5,476.5 C 175.733,478.348 178.066,480.015 180.5,481.5C 180.5,481.833 180.5,482.167 180.5,482.5C 178.435,482.483 176.435,482.15 174.5,481.5C 172.833,480.167 171.167,480.167 169.5,481.5C 169.5,480.833 169.5,480.167 169.5,479.5C 169.833,478.833 170.167,478.167 170.5,477.5C 171.609,477.443 172.609,477.11 173.5,476.5 Z"/></g>
<g><path style="opacity:1" fill="#ece22f" d="M 178.5,470.5 C 178.5,471.167 178.5,471.833 178.5,472.5C 177.711,472.783 177.044,473.283 176.5,474C 179.513,475.665 182.68,476.832 186,477.5C 186.464,476.906 186.631,476.239 186.5,475.5C 187.5,475.5 188.5,475.5 189.5,475.5C 190.607,477.969 192.607,478.969 195.5,478.5C 197.607,479.468 199.941,479.802 202.5,479.5C 204.148,480.927 206.148,481.76 208.5,482C 219.664,483.583 230.664,485.916 241.5,489C 240.906,489.464 240.239,489.631 239.5,489.5C 238.183,489.821 236.849,490.154 235.5,490.5C 227.757,488.319 219.924,486.319 212,484.5C 211.439,485.022 210.772,485.355 210,485.5C 200.255,483.45 190.421,482.117 180.5,481.5C 178.066,480.015 175.733,478.348 173.5,476.5C 173.567,475.041 173.234,473.708 172.5,472.5C 172.5,472.167 172.5,471.833 172.5,471.5C 174.565,471.483 176.565,471.15 178.5,470.5 Z"/></g>
<g><path style="opacity:1" fill="#7d7937" d="M 189.5,475.5 C 189.833,475.5 190.167,475.5 190.5,475.5C 192.42,476.065 194.087,477.065 195.5,478.5C 192.607,478.969 190.607,477.969 189.5,475.5 Z"/></g>
<g><path style="opacity:1" fill="#625329" d="M 202.5,479.5 C 199.941,479.802 197.607,479.468 195.5,478.5C 197.931,477.685 200.264,478.018 202.5,479.5 Z"/></g>
<g><path style="opacity:1" fill="#2c1e1b" d="M 165.5,460.5 C 165.167,461.167 164.833,461.833 164.5,462.5C 152.455,461.197 148.121,466.197 151.5,477.5C 153.466,480.157 156.133,481.823 159.5,482.5C 162.675,480.909 166.009,479.909 169.5,479.5C 169.5,480.167 169.5,480.833 169.5,481.5C 163.933,487.103 157.599,487.936 150.5,484C 145.287,476.802 145.287,469.469 150.5,462C 155.35,459.567 160.35,459.067 165.5,460.5 Z"/></g>
<g><path style="opacity:1" fill="#1e171e" d="M 279.5,446.5 C 277.261,449.953 274.761,453.286 272,456.5C 266.794,466.4 259.96,475.233 251.5,483C 252.43,483.991 253.596,484.491 255,484.5C 263.59,482.976 272.09,483.31 280.5,485.5C 282.167,483.5 283.833,481.5 285.5,479.5C 286.281,480.729 286.781,482.062 287,483.5C 288.992,484.328 290.492,485.661 291.5,487.5C 288.737,487.256 286.571,485.923 285,483.5C 283.331,484.846 282.164,486.513 281.5,488.5C 277.093,486.629 275.76,487.962 277.5,492.5C 276.833,492.833 276.167,493.167 275.5,493.5C 274.058,492.18 273.392,490.514 273.5,488.5C 269.548,487.728 265.548,487.395 261.5,487.5C 258.119,487.46 254.786,487.793 251.5,488.5C 250.833,488.167 250.167,487.833 249.5,487.5C 249.5,486.833 249.167,486.5 248.5,486.5C 248.618,483.312 249.451,480.312 251,477.5C 253.415,474.986 255.581,472.319 257.5,469.5C 259.834,466.334 262.667,463.667 266,461.5C 267.202,459.323 267.702,456.989 267.5,454.5C 268.117,454.611 268.617,454.944 269,455.5C 272.106,451.847 275.606,448.847 279.5,446.5 Z"/></g>
<g><path style="opacity:1" fill="#27231b" d="M 210.5,478.5 C 211.905,480.379 213.572,480.712 215.5,479.5C 226.079,481.434 236.412,484.1 246.5,487.5C 247.183,487.137 247.85,486.804 248.5,486.5C 249.167,486.5 249.5,486.833 249.5,487.5C 250.167,487.833 250.833,488.167 251.5,488.5C 253.168,490.479 253.834,492.812 253.5,495.5C 252.467,498.857 250.134,500.857 246.5,501.5C 246.96,504.156 247.96,506.49 249.5,508.5C 249.833,510.833 251.167,512.167 253.5,512.5C 259.152,514.169 264.486,513.502 269.5,510.5C 271.632,510.446 272.965,509.446 273.5,507.5C 274.73,505.703 275.396,503.703 275.5,501.5C 275.5,498.833 275.5,496.167 275.5,493.5C 276.167,493.167 276.833,492.833 277.5,492.5C 278.931,493.78 279.598,495.447 279.5,497.5C 278.307,499.51 278.307,501.676 279.5,504C 279.022,505.303 278.355,506.469 277.5,507.5C 276.833,507.5 276.5,507.833 276.5,508.5C 275.833,508.5 275.5,508.833 275.5,509.5C 270.629,515.853 264.129,519.186 256,519.5C 250.5,531.829 244.333,543.829 237.5,555.5C 235.5,555.5 233.5,555.5 231.5,555.5C 232.359,553.894 232.526,552.227 232,550.5C 232.893,551.711 233.726,551.711 234.5,550.5C 240.689,538.649 247.689,527.316 255.5,516.5C 253.966,515.264 252.3,514.764 250.5,515C 245.771,521.613 241.104,528.113 236.5,534.5C 234.629,534.859 233.129,535.859 232,537.5C 228.395,543.726 224.562,549.726 220.5,555.5C 218.5,555.5 216.5,555.5 214.5,555.5C 224.888,540.719 236.221,526.719 248.5,513.5C 244.153,509.464 242.153,504.464 242.5,498.5C 237.832,497.111 233.165,495.611 228.5,494C 218.445,493.061 208.445,491.728 198.5,490C 191.036,487.217 183.37,485.217 175.5,484C 174.748,483.329 174.414,482.496 174.5,481.5C 176.435,482.15 178.435,482.483 180.5,482.5C 196.482,486.509 212.815,489.342 229.5,491C 235.5,492.833 241.5,494.667 247.5,496.5C 250.085,495.927 251.085,494.261 250.5,491.5C 246.542,491.749 242.876,491.082 239.5,489.5C 240.239,489.631 240.906,489.464 241.5,489C 230.664,485.916 219.664,483.583 208.5,482C 206.148,481.76 204.148,480.927 202.5,479.5C 205.054,478.612 207.721,478.279 210.5,478.5 Z"/></g>
<g><path style="opacity:1" fill="#eb2325" d="M 261.5,487.5 C 265.548,487.395 269.548,487.728 273.5,488.5C 273.392,490.514 274.058,492.18 275.5,493.5C 275.5,496.167 275.5,498.833 275.5,501.5C 273.755,503.033 272.755,505.033 272.5,507.5C 271.768,506.192 270.934,504.858 270,503.5C 269.503,505.81 269.337,508.143 269.5,510.5C 264.486,513.502 259.152,514.169 253.5,512.5C 252.5,510.833 251.167,509.5 249.5,508.5C 247.96,506.49 246.96,504.156 246.5,501.5C 250.134,500.857 252.467,498.857 253.5,495.5C 254.794,496.29 255.961,497.29 257,498.5C 260.52,496.766 261.353,494.1 259.5,490.5C 260.193,489.482 260.859,488.482 261.5,487.5 Z"/></g>
<g><path style="opacity:1" fill="#eecb39" d="M 180.5,481.5 C 190.421,482.117 200.255,483.45 210,485.5C 210.772,485.355 211.439,485.022 212,484.5C 219.924,486.319 227.757,488.319 235.5,490.5C 236.849,490.154 238.183,489.821 239.5,489.5C 242.876,491.082 246.542,491.749 250.5,491.5C 251.085,494.261 250.085,495.927 247.5,496.5C 241.5,494.667 235.5,492.833 229.5,491C 212.815,489.342 196.482,486.509 180.5,482.5C 180.5,482.167 180.5,481.833 180.5,481.5 Z"/></g>
<g><path style="opacity:1" fill="#e96362" d="M 261.5,487.5 C 260.859,488.482 260.193,489.482 259.5,490.5C 261.353,494.1 260.52,496.766 257,498.5C 255.961,497.29 254.794,496.29 253.5,495.5C 253.834,492.812 253.168,490.479 251.5,488.5C 254.786,487.793 258.119,487.46 261.5,487.5 Z"/></g>
<g><path style="opacity:1" fill="#cbcbdf" d="M 291.5,487.5 C 292.026,489.23 293.026,490.564 294.5,491.5C 296.615,495.595 298.281,499.928 299.5,504.5C 299.192,505.308 298.692,505.975 298,506.5C 297.385,504.884 296.385,503.551 295,502.5C 293.927,506.084 293.26,509.75 293,513.5C 292.667,510.833 292.333,508.167 292,505.5C 291.333,506.167 290.667,506.833 290,507.5C 289.667,505.5 289.333,503.5 289,501.5C 288.333,502.167 287.667,502.833 287,503.5C 286.441,499.814 285.774,496.147 285,492.5C 284.329,491.748 283.496,491.414 282.5,491.5C 281.89,490.609 281.557,489.609 281.5,488.5C 282.164,486.513 283.331,484.846 285,483.5C 286.571,485.923 288.737,487.256 291.5,487.5 Z"/></g>
<g><path style="opacity:1" fill="#e8e8e9" d="M 384.5,499.5 C 383.348,498.375 382.348,498.375 381.5,499.5C 378.643,495.07 376.477,490.404 375,485.5C 378.929,489.705 382.096,494.372 384.5,499.5 Z"/></g>
<g><path style="opacity:1" fill="#f5f4f3" d="M 371.5,503.5 C 370.833,501.833 370.167,500.167 369.5,498.5C 369.369,497.624 369.702,496.957 370.5,496.5C 371.474,498.743 371.808,501.076 371.5,503.5 Z"/></g>
<g><path style="opacity:1" fill="#1d1f2e" d="M 282.5,491.5 C 283.496,491.414 284.329,491.748 285,492.5C 285.774,496.147 286.441,499.814 287,503.5C 287.667,502.833 288.333,502.167 289,501.5C 289.333,503.5 289.667,505.5 290,507.5C 290.667,506.833 291.333,506.167 292,505.5C 292.333,508.167 292.667,510.833 293,513.5C 293.26,509.75 293.927,506.084 295,502.5C 296.385,503.551 297.385,504.884 298,506.5C 298.692,505.975 299.192,505.308 299.5,504.5C 298.281,499.928 296.615,495.595 294.5,491.5C 294.435,491.062 294.601,490.728 295,490.5C 295.75,491.126 296.584,491.626 297.5,492C 299.973,497.53 300.973,503.363 300.5,509.5C 299.07,509.579 297.736,509.246 296.5,508.5C 295.679,511.447 295.179,514.447 295,517.5C 294.581,518.672 293.915,519.672 293,520.5C 291.316,518.649 289.483,516.982 287.5,515.5C 286.24,513.647 286.24,511.814 287.5,510C 286.551,509.383 285.718,509.549 285,510.5C 284.667,505.167 284.333,499.833 284,494.5C 283.487,493.473 282.987,492.473 282.5,491.5 Z"/></g>
<g><path style="opacity:1" fill="#c1ada6" d="M 275.5,501.5 C 275.396,503.703 274.73,505.703 273.5,507.5C 273.167,507.5 272.833,507.5 272.5,507.5C 272.755,505.033 273.755,503.033 275.5,501.5 Z"/></g>
<g><path style="opacity:1" fill="#601e1b" d="M 272.5,507.5 C 272.833,507.5 273.167,507.5 273.5,507.5C 272.965,509.446 271.632,510.446 269.5,510.5C 269.337,508.143 269.503,505.81 270,503.5C 270.934,504.858 271.768,506.192 272.5,507.5 Z"/></g>
<g><path style="opacity:1" fill="#f6f6f4" d="M 367.5,505.5 C 367.912,507.973 366.912,509.306 364.5,509.5C 365.026,507.77 366.026,506.436 367.5,505.5 Z"/></g>
<g><path style="opacity:1" fill="#191a23" d="M 279.5,497.5 C 280.603,505.452 280.77,513.452 280,521.5C 278.167,523.833 276.333,526.167 274.5,528.5C 279.656,530.031 284.656,531.697 289.5,533.5C 292.382,538.445 296.716,541.112 302.5,541.5C 304.743,540.474 306.743,540.641 308.5,542C 303.445,543.763 298.445,543.763 293.5,542C 289.957,538.951 286.291,536.118 282.5,533.5C 279.904,532.735 277.237,532.401 274.5,532.5C 273.883,532.611 273.383,532.944 273,533.5C 272.566,538.174 272.066,542.841 271.5,547.5C 271.511,549.045 271.844,550.378 272.5,551.5C 272.5,552.833 272.5,554.167 272.5,555.5C 270.833,555.5 269.167,555.5 267.5,555.5C 266.249,549.072 266.749,542.739 269,536.5C 269.5,535.333 270.333,534.5 271.5,534C 265.901,534.422 264.401,532.255 267,527.5C 268.704,525.627 270.537,523.96 272.5,522.5C 272.435,522.938 272.601,523.272 273,523.5C 276.847,520.859 278.014,517.526 276.5,513.5C 276.768,511.901 276.434,510.568 275.5,509.5C 275.5,508.833 275.833,508.5 276.5,508.5C 277.167,508.5 277.5,508.167 277.5,507.5C 278.355,506.469 279.022,505.303 279.5,504C 278.307,501.676 278.307,499.51 279.5,497.5 Z"/></g>
<g><path style="opacity:1" fill="#d8bc88" d="M 249.5,508.5 C 251.167,509.5 252.5,510.833 253.5,512.5C 251.167,512.167 249.833,510.833 249.5,508.5 Z"/></g>
<g><path style="opacity:1" fill="#9a94bf" d="M 276.5,513.5 C 278.014,517.526 276.847,520.859 273,523.5C 272.601,523.272 272.435,522.938 272.5,522.5C 273.573,519.356 274.907,516.356 276.5,513.5 Z"/></g>
<g><path style="opacity:1" fill="#f5cb35" d="M 231.5,555.5 C 228.833,555.5 226.167,555.5 223.5,555.5C 224.547,551.725 226.881,549.058 230.5,547.5C 231.804,543.032 234.137,539.198 237.5,536C 236.944,535.617 236.611,535.117 236.5,534.5C 241.104,528.113 245.771,521.613 250.5,515C 252.3,514.764 253.966,515.264 255.5,516.5C 247.689,527.316 240.689,538.649 234.5,550.5C 233.726,551.711 232.893,551.711 232,550.5C 232.526,552.227 232.359,553.894 231.5,555.5 Z"/></g>
<g><path style="opacity:1" fill="#9796c9" d="M 274.5,532.5 C 277.237,532.401 279.904,532.735 282.5,533.5C 280.613,540.596 279.946,547.93 280.5,555.5C 277.833,555.5 275.167,555.5 272.5,555.5C 272.5,554.167 272.5,552.833 272.5,551.5C 274.49,545.24 275.157,538.907 274.5,532.5 Z"/></g>
<g><path style="opacity:1" fill="#e9e029" d="M 236.5,534.5 C 236.611,535.117 236.944,535.617 237.5,536C 234.137,539.198 231.804,543.032 230.5,547.5C 226.881,549.058 224.547,551.725 223.5,555.5C 222.5,555.5 221.5,555.5 220.5,555.5C 224.562,549.726 228.395,543.726 232,537.5C 233.129,535.859 234.629,534.859 236.5,534.5 Z"/></g>
<g><path style="opacity:1" fill="#dcdce3" d="M 274.5,532.5 C 275.157,538.907 274.49,545.24 272.5,551.5C 271.844,550.378 271.511,549.045 271.5,547.5C 272.066,542.841 272.566,538.174 273,533.5C 273.383,532.944 273.883,532.611 274.5,532.5 Z"/></g>
</svg>
