<svg width="4474" height="1338" viewBox="0 0 4474 1338" fill="none" xmlns="http://www.w3.org/2000/svg">
<g clip-path="url(#clip0_420_2)">
<path d="M4476 1267.06C4475.64 1267.49 4475.01 1266.51 4474.97 1266.53C4461.05 1275.03 4446.08 1271.66 4431.32 1270.4C4425.24 1269.88 4422.71 1265.87 4422.16 1260.37C4421.77 1256.4 4421.68 1252.39 4421.68 1248.4C4421.65 1146.41 4421.66 1044.43 4421.66 942.441C4421.66 938.867 4421.66 935.293 4421.66 931.719C4421.13 931.521 4420.61 931.322 4420.09 931.124C4418.92 933.174 4417.49 935.122 4416.61 937.291C4392.38 997.066 4368.1 1056.82 4344.05 1116.67C4326.44 1160.47 4308.66 1204.22 4291.89 1248.35C4282.74 1272.44 4263.57 1275.38 4242.35 1269.89C4235.52 1268.12 4231.04 1262.87 4228.44 1256.46C4222.18 1241.06 4216.09 1225.59 4210.13 1210.08C4188.41 1153.61 4166.78 1097.1 4145.09 1040.62C4133.4 1010.2 4121.67 979.813 4109.89 949.435C4108.48 945.777 4106.67 942.269 4104.22 936.878C4103.09 940.289 4102.26 941.828 4102.11 943.429C4101.79 947.069 4101.69 950.739 4101.69 954.398C4101.67 1049.72 4101.66 1145.04 4101.7 1240.36C4101.7 1245.68 4102.33 1251 4102.26 1256.32C4102.16 1264.45 4099.69 1267.81 4091.81 1269.87C4079.39 1273.12 4066.92 1273.7 4054.44 1269.76C4048.65 1267.94 4045.35 1264.61 4045.66 1258.26C4045.79 1255.6 4045.66 1252.93 4045.66 1250.26C4045.66 1142.94 4045.64 1035.62 4045.69 928.301C4045.69 917.317 4045.96 906.328 4046.38 895.351C4046.79 884.434 4053.06 877.243 4063.93 875.761C4082.12 873.281 4100.38 873.291 4118.54 876.094C4129.1 877.724 4137.27 883.734 4141.72 893.246C4149.61 910.086 4157.01 927.179 4163.88 944.457C4192.77 1017.06 4221.37 1089.77 4250.1 1162.43C4253.11 1170.05 4256.26 1177.61 4260.14 1187.15C4262.41 1183.23 4263.68 1181.51 4264.48 1179.59C4285.02 1130.16 4305.6 1080.75 4325.99 1031.26C4342.95 990.07 4359.77 948.821 4376.48 907.531C4383.74 889.6 4395.44 876.781 4415.48 874.703C4425.66 873.647 4436.07 874.764 4446.37 874.971C4448.02 875.004 4449.66 875.701 4451.28 875.612C4461.4 875.056 4469.38 878.714 4475.48 886.643C4476 1012.71 4476 1139.42 4476 1267.06Z" fill="#9696C9"/>
<path d="M1232.91 1340C1231.6 1338.88 1231.52 1337.11 1230.76 1336.74C1221.98 1332.51 1219.74 1324.92 1219.65 1316.06C1219.42 1293.67 1227.97 1274.5 1241.89 1257.64C1261.78 1233.57 1287.15 1220.38 1318.85 1219.55C1338.72 1219.04 1358.57 1217.38 1380.79 1216.09C1376.89 1213.25 1374.77 1211.47 1372.44 1210.05C1352.78 1198.03 1333.87 1185.03 1318.34 1167.77C1314.61 1163.63 1311.01 1159.13 1308.4 1154.23C1299.71 1137.89 1285.98 1129.99 1267.91 1129.77C1249.93 1129.56 1231.94 1130.28 1213.96 1130.29C1196.64 1130.29 1179.32 1129.94 1162.01 1129.66C1152.37 1129.5 1148.15 1126.05 1147.66 1118.25C1146.95 1106.96 1150.39 1101.77 1160.01 1100.13C1162.94 1099.64 1165.99 1099.68 1168.98 1099.68C1264.64 1099.66 1360.3 1099.66 1455.96 1099.67C1458.62 1099.68 1461.32 1099.6 1463.94 1099.96C1473.62 1101.29 1478.19 1106.77 1477.67 1116.17C1477.2 1124.78 1472.23 1129.53 1462.41 1129.6C1433.75 1129.79 1405.08 1129.67 1376.42 1129.67C1373.23 1129.68 1370.05 1129.67 1366.86 1129.67C1366.66 1130.29 1366.46 1130.91 1366.26 1131.52C1369.8 1134.79 1373.25 1138.14 1376.88 1141.3C1404.51 1165.42 1436.47 1177.49 1473.34 1178.54C1518.3 1179.82 1555.77 1163.74 1588 1133.45C1589.92 1131.64 1592.01 1129.79 1594.36 1128.69C1598.69 1126.68 1602.98 1127 1605.76 1131.45C1611.92 1141.33 1618.31 1151.1 1623.79 1161.35C1629.07 1171.2 1627.9 1178.26 1619.2 1185.13C1608.27 1193.77 1596.49 1201.34 1585.05 1209.33C1581.89 1211.54 1578.64 1213.61 1573.42 1217.08C1578.28 1218.31 1580.91 1219.44 1583.59 1219.58C1598.85 1220.4 1614.11 1221.39 1629.38 1221.52C1639.31 1221.6 1649.25 1220.36 1659.18 1219.66C1670.55 1218.85 1680.97 1222.06 1690.65 1227.63C1715.86 1242.13 1733.69 1262.76 1742.4 1290.86C1745.83 1301.9 1746.55 1313.17 1743.42 1324.14C1741.87 1329.58 1737.52 1334.21 1735.22 1339.6C1727.95 1340 1719.9 1340 1711.71 1339.61C1704.68 1331.62 1700.25 1322.98 1700.33 1312.47C1700.54 1286.43 1676.23 1264.12 1649.47 1264.17C1621.57 1264.22 1593.67 1262.97 1565.77 1262.35C1534.21 1261.64 1502.65 1260.77 1471.08 1260.38C1421.23 1259.77 1371.39 1260.41 1321.62 1263.7C1310.95 1264.41 1300.54 1265.88 1291.28 1271.99C1276.22 1281.93 1267.69 1296.3 1264.47 1313.51C1262.66 1323.17 1259.5 1331.26 1251.67 1337.33C1251.31 1337.61 1251.87 1339.08 1252 1340C1245.94 1340 1239.88 1340 1232.91 1340Z" fill="#9696C9"/>
<path d="M2 890.937C3.23186 888.951 5.18746 888.118 5.57505 886.817C7.67251 879.78 12.7071 876.635 19.4767 875.732C24.3892 875.076 29.3488 874.39 34.2885 874.382C89.5833 874.288 144.878 874.322 200.173 874.323C202.172 874.323 204.179 874.213 206.168 874.353C215.982 875.042 220.689 878.691 222.266 888.594C223.23 894.653 223.096 901.069 222.322 907.181C220.983 917.74 214.953 920.42 206.138 921.608C204.501 921.828 202.812 921.675 201.146 921.675C161.507 921.678 121.868 921.679 82.2289 921.676C77.6298 921.676 72.9924 921.269 68.4406 921.726C61.5745 922.415 59.1846 925.049 58.4366 931.757C58.2163 933.732 58.3518 935.749 58.3516 937.748C58.3481 967.061 58.3289 996.374 58.359 1025.69C58.3715 1037.79 62.1599 1041.65 74.5412 1041.59C80.4852 1041.56 86.4309 1040.33 92.3663 1040.4C107.974 1040.6 123.575 1041.54 139.18 1041.56C152.785 1041.59 166.389 1040.52 179.997 1040.39C194.2 1040.26 200.675 1046.58 201.643 1060.72C201.78 1062.71 201.733 1064.71 201.667 1066.71C201.229 1080.03 195.621 1086.58 182.51 1087.46C174.61 1088 166.611 1086.87 158.653 1086.79C141.686 1086.64 124.716 1086.68 107.748 1086.64C102.179 1086.63 96.6105 1086.61 91.0422 1086.64C83.7357 1086.67 76.3645 1086.16 69.1408 1086.96C61.4848 1087.8 58.9421 1091.24 58.3835 1098.81C58.2612 1100.47 58.3499 1102.14 58.3499 1103.81C58.349 1138.45 58.6279 1173.1 58.2242 1207.73C58.0398 1223.55 65.4761 1224.3 75.7771 1224.24C118.401 1223.99 161.027 1223.62 203.65 1223.79C222.066 1223.86 225.67 1228.13 225.677 1246.46C225.678 1248.45 225.792 1250.46 225.643 1252.45C224.803 1263.7 220.787 1268.56 209.576 1270.51C203.749 1271.52 197.704 1271.64 191.766 1271.56C183.819 1271.46 175.881 1270.42 167.937 1270.4C121.97 1270.28 76.0014 1270.35 30.0333 1270.32C26.7104 1270.32 23.3123 1270.47 20.0805 1269.85C13.6206 1268.63 8.05837 1266 6.00501 1258.85C5.59316 1257.41 4.19848 1256.26 2.62849 1255.49C2.00002 1134.62 2.00002 1013.25 2 890.937Z" fill="#9595C9"/>
<path d="M2019.33 2C2023.97 25.1916 2027.97 48.3774 2031.89 71.5761C2039.7 117.68 2047.48 163.788 2055.22 209.9C2062.21 251.441 2069.12 292.992 2076.1 334.533C2077.86 344.997 2079.79 355.431 2081.52 365.899C2082.11 369.456 2082.31 373.077 2082.82 377.867C2057.58 382.185 2032.91 386.405 2007.25 390.796C2005.55 381.989 2003.82 374.005 2002.47 365.958C1993.5 312.312 1984.66 258.643 1975.67 205.001C1966.67 151.366 1957.52 97.7562 1948.49 44.1277C1947.27 36.926 1946.35 29.676 1945.25 22.4545C1944.23 15.7618 1944.52 15.2716 1951.2 14.1476C1967.88 11.338 1984.58 8.62837 2001.24 5.72776C2003.37 5.35768 2005.34 4.08943 2006.69 2.61865C2007.5 2 2009 2.00001 2011.1 2.62278C2013.14 2.83038 2014.57 2.4152 2016 2.00002C2016.89 2.00001 2017.78 2 2019.33 2Z" fill="#CAD92D"/>
<path d="M2015.33 2C2014.57 2.41519 2013.14 2.83037 2011.85 2.62277C2012.89 1.99999 2013.78 1.99999 2015.33 2Z" fill="black"/>
<path d="M2967.52 1263.73C2922.15 1278.97 2876.93 1281.42 2831.47 1268.84C2778.99 1254.32 2746.09 1219.41 2730.53 1167.85C2720.26 1133.82 2716.74 1098.82 2718.45 1063.41C2719.7 1037.55 2722.39 1011.79 2730.51 986.96C2742.16 951.324 2761.01 920.692 2791.93 898.385C2812.57 883.498 2835.65 874.222 2860.61 870.664C2891.69 866.232 2922.91 866.576 2953.64 874.045C2995.19 884.144 3027.02 907.63 3048.05 944.976C3058.42 963.382 3063.89 983.626 3067.72 1004.31C3072.77 1031.53 3074.92 1059.02 3073.56 1086.63C3071.62 1126.25 3062.71 1164.24 3043.09 1199.06C3025.98 1229.42 3000.87 1250.93 2967.52 1263.73ZM2837.34 1215.88C2841.92 1217.86 2846.39 1220.14 2851.08 1221.78C2874.04 1229.81 2897.41 1228.82 2920.95 1224.83C2937.64 1221.99 2952.99 1216.03 2966.47 1205.72C2986.06 1190.73 2997.38 1170.2 3003.98 1147.02C3012.38 1117.51 3016.63 1087.53 3014.59 1056.59C3013.19 1035.21 3009.88 1014.34 3004.15 993.83C2997.13 968.692 2984.04 947.494 2961.65 933.051C2946.8 923.472 2930.1 919.737 2912.77 917.232C2858.14 909.334 2814.44 935.1 2792.3 983.634C2779.47 1011.75 2778.03 1042.13 2776.43 1072.32C2775.12 1097.11 2780.15 1121.24 2785.63 1145.23C2792.57 1175.61 2809.16 1199.13 2837.34 1215.88Z" fill="#9696C9"/>
<path d="M1297.28 509.941C1274.29 513.709 1252.12 517.373 1228.97 521.199C1207.89 395.648 1187.05 271.494 1166.01 146.157C1191.4 141.821 1216.09 137.605 1241.91 133.197C1248.13 160.599 1250.66 187.935 1256.77 215.131C1258.64 215.131 1260.23 215.353 1261.74 215.098C1286.6 210.904 1311.38 206.098 1336.34 202.598C1353.61 200.176 1370.86 201.905 1387.22 208.72C1401.27 214.571 1410.4 223.619 1412.89 239.981C1420.05 286.867 1428.44 333.564 1436.32 380.339C1441.89 413.383 1447.43 446.432 1452.96 479.482C1453.11 480.389 1452.98 481.344 1452.98 483.722C1428.11 487.9 1403.15 492.093 1377.18 496.455C1363.22 413.333 1349.45 331.341 1335.46 248.001C1311.56 251.961 1288.21 255.83 1263.81 259.872C1277.69 342.613 1291.44 424.631 1305.34 507.576C1302.91 508.335 1300.5 509.086 1297.28 509.941Z" fill="#CAD92D"/>
<path d="M1861.68 1255.07C1859.2 1269.5 1856.96 1271.47 1843.47 1271.66C1836.81 1271.76 1830.14 1271.81 1823.48 1271.65C1813.21 1271.41 1808.25 1267.13 1806.62 1257.03C1806.14 1254.1 1806.33 1251.06 1806.33 1248.06C1806.32 1133.78 1806.3 1019.49 1806.39 905.212C1806.39 899.608 1807.07 893.961 1807.94 888.414C1809.04 881.486 1813.2 877.048 1820.24 875.796C1824.14 875.103 1828.1 874.429 1832.04 874.381C1859.35 874.047 1886.65 873.671 1913.96 873.731C1932.59 873.772 1951.2 875.278 1969.21 880.228C2007.19 890.662 2034.17 913.858 2045.65 951.959C2059.13 996.703 2040.26 1045.83 1996.12 1068.73C1990.23 1071.79 1984.45 1075.04 1978.31 1078.37C1985.08 1084.47 1991.92 1090 1998.01 1096.26C2010.02 1108.6 2017.99 1123.59 2024.42 1139.39C2039.2 1175.72 2053.7 1212.16 2068.5 1248.48C2075.13 1264.76 2072.79 1271.33 2052.66 1271.66C2045.99 1271.77 2039.3 1271.31 2032.67 1271.76C2021.18 1272.54 2014.53 1266.51 2010.59 1256.71C2006.12 1245.62 2002.35 1234.24 1997.79 1223.18C1986.14 1194.92 1975.45 1166.17 1962.09 1138.73C1947.05 1107.84 1919.95 1093.83 1886.14 1092.46C1881.25 1092.26 1876.25 1093.37 1871.37 1094.26C1862.95 1095.79 1861.7 1097.38 1861.7 1106.24C1861.66 1151.22 1861.68 1196.2 1861.68 1241.18C1861.68 1245.51 1861.68 1249.84 1861.68 1255.07ZM1931.15 1048.37C1932.8 1048.16 1934.46 1048.05 1936.09 1047.72C1969.99 1040.94 1993.69 1015.45 1989.34 975.443C1985.82 942.951 1964.49 925.255 1935.16 922.451C1914.71 920.496 1894.08 920.326 1873.52 919.765C1863.59 919.494 1861.84 921.496 1861.71 931.372C1861.56 942.684 1861.68 954 1861.68 965.314C1861.68 989.939 1861.61 1014.56 1861.71 1039.19C1861.75 1048.8 1863.24 1050.19 1872.68 1050.31C1879.67 1050.39 1886.67 1050.52 1893.65 1050.28C1905.57 1049.87 1917.48 1049.19 1931.15 1048.37Z" fill="#9595C8"/>
<path d="M3249.99 873.666C3274.64 873.607 3298.3 874.231 3320.98 881.762C3362.43 895.529 3388.93 923.435 3395.14 967.158C3400.74 1006.52 3381.96 1046.13 3348.75 1065.02C3340.98 1069.44 3333.27 1073.98 3324.75 1078.92C3338.04 1088.29 3348.99 1098.94 3356.73 1112.38C3362.03 1121.58 3367.28 1130.92 3371.34 1140.7C3385.98 1176 3400.12 1211.51 3414.38 1246.98C3415.74 1250.34 3417.02 1253.86 3417.54 1257.42C3418.67 1265.22 3416.47 1268.38 3408.71 1270.3C3405.22 1271.16 3401.53 1271.5 3397.92 1271.62C3391.59 1271.82 3385.24 1271.42 3378.93 1271.73C3368.53 1272.24 3361.79 1267.22 3357.89 1258.13C3353.7 1248.36 3350.01 1238.37 3346 1228.52C3334.36 1199.89 3323.32 1170.98 3310.79 1142.73C3299.67 1117.66 3280.54 1100.93 3253.16 1094.93C3241.69 1092.41 3230.02 1092.99 3218.49 1094.45C3209.64 1095.58 3208.36 1097.56 3208.36 1107.03C3208.33 1153.69 3208.34 1200.35 3208.34 1247C3208.34 1249.33 3208.41 1251.67 3208.33 1254C3207.85 1266.7 3203.09 1271.48 3190.59 1271.65C3183.26 1271.75 3175.89 1272.14 3168.61 1271.55C3153.76 1270.36 3151.95 1264.86 3151.67 1254.28C3151.62 1252.29 3151.66 1250.29 3151.66 1248.29C3151.66 1134.31 3151.65 1020.34 3151.69 906.367C3151.69 901.384 3151.7 896.308 3152.59 891.438C3154.16 882.838 3158.96 876.93 3168.24 875.747C3171.85 875.288 3175.44 874.44 3179.06 874.388C3202.37 874.052 3225.68 873.887 3249.99 873.666ZM3208.33 987C3208.33 1004.64 3208.25 1022.28 3208.37 1039.92C3208.44 1048.98 3209.76 1050.23 3218.88 1050.31C3230.86 1050.42 3242.87 1050.87 3254.82 1050.18C3265.68 1049.55 3276.67 1048.46 3287.26 1046.07C3315.23 1039.74 3339.46 1015.41 3336.28 979.311C3333.9 952.22 3318.42 929.84 3288.95 923.751C3266.34 919.08 3243.39 919.517 3220.48 919.694C3210.09 919.774 3208.4 921.536 3208.36 932.084C3208.28 949.722 3208.33 967.361 3208.33 987Z" fill="#9696C9"/>
<path d="M2286 1167.68C2258.35 1167.68 2231.69 1167.66 2205.04 1167.68C2192.55 1167.7 2190.12 1169.45 2186.18 1181.05C2178.81 1202.77 2170.48 1224.23 2164.37 1246.3C2159.41 1264.27 2147.03 1270.25 2130.82 1272.2C2125.9 1272.79 2120.83 1272.54 2115.84 1272.27C2107.51 1271.81 2103.55 1267.91 2103.79 1259.69C2103.93 1255.14 2104.91 1250.43 2106.44 1246.12C2119.67 1208.85 2133.09 1171.65 2146.49 1134.44C2169.11 1071.6 2191.78 1008.77 2214.39 945.917C2220.69 928.404 2227.15 910.939 2232.99 893.274C2237.55 879.499 2246.92 872.558 2261 871.85C2269.86 871.405 2278.79 871.326 2287.64 871.864C2296.07 872.376 2302.95 876.557 2307.14 884.011C2310.71 890.359 2314.16 896.889 2316.64 903.714C2350.6 997.447 2384.38 1091.25 2418.2 1185.03C2425.87 1206.29 2433.7 1227.48 2441.14 1248.82C2447.45 1266.97 2443.91 1271.59 2424.61 1271.7C2418.3 1271.74 2411.97 1271.94 2405.67 1272.38C2395.81 1273.08 2389.03 1268.38 2384.43 1260.27C2382.32 1256.56 2381.05 1252.34 2379.64 1248.26C2371.7 1225.35 2363.87 1202.39 2355.91 1179.48C2352.5 1169.64 2349.71 1167.72 2338.98 1167.69C2321.65 1167.64 2304.33 1167.68 2286 1167.68ZM2314.14 1056.94C2299.98 1016.82 2285.82 976.706 2271.03 934.812C2269.28 938.021 2268.5 939.076 2268.09 940.258C2248.33 997.059 2228.59 1053.86 2208.96 1110.71C2207.92 1113.7 2207.83 1117.02 2207.2 1120.77C2210.88 1121.91 2213.65 1123.47 2216.44 1123.5C2230.08 1123.66 2243.73 1123.48 2257.37 1123.27C2267.33 1123.13 2277.28 1122.47 2287.23 1122.54C2299.51 1122.64 2311.78 1123.43 2324.05 1123.55C2327.2 1123.58 2330.35 1122.21 2333.63 1121.46C2333.9 1119.13 2334.66 1117.34 2334.2 1115.95C2327.73 1096.76 2321.1 1077.62 2314.14 1056.94Z" fill="#9595C9"/>
<path d="M1708.34 201.424C1707.54 196.299 1707.03 192.011 1706.17 187.794C1703.15 172.968 1709.61 161.951 1720.22 152.648C1737.09 137.836 1757.56 131.675 1779.19 128.18C1801.77 124.531 1824.29 120.455 1846.87 116.8C1868.14 113.359 1889.05 113.675 1909.06 123.228C1921.64 129.231 1929.33 138.327 1931.56 152.563C1937.45 190.236 1943.95 227.814 1950.22 265.428C1954.97 293.88 1959.22 322.428 1964.7 350.737C1967.16 363.41 1962.87 372.954 1954.92 381.505C1945.96 391.146 1934.73 397.592 1922.49 402.375C1905.93 408.84 1888.35 410.625 1871.08 413.69C1851.5 417.164 1831.89 420.666 1812.16 423.035C1792.8 425.359 1773.64 424.119 1756.34 413.426C1747.41 407.908 1741.82 400.246 1740.06 389.606C1730.87 334 1721.5 278.425 1712.16 222.843C1711.01 215.981 1709.7 209.144 1708.34 201.424ZM1864.49 224.331C1861.04 203.486 1857.59 182.641 1853.99 160.868C1829.56 164.944 1806.19 168.844 1782.36 172.82C1793.91 241.655 1805.3 309.467 1816.75 377.72C1841.34 373.503 1864.65 369.505 1888.33 365.444C1880.43 318.109 1872.75 272.045 1864.49 224.331Z" fill="#CAD92D"/>
<path d="M1674.45 440.559C1660.85 448.235 1646.61 451.329 1632.15 453.76C1609.26 457.609 1586.4 461.595 1563.5 465.371C1546.34 468.202 1529.03 469.197 1512.32 463.611C1504.63 461.037 1497.27 456.653 1490.67 451.841C1483.99 446.976 1481.55 439.142 1480.21 431.007C1473.18 388.482 1466.01 345.982 1458.87 303.478C1454.74 278.956 1450.47 254.461 1446.49 229.916C1444.73 219.048 1448.23 209.794 1455.71 201.632C1471.85 184.013 1492.85 176.427 1515.46 172.348C1538.63 168.17 1561.91 164.664 1585.11 160.652C1606.43 156.966 1627.32 156.957 1647.66 165.697C1661.95 171.837 1670 181.728 1672.49 197.671C1680.27 247.458 1689.08 297.086 1697.46 346.78C1700.27 363.453 1702.92 380.154 1705.79 396.815C1707.59 407.245 1704.15 416.241 1697.04 423.194C1690.46 429.618 1682.47 434.597 1674.45 440.559ZM1555.78 411.402C1556.3 414.241 1556.81 417.081 1557.52 421.006C1581.67 417.001 1605.07 413.123 1629.11 409.137C1617.38 340.351 1606.6 272.422 1594.51 204.364C1570.11 208.472 1547.07 212.351 1523.42 216.333C1524.03 220.994 1524.4 224.588 1524.99 228.144C1531.28 265.765 1537.59 303.384 1543.94 340.995C1547.81 363.889 1551.76 386.767 1555.78 411.402Z" fill="#CAD92D"/>
<path d="M3885.61 1163.31C3889.08 1148.86 3890.32 1135 3890.32 1121C3890.33 1046.02 3890.32 971.049 3890.33 896.073C3890.33 893.075 3890.12 890.047 3890.46 887.083C3891.52 877.782 3895.72 873.21 3905.11 872.542C3913.7 871.931 3922.41 871.927 3931 872.554C3940.27 873.232 3943.72 877.41 3944.31 886.761C3944.43 888.753 3944.35 890.759 3944.35 892.758C3944.35 975.398 3944.98 1058.05 3944.09 1140.68C3943.61 1185.29 3926.24 1222.83 3889.58 1249.88C3872.45 1262.52 3852.87 1270.17 3831.95 1273.54C3794.5 1279.58 3757.71 1276.72 3722.27 1262.47C3692.71 1250.58 3672 1229.54 3659.61 1200.23C3649.62 1176.58 3645.79 1151.71 3645.72 1126.27C3645.53 1049.63 3645.64 972.991 3645.66 896.349C3645.67 880.759 3646.49 872.134 3668.54 872.142C3674.51 872.145 3680.52 871.961 3686.45 872.461C3696.27 873.289 3700.64 877.845 3701.58 887.643C3701.84 890.286 3701.67 892.971 3701.67 895.636C3701.68 969.946 3701.63 1044.26 3701.71 1118.56C3701.73 1134.88 3703.23 1151.02 3708.05 1166.79C3718.56 1201.2 3741.7 1220.75 3777.02 1226.23C3793.25 1228.75 3809.59 1229.01 3825.5 1224.85C3854.34 1217.31 3873.66 1199.08 3883.29 1170.76C3884.04 1168.56 3884.73 1166.33 3885.61 1163.31Z" fill="#9696C9"/>
<path d="M470.436 938.409C479.332 922.731 488.231 907.883 496.315 892.605C505.522 875.205 530.959 865.764 550.881 872.967C560.491 876.442 563.157 883.072 558.074 892.482C550.965 905.644 543.238 918.477 535.66 931.383C510.903 973.545 486.23 1015.76 461.182 1057.75C456.602 1065.42 457.283 1071.81 461.562 1079.09C492.565 1131.86 523.42 1184.71 554.232 1237.59C557.906 1243.89 561.432 1250.35 564.316 1257.04C567.116 1263.53 565.074 1268.37 558.258 1270.21C534.312 1276.69 513.45 1276.79 498.074 1251.63C482.65 1226.38 468.593 1200.31 454 1174.56C443.343 1155.75 432.808 1136.88 422.166 1118.07C420.889 1115.81 419.285 1113.73 417.337 1110.84C415.286 1113.91 413.551 1116.19 412.153 1118.66C388.71 1160.03 365.336 1201.45 341.863 1242.8C339.08 1247.71 335.988 1252.46 332.724 1257.06C324.36 1268.85 312.693 1274.32 298.397 1273.56C291.826 1273.21 285.176 1272.2 278.819 1270.51C270.154 1268.22 268.037 1263.58 272.054 1255.61C276.54 1246.72 281.699 1238.15 286.791 1229.57C316.164 1180.08 345.479 1130.57 375.134 1081.25C380.524 1072.29 379.38 1064.7 374.309 1056.3C360.385 1033.24 346.779 1009.98 333.138 986.744C315.963 957.489 298.805 928.224 281.779 898.883C271.138 880.546 274.735 873.673 295.706 872.027C301.004 871.612 306.389 871.39 311.669 871.84C326.821 873.13 337.551 881.212 344.936 894.266C367.367 933.918 389.848 973.543 412.383 1013.14C414.287 1016.48 416.744 1019.51 419.856 1024.01C422.97 1019.72 425.519 1016.79 427.423 1013.49C441.713 988.715 455.876 963.871 470.436 938.409Z" fill="#9696C9"/>
<path d="M868.147 950.081C878.101 983.887 877.417 1016.63 863.535 1048.28C847.269 1085.36 817.798 1107.26 778.931 1115.99C762.881 1119.59 746.118 1120.26 729.623 1121.53C719.358 1122.32 708.975 1121.46 698.664 1121.84C690.121 1122.16 686.896 1125.73 686.373 1134.24C686.23 1136.56 686.344 1138.9 686.344 1141.23C686.343 1177.87 686.364 1214.51 686.334 1251.15C686.321 1266.36 681.132 1271.58 666.096 1271.67C659.102 1271.7 652.098 1271.89 645.115 1271.61C635.52 1271.21 630.556 1266.29 629.739 1256.74C629.513 1254.09 629.659 1251.41 629.659 1248.75C629.656 1134.84 629.647 1020.93 629.688 907.024C629.69 902.042 629.75 897 630.487 892.092C631.794 883.385 636.579 877.423 645.636 875.833C649.858 875.092 654.161 874.41 658.43 874.393C688.405 874.27 718.395 873.775 748.353 874.504C771.99 875.08 795.434 878.192 816.881 889.294C842.013 902.305 858.661 922.721 868.147 950.081ZM719.018 921.663C712.691 921.663 706.363 921.599 700.037 921.678C689.006 921.816 686.396 924.225 686.373 935.179C686.283 977.47 686.271 1019.76 686.379 1062.05C686.408 1073.25 690.882 1076.48 702.206 1075.15C708.774 1074.38 715.644 1073.55 722.051 1074.65C733.165 1076.55 744.04 1074.87 754.587 1072.88C764.165 1071.08 773.899 1067.35 782.252 1062.3C807.225 1047.21 815.767 1022.87 816.236 995.231C816.986 951.097 789.126 922.625 744.988 921.689C736.999 921.52 729.004 921.664 719.018 921.663Z" fill="#9696C9"/>
<path d="M917.877 468.25C920.808 486.464 922.647 504.054 926.784 521.086C931.275 539.575 923.499 551.902 910.154 562.527C897.122 572.904 882.055 579.045 865.866 582.063C842.396 586.439 818.839 590.393 795.243 594.028C783.476 595.841 771.544 597.409 759.678 597.475C750.524 597.526 741.025 596.152 732.264 593.489C715.086 588.267 703.455 577.358 701.864 558.198C701.484 553.627 700.665 549.093 699.981 544.049C723.765 532.882 747.184 521.887 772.153 510.164C774.788 524.48 777.248 537.837 779.809 551.748C803.943 547.621 827 543.679 851.151 539.55C846.66 512.783 842.292 486.75 837.746 459.652C830.548 460.637 823.738 461.417 816.98 462.521C795.064 466.101 773.267 470.689 751.232 473.184C731.851 475.378 712.714 473.08 695.856 461.487C688.308 456.296 683.782 449.24 682.231 440.334C677.567 413.548 672.855 386.769 668.503 359.931C666.246 346.011 672.951 335.445 682.887 326.695C697.009 314.259 713.962 307.482 732.163 304.098C758.895 299.128 785.688 294.395 812.583 290.432C831.406 287.659 850.256 288.143 868.316 295.598C882.818 301.585 893.141 310.797 894.316 327.643C894.656 332.519 895.711 337.346 896.474 342.431C872.472 353.732 849.105 364.734 824.295 376.416C821.728 362.648 819.333 349.796 816.675 335.534C793.155 337.725 770.154 343.592 745.428 346.711C749.282 373.888 754.299 400.069 758.877 427.209C772.284 425.01 784.958 422.834 797.665 420.87C817.975 417.73 838.027 412.655 858.86 413.512C872.066 414.056 884.496 417.104 896.105 423.289C906.332 428.738 913.226 436.663 914.527 448.789C915.197 455.031 916.682 461.186 917.877 468.25Z" fill="#C9D92D"/>
<path d="M1030 254.008C1047.56 251.179 1064.19 247.908 1080.97 246.02C1098.73 244.022 1116.15 246.2 1132.46 254.335C1143.87 260.026 1151.67 268.335 1153.14 281.591C1155.35 301.555 1160.42 296.907 1140.27 306.201C1122.76 314.276 1105.39 322.632 1087.94 330.836C1086.79 331.377 1085.53 331.679 1083.22 332.47C1080.82 318.797 1078.52 305.639 1076.03 291.441C1051.94 295.485 1028.59 299.404 1004.52 303.444C1016.01 371.973 1027.34 439.527 1038.85 508.184C1062.82 504.121 1086.17 500.162 1110.3 496.071C1108.15 482.121 1106.12 468.926 1103.94 454.736C1111.63 455.326 1117.78 455.638 1123.9 456.297C1141.36 458.179 1158.78 460.434 1176.27 462.027C1181.41 462.495 1184.19 463.682 1184.66 469.332C1185.13 474.913 1187.1 480.365 1187.61 485.947C1188.75 498.376 1182.26 507.576 1173.65 515.401C1157.84 529.762 1138.56 536.514 1117.89 540.009C1091.4 544.488 1064.98 549.394 1038.4 553.282C1021.18 555.802 1003.85 555.276 987.396 548.443C972.992 542.459 963.991 532.78 961.36 516.224C951.577 454.655 940.808 393.242 930.415 331.769C929.695 327.517 929.154 323.23 928.302 319.005C925.788 306.527 929.565 296.119 938.263 287.123C953.514 271.352 972.919 264.113 993.82 260.097C1005.54 257.844 1017.37 256.13 1030 254.008Z" fill="#C9D92D"/>
<path d="M1676.36 794.242C1615.32 855.279 1554.71 915.735 1494.33 976.415C1484.11 986.686 1478.57 991.026 1466.62 975.577C1462.79 970.617 1457.8 966.547 1453.47 962.197C1446.23 970.426 1439.19 978.637 1431.89 986.609C1429.22 989.529 1426.1 992.135 1422.88 994.442C1413.9 1000.86 1404.33 999.687 1396.97 991.553C1390.61 984.52 1390.72 975.276 1397.4 967.128C1407.38 954.952 1418.27 943.894 1435.52 938.236C1429.86 933.711 1425.38 930.113 1420.88 926.545C1419.31 925.307 1417.67 924.176 1416.1 922.941C1405.54 914.611 1405.43 911.57 1415.44 903.009C1437.19 884.412 1457.68 864.554 1477.66 844.043C1516.47 804.202 1556.17 765.229 1595.5 725.896C1599.26 722.142 1602.76 718.093 1606.81 714.692C1614.88 707.918 1622.28 707.871 1630.1 714.787C1634.81 718.954 1638.71 724.024 1643.15 728.51C1654.87 740.343 1666.28 752.525 1678.59 763.717C1688.92 773.114 1689.09 783.877 1678.29 792.326C1677.77 792.734 1677.34 793.263 1676.36 794.242Z" fill="#9696C9"/>
<path d="M2616 874.317C2639 874.317 2661 874.277 2683 874.331C2699.22 874.37 2704.25 879.502 2704.34 895.973C2704.36 899.635 2704.5 903.337 2704.04 906.952C2702.78 916.827 2697.52 921.902 2687.53 922.236C2676.55 922.603 2665.54 922.416 2654.54 922.326C2636.55 922.178 2618.57 922.002 2600.58 921.67C2587.32 921.425 2583.71 924.611 2583.7 937.711C2583.67 1040.71 2583.68 1143.7 2583.71 1246.69C2583.71 1251.01 2584.21 1255.33 2584.3 1259.65C2584.39 1264.57 2582.04 1268.07 2577.3 1269.35C2564.61 1272.78 2551.78 1274.14 2538.92 1270.36C2529.78 1267.68 2528.35 1265.66 2528.34 1256.16C2528.29 1214.5 2528.32 1172.84 2528.32 1131.17C2528.32 1073.17 2528.3 1015.18 2528.36 957.182C2528.36 953.224 2529.2 949.269 2529.25 945.307C2529.31 941.37 2529.3 937.336 2528.53 933.504C2526.86 925.227 2523.37 922.253 2514.93 921.825C2510.3 921.59 2505.63 922.3 2500.97 922.311C2476.31 922.369 2451.64 922.438 2426.98 922.302C2414.53 922.233 2409.45 917.639 2408.19 905.188C2407.65 899.937 2407.72 894.518 2408.36 889.279C2409.55 879.575 2414.34 875.256 2424.01 874.383C2426.66 874.145 2429.34 874.319 2432.01 874.318C2493.01 874.317 2554 874.317 2616 874.317Z" fill="#9595C8"/>
<path d="M1158.17 1234.51C1158.39 1242.53 1159.35 1249.88 1158.3 1256.92C1156.81 1266.83 1152.61 1269.9 1142.86 1270.31C1129.57 1270.87 1116.28 1271.58 1102.99 1271.61C1065.69 1271.7 1028.39 1271.51 991.097 1271.31C984.509 1271.28 977.916 1270.79 971.34 1270.3C959.112 1269.39 952.967 1263.73 951.743 1251.8C950.932 1243.89 950.381 1235.91 950.375 1227.97C950.288 1118.97 950.299 1009.98 950.372 900.983C950.375 896.037 950.96 891.059 951.671 886.154C952.956 877.286 955.575 873.514 963.764 872.812C974.305 871.909 985.037 872.046 995.592 872.899C1002.59 873.464 1006.54 878.624 1007.51 885.756C1007.91 888.705 1007.68 891.744 1007.68 894.742C1007.68 996.404 1007.68 1098.07 1007.69 1199.73C1007.69 1218.91 1010.42 1221.8 1029.49 1221.6C1039.78 1221.49 1050.06 1220.35 1060.34 1220.41C1076.62 1220.5 1092.9 1221.36 1109.19 1221.58C1115.13 1221.65 1121.09 1220.43 1127.03 1220.52C1133.63 1220.62 1140.31 1221.06 1146.79 1222.25C1152.81 1223.36 1156.48 1227.72 1158.17 1234.51Z" fill="#9595C8"/>
<path d="M3489.66 1172C3489.66 1078.7 3489.66 986.398 3489.67 894.096C3489.67 891.098 3489.7 888.099 3489.72 885.101C3489.76 880.172 3492.35 876.422 3496.68 875.085C3509.89 871.006 3523.33 869.521 3536.8 874.212C3543.52 876.554 3546.5 880.771 3546.49 888.46C3546.27 1009.42 3546.34 1130.37 3546.32 1251.33C3546.32 1253.66 3546.2 1256 3545.86 1258.3C3544.41 1267.81 3541.01 1272.11 3532.11 1272.43C3522.25 1272.77 3512.35 1272.72 3502.48 1272.33C3494.91 1272.02 3491.51 1266.78 3490.43 1259.91C3489.86 1256.32 3489.7 1252.62 3489.7 1248.97C3489.64 1223.65 3489.66 1198.32 3489.66 1172Z" fill="#9797CB"/>
<path d="M1629.94 978.378C1622.15 956.779 1611.18 937.953 1596.38 921.398C1595.27 920.16 1594.11 918.939 1593.19 917.572C1588.75 911.044 1588.98 905.156 1594.83 899.757C1603.11 892.11 1611.64 884.684 1620.48 877.701C1628.62 871.28 1633.14 871.791 1640.19 879.659C1667.07 909.699 1685.53 944.127 1693.92 983.757C1697.66 1001.4 1698.93 1019.22 1698.34 1037.21C1698.04 1046.1 1694.89 1050.29 1686.2 1051.3C1674.03 1052.73 1661.78 1053.72 1649.54 1054.22C1640.57 1054.59 1638.69 1052.29 1638.35 1043.03C1638.1 1036.39 1638.1 1029.74 1637.88 1023.1C1637.37 1008.09 1634.39 993.504 1629.94 978.378Z" fill="#9595C9"/>
<path d="M1674.17 1069.65C1696.56 1069.11 1712.64 1078.49 1721.33 1097.84C1730.28 1117.77 1728.4 1137.45 1714 1154.77C1701.37 1169.95 1675.06 1174.91 1655.33 1166.43C1631.91 1156.36 1622.04 1135.99 1626.23 1109.3C1629.57 1088.03 1647.88 1070.3 1674.17 1069.65ZM1663.75 1094.35C1660.47 1097.14 1656.93 1099.67 1653.96 1102.76C1646.3 1110.73 1644.88 1120.14 1648.61 1130.38C1652.93 1142.23 1666.57 1150.92 1678.48 1149.56C1692.66 1147.95 1702.32 1138.72 1704.42 1124.8C1707.85 1102 1687.41 1085.85 1663.75 1094.35Z" fill="#9494C6"/>
<path d="M1305.87 695.532C1308.92 699.781 1311.76 703.316 1314.75 707.038C1282.45 715.03 1282.45 715.03 1271.22 730.684C1268.37 724.391 1266.84 717.159 1262.51 712.539C1258.12 707.848 1250.97 705.735 1244.78 702.352C1248.94 697.615 1254.24 692.564 1258.33 686.672C1262.41 680.783 1265.28 674.054 1269.02 667.078C1281.95 678.342 1295.83 674.429 1310.47 668.275C1309.59 678.098 1301.41 685.454 1305.87 695.532Z" fill="#C6D52E"/>
<path d="M1433.13 751.641C1428.19 761.558 1428.15 770.188 1437.2 778.091C1434.9 779.784 1433.16 782.17 1431.53 782.094C1417.07 781.419 1407.11 789.09 1398.32 799.21C1397.68 799.953 1396.85 800.546 1396.06 801.145C1395.82 801.325 1395.42 801.288 1395.29 801.312C1392.58 795.469 1391.17 788.32 1386.85 784.259C1382.4 780.071 1375.12 778.888 1368.52 776.157C1370.3 772.526 1374.17 770.562 1377.58 768.323C1385.19 763.32 1390.83 757.414 1390.39 747.389C1390.29 745.19 1392.16 742.906 1393.78 739.134C1406.76 752.515 1420.86 746.57 1435.83 743.269C1434.73 746.869 1434.12 748.903 1433.13 751.641Z" fill="#C6D52E"/>
<path d="M1247.82 863.095C1250.72 862.241 1252.91 861.723 1255.7 861.062C1253.8 868.918 1250.43 875.954 1250.95 882.691C1251.47 889.453 1255.86 895.917 1258.48 902.313C1239.83 903.845 1239.28 904.113 1222.37 920.682C1218.15 906.005 1212.43 892.889 1191.42 894.691C1198.44 888.12 1203.71 883.53 1208.57 878.549C1214.04 872.956 1214.68 865.603 1214.29 857.013C1220.3 859.654 1225.07 862.792 1230.25 863.741C1235.67 864.735 1241.47 863.624 1247.82 863.095Z" fill="#C6D52E"/>
<path d="M1380.47 1009.19C1388.05 1018.19 1387.36 1026.58 1381.19 1035.24C1373.75 1045.68 1365.17 1054.86 1353.45 1060.42C1343.42 1065.16 1332.84 1060.72 1330.29 1050.6C1328.82 1044.78 1328.35 1038.45 1332.92 1033.55C1340.83 1025.06 1348.52 1016.24 1357.35 1008.81C1364.01 1003.2 1372.3 1004.57 1380.47 1009.19Z" fill="#9595C8"/>
</g>
<defs>
<clipPath id="clip0_420_2">
<rect width="4474" height="1338" fill="white"/>
</clipPath>
</defs>
</svg>
