<svg width="4474" height="694" viewBox="0 0 4474 694" fill="none" xmlns="http://www.w3.org/2000/svg">
<g clip-path="url(#clip0_432_2)">
<path d="M4476 623.063C4475.64 623.49 4475.01 622.515 4474.97 622.534C4461.05 631.026 4446.09 627.656 4431.32 626.398C4425.24 625.88 4422.71 621.867 4422.16 616.367C4421.77 612.402 4421.68 608.392 4421.68 604.402C4421.65 502.415 4421.66 400.428 4421.66 298.441C4421.66 294.867 4421.66 291.293 4421.66 287.719C4421.14 287.521 4420.61 287.322 4420.09 287.124C4418.92 289.174 4417.49 291.122 4416.62 293.291C4392.38 353.066 4368.1 412.823 4344.05 472.67C4326.44 516.474 4308.66 560.219 4291.89 604.346C4282.74 628.442 4263.57 631.379 4242.35 625.886C4235.52 624.12 4231.04 618.87 4228.44 612.457C4222.18 597.059 4216.09 581.593 4210.13 566.08C4188.41 509.608 4166.78 453.099 4145.09 396.618C4133.41 366.205 4121.67 335.813 4109.89 305.435C4108.48 301.777 4106.67 298.269 4104.22 292.878C4103.09 296.289 4102.26 297.828 4102.11 299.429C4101.79 303.069 4101.69 306.74 4101.69 310.398C4101.67 405.719 4101.66 501.04 4101.7 596.361C4101.7 601.68 4102.33 607.003 4102.26 612.319C4102.16 620.451 4099.69 623.807 4091.81 625.871C4079.39 629.124 4066.92 629.7 4054.44 625.764C4048.65 623.938 4045.35 620.61 4045.66 614.257C4045.79 611.598 4045.66 608.926 4045.66 606.26C4045.66 498.94 4045.64 391.621 4045.69 284.301C4045.69 273.317 4045.96 262.328 4046.38 251.351C4046.8 240.434 4053.06 233.243 4063.93 231.761C4082.12 229.281 4100.38 229.291 4118.54 232.094C4129.1 233.724 4137.27 239.735 4141.73 249.246C4149.61 266.086 4157.01 283.179 4163.88 300.457C4192.77 373.058 4221.37 445.77 4250.1 518.432C4253.11 526.048 4256.26 533.607 4260.14 543.145C4262.41 539.231 4263.68 537.512 4264.48 535.595C4285.02 486.165 4305.6 436.75 4325.99 387.257C4342.95 346.07 4359.77 304.821 4376.48 263.531C4383.74 245.6 4395.44 232.781 4415.48 230.703C4425.66 229.647 4436.07 230.764 4446.37 230.971C4448.02 231.004 4449.66 231.701 4451.28 231.612C4461.4 231.056 4469.38 234.714 4475.48 242.643C4476 368.708 4476 495.417 4476 623.063Z" fill="#9696C9"/>
<path d="M1232.91 696C1231.6 694.882 1231.52 693.112 1230.76 692.744C1221.98 688.506 1219.74 680.918 1219.65 672.061C1219.42 649.67 1227.97 630.499 1241.89 613.643C1261.78 589.566 1287.15 576.376 1318.85 575.553C1338.72 575.037 1358.57 573.376 1380.79 572.093C1376.89 569.25 1374.77 567.473 1372.44 566.047C1352.78 554.031 1333.87 541.027 1318.34 523.774C1314.61 519.626 1311.01 515.128 1308.4 510.231C1299.71 493.89 1285.98 485.992 1267.91 485.773C1249.93 485.556 1231.94 486.285 1213.96 486.288C1196.64 486.29 1179.32 485.942 1162.01 485.657C1152.37 485.498 1148.15 482.051 1147.66 474.249C1146.95 462.956 1150.39 457.766 1160.01 456.133C1162.94 455.636 1165.99 455.682 1168.98 455.682C1264.64 455.66 1360.3 455.662 1455.96 455.675C1458.62 455.675 1461.32 455.598 1463.94 455.958C1473.62 457.285 1478.19 462.771 1477.67 472.172C1477.2 480.779 1472.23 485.533 1462.41 485.6C1433.75 485.793 1405.08 485.672 1376.42 485.675C1373.23 485.675 1370.05 485.675 1366.86 485.675C1366.66 486.291 1366.46 486.907 1366.26 487.523C1369.8 490.787 1373.25 494.138 1376.88 497.3C1404.51 521.419 1436.47 533.491 1473.34 534.539C1518.3 535.818 1555.77 519.736 1588 489.445C1589.92 487.637 1592.01 485.791 1594.36 484.695C1598.69 482.676 1602.98 482.999 1605.76 487.45C1611.92 497.326 1618.31 507.098 1623.79 517.347C1629.07 527.205 1627.9 534.255 1619.2 541.128C1608.27 549.769 1596.49 557.335 1585.05 565.328C1581.89 567.536 1578.64 569.61 1573.42 573.081C1578.28 574.313 1580.91 575.436 1583.59 575.581C1598.85 576.403 1614.11 577.388 1629.38 577.519C1639.31 577.604 1649.25 576.358 1659.18 575.657C1670.55 574.854 1680.97 578.057 1690.65 583.625C1715.86 598.132 1733.69 618.756 1742.4 646.856C1745.83 657.904 1746.55 669.174 1743.42 680.142C1741.87 685.576 1737.52 690.212 1735.22 695.605C1727.95 696 1719.9 696 1711.71 695.611C1704.68 687.623 1700.25 678.979 1700.33 668.471C1700.54 642.432 1676.23 620.123 1649.47 620.172C1621.57 620.223 1593.67 618.969 1565.77 618.345C1534.21 617.64 1502.65 616.771 1471.08 616.384C1421.23 615.774 1371.39 616.406 1321.62 619.701C1310.95 620.407 1300.54 621.879 1291.28 627.99C1276.22 637.931 1267.69 652.302 1264.47 669.509C1262.66 679.173 1259.5 687.258 1251.67 693.326C1251.31 693.608 1251.87 695.082 1252 696C1245.94 696 1239.88 696 1232.91 696Z" fill="#9696C9"/>
<path d="M2 246.937C3.23186 244.951 5.18746 244.118 5.57505 242.818C7.67251 235.78 12.7071 232.635 19.4767 231.732C24.3892 231.076 29.3488 230.39 34.2885 230.382C89.5833 230.288 144.878 230.322 200.173 230.323C202.172 230.323 204.179 230.213 206.168 230.353C215.982 231.042 220.689 234.691 222.266 244.594C223.23 250.653 223.096 257.069 222.322 263.181C220.983 273.74 214.953 276.42 206.138 277.608C204.501 277.828 202.812 277.675 201.146 277.675C161.507 277.678 121.868 277.679 82.2289 277.677C77.6298 277.676 72.9924 277.269 68.4406 277.726C61.5745 278.415 59.1846 281.049 58.4366 287.757C58.2163 289.732 58.3518 291.75 58.3516 293.748C58.3481 323.061 58.3289 352.374 58.359 381.687C58.3715 393.795 62.1599 397.647 74.5412 397.586C80.4852 397.556 86.4309 396.329 92.3663 396.404C107.974 396.601 123.575 397.538 139.18 397.564C152.785 397.586 166.389 396.516 179.997 396.393C194.2 396.264 200.675 402.583 201.643 416.717C201.78 418.706 201.733 420.715 201.667 422.711C201.229 436.034 195.621 442.577 182.51 443.464C174.61 443.998 166.611 442.866 158.653 442.793C141.686 442.636 124.716 442.678 107.748 442.643C102.179 442.632 96.6105 442.611 91.0422 442.636C83.7357 442.668 76.3645 442.155 69.1408 442.956C61.4848 443.805 58.9421 447.24 58.3835 454.813C58.2612 456.469 58.3499 458.142 58.3499 459.808C58.349 494.45 58.6279 529.096 58.2242 563.734C58.0398 579.554 65.4761 580.305 75.7771 580.243C118.401 579.989 161.027 579.619 203.65 579.785C222.066 579.857 225.67 584.131 225.677 602.456C225.678 604.455 225.792 606.463 225.643 608.451C224.803 619.702 220.787 624.563 209.576 626.507C203.749 627.518 197.704 627.636 191.766 627.559C183.819 627.456 175.881 626.418 167.937 626.397C121.97 626.277 76.0014 626.347 30.0333 626.321C26.7104 626.319 23.3123 626.468 20.0805 625.855C13.6206 624.629 8.05837 621.996 6.00501 614.848C5.59316 613.414 4.19848 612.263 2.62849 611.491C2.00002 490.625 2.00002 369.25 2 246.937Z" fill="#9595C9"/>
<path d="M2967.52 619.729C2922.15 634.975 2876.93 637.422 2831.47 624.845C2778.99 610.324 2746.09 575.414 2730.52 523.847C2720.26 489.825 2716.74 454.821 2718.45 419.41C2719.7 393.549 2722.39 367.791 2730.51 342.96C2742.16 307.324 2761.01 276.692 2791.93 254.385C2812.57 239.498 2835.65 230.222 2860.61 226.664C2891.69 222.232 2922.91 222.576 2953.64 230.045C2995.19 240.144 3027.02 263.63 3048.05 300.976C3058.42 319.383 3063.89 339.626 3067.72 360.311C3072.76 387.531 3074.92 415.016 3073.56 442.627C3071.62 482.25 3062.71 520.241 3043.09 555.058C3025.98 585.418 3000.87 606.934 2967.52 619.729ZM2837.34 571.881C2841.92 573.864 2846.39 576.136 2851.08 577.779C2874.04 585.813 2897.41 584.823 2920.95 580.825C2937.64 577.989 2952.99 572.032 2966.47 561.719C2986.06 546.727 2997.38 526.203 3003.98 503.024C3012.38 473.514 3016.63 443.535 3014.59 412.59C3013.19 391.215 3009.88 370.337 3004.15 349.83C2997.13 324.693 2984.04 303.494 2961.65 289.051C2946.8 279.472 2930.1 275.737 2912.77 273.232C2858.14 265.334 2814.44 291.1 2792.29 339.634C2779.47 367.747 2778.03 398.133 2776.43 428.318C2775.12 453.105 2780.15 477.242 2785.63 501.232C2792.57 531.608 2809.15 555.126 2837.34 571.881Z" fill="#9696C9"/>
<path d="M1861.68 611.071C1859.2 625.498 1856.96 627.472 1843.47 627.664C1836.81 627.758 1830.14 627.807 1823.48 627.65C1813.21 627.407 1808.25 623.126 1806.62 613.033C1806.14 610.103 1806.33 607.055 1806.33 604.061C1806.32 489.778 1806.3 375.495 1806.39 261.212C1806.39 255.608 1807.07 249.961 1807.94 244.414C1809.04 237.486 1813.2 233.048 1820.24 231.796C1824.14 231.103 1828.1 230.429 1832.04 230.381C1859.35 230.047 1886.65 229.671 1913.96 229.731C1932.59 229.772 1951.2 231.279 1969.21 236.228C2007.19 246.662 2034.17 269.858 2045.65 307.959C2059.13 352.703 2040.26 401.826 1996.12 424.731C1990.23 427.786 1984.45 431.039 1978.31 434.368C1985.08 440.47 1991.92 445.997 1998.01 452.257C2010.02 464.6 2017.99 479.595 2024.42 495.393C2039.2 531.72 2053.7 568.156 2068.5 604.476C2075.13 620.755 2072.79 627.335 2052.66 627.663C2045.99 627.771 2039.3 627.31 2032.67 627.761C2021.18 628.544 2014.53 622.508 2010.59 612.714C2006.12 601.617 2002.35 590.24 1997.79 579.184C1986.14 550.92 1975.45 522.169 1962.09 494.728C1947.05 463.839 1919.95 449.827 1886.14 448.455C1881.25 448.257 1876.25 449.366 1871.37 450.256C1862.95 451.79 1861.7 453.378 1861.7 462.238C1861.66 507.218 1861.68 552.198 1861.68 597.179C1861.68 601.51 1861.68 605.841 1861.68 611.071ZM1931.15 404.367C1932.8 404.156 1934.46 404.045 1936.09 403.72C1969.99 396.937 1993.69 371.447 1989.34 331.443C1985.82 298.951 1964.49 281.255 1935.16 278.451C1914.71 276.496 1894.08 276.326 1873.52 275.765C1863.59 275.494 1861.84 277.496 1861.71 287.372C1861.56 298.684 1861.68 310 1861.68 321.314C1861.68 345.94 1861.61 370.565 1861.71 395.19C1861.75 404.799 1863.24 406.191 1872.68 406.307C1879.67 406.392 1886.67 406.521 1893.65 406.281C1905.57 405.87 1917.48 405.186 1931.15 404.367Z" fill="#9595C8"/>
<path d="M3249.99 229.666C3274.64 229.607 3298.3 230.231 3320.98 237.762C3362.43 251.529 3388.93 279.435 3395.14 323.158C3400.74 362.516 3381.96 402.128 3348.75 421.022C3340.98 425.444 3333.27 429.976 3324.75 434.915C3338.04 444.293 3348.99 454.943 3356.73 468.381C3362.03 477.578 3367.28 486.916 3371.34 496.696C3385.98 532.002 3400.12 567.513 3414.38 602.977C3415.74 606.344 3417.02 609.856 3417.54 613.416C3418.67 621.222 3416.47 624.377 3408.71 626.298C3405.22 627.164 3401.53 627.498 3397.92 627.615C3391.59 627.821 3385.24 627.418 3378.93 627.73C3368.53 628.245 3361.79 623.217 3357.89 614.127C3353.7 604.355 3350.01 594.372 3346 584.52C3334.36 555.885 3323.32 526.978 3310.79 498.735C3299.67 473.663 3280.54 456.928 3253.16 450.927C3241.69 448.413 3230.02 448.988 3218.49 450.455C3209.64 451.58 3208.36 453.562 3208.36 463.035C3208.33 509.69 3208.34 556.346 3208.34 603.002C3208.34 605.335 3208.41 607.67 3208.33 610C3207.85 622.702 3203.09 627.485 3190.59 627.652C3183.26 627.751 3175.89 628.139 3168.61 627.555C3153.76 626.363 3151.95 620.863 3151.67 610.285C3151.62 608.287 3151.66 606.286 3151.66 604.287C3151.66 490.314 3151.65 376.34 3151.69 262.367C3151.69 257.384 3151.7 252.308 3152.59 247.438C3154.16 238.838 3158.96 232.93 3168.24 231.747C3171.85 231.288 3175.44 230.441 3179.06 230.388C3202.37 230.052 3225.68 229.887 3249.99 229.666ZM3208.33 343C3208.33 360.639 3208.25 378.278 3208.37 395.916C3208.44 404.976 3209.76 406.225 3218.88 406.308C3230.86 406.417 3242.87 406.868 3254.82 406.18C3265.68 405.554 3276.67 404.465 3287.26 402.069C3315.23 395.745 3339.46 371.409 3336.28 335.311C3333.9 308.22 3318.42 285.84 3288.95 279.751C3266.34 275.08 3243.39 275.517 3220.48 275.694C3210.09 275.774 3208.4 277.536 3208.36 288.084C3208.28 305.722 3208.33 323.361 3208.33 343Z" fill="#9696C9"/>
<path d="M2286 523.676C2258.35 523.677 2231.69 523.659 2205.04 523.684C2192.55 523.696 2190.12 525.452 2186.18 537.052C2178.81 558.773 2170.48 580.231 2164.37 602.303C2159.41 620.271 2147.03 626.254 2130.82 628.201C2125.9 628.792 2120.83 628.54 2115.84 628.267C2107.51 627.811 2103.55 623.914 2103.79 615.688C2103.93 611.136 2104.91 606.431 2106.44 602.125C2119.67 564.854 2133.09 527.653 2146.49 490.442C2169.11 427.597 2191.78 364.767 2214.39 301.917C2220.69 284.404 2227.15 266.939 2232.99 249.274C2237.55 235.499 2246.92 228.558 2261 227.85C2269.86 227.405 2278.79 227.326 2287.64 227.864C2296.07 228.376 2302.95 232.557 2307.14 240.011C2310.71 246.359 2314.16 252.89 2316.64 259.714C2350.6 353.447 2384.38 447.245 2418.2 541.028C2425.87 562.286 2433.7 583.485 2441.14 604.824C2447.45 622.966 2443.91 627.586 2424.61 627.705C2418.3 627.744 2411.97 627.936 2405.67 628.38C2395.81 629.075 2389.03 624.379 2384.43 616.275C2382.32 612.56 2381.05 608.337 2379.64 604.263C2371.7 581.346 2363.87 558.391 2355.91 535.477C2352.5 525.637 2349.71 523.724 2338.98 523.691C2321.65 523.638 2304.33 523.677 2286 523.676ZM2314.14 412.938C2299.98 372.822 2285.82 332.706 2271.03 290.813C2269.28 294.022 2268.5 295.076 2268.09 296.258C2248.33 353.06 2228.59 409.864 2208.96 466.706C2207.92 469.699 2207.83 473.017 2207.2 476.772C2210.88 477.906 2213.65 479.468 2216.44 479.5C2230.08 479.657 2243.73 479.48 2257.37 479.275C2267.33 479.125 2277.28 478.465 2287.23 478.544C2299.51 478.641 2311.78 479.432 2324.05 479.551C2327.2 479.582 2330.35 478.213 2333.63 477.458C2333.9 475.132 2334.66 473.336 2334.2 471.952C2327.73 452.758 2321.1 433.621 2314.14 412.938Z" fill="#9595C9"/>
<path d="M3885.61 519.31C3889.08 504.863 3890.32 490.998 3890.32 477.001C3890.33 402.025 3890.32 327.049 3890.33 252.073C3890.33 249.075 3890.12 246.047 3890.46 243.083C3891.52 233.782 3895.72 229.21 3905.11 228.542C3913.7 227.931 3922.41 227.927 3931 228.554C3940.27 229.232 3943.72 233.41 3944.31 242.761C3944.43 244.753 3944.35 246.759 3944.35 248.758C3944.35 331.398 3944.98 414.045 3944.09 496.676C3943.61 541.29 3926.24 578.825 3889.58 605.876C3872.45 618.521 3852.87 626.172 3831.95 629.544C3794.5 635.581 3757.71 632.724 3722.27 618.47C3692.71 606.58 3672 585.538 3659.61 556.23C3649.62 532.583 3645.79 507.709 3645.72 482.275C3645.53 405.633 3645.64 328.991 3645.66 252.349C3645.67 236.759 3646.49 228.134 3668.54 228.142C3674.51 228.145 3680.52 227.961 3686.45 228.461C3696.27 229.289 3700.64 233.845 3701.58 243.643C3701.84 246.286 3701.67 248.971 3701.67 251.636C3701.68 325.946 3701.63 400.255 3701.71 474.564C3701.73 490.884 3703.23 507.019 3708.05 522.786C3718.56 557.2 3741.7 576.749 3777.02 582.231C3793.25 584.751 3809.59 585.01 3825.5 580.85C3854.34 573.312 3873.66 555.083 3883.29 526.764C3884.04 524.559 3884.73 522.335 3885.61 519.31Z" fill="#9696C9"/>
<path d="M470.436 294.409C479.332 278.731 488.231 263.883 496.315 248.605C505.521 231.205 530.959 221.764 550.88 228.967C560.491 232.443 563.156 239.072 558.074 248.482C550.965 261.644 543.238 274.477 535.66 287.383C510.903 329.545 486.23 371.758 461.182 413.747C456.602 421.425 457.283 427.805 461.562 435.089C492.565 487.856 523.419 540.71 554.232 593.589C557.906 599.895 561.432 606.346 564.316 613.036C567.116 619.531 565.074 624.373 558.258 626.215C534.312 632.687 513.45 632.788 498.074 607.625C482.65 582.384 468.592 556.306 454 530.558C443.343 511.753 432.807 492.88 422.166 474.066C420.888 471.808 419.285 469.734 417.337 466.839C415.286 469.912 413.551 472.188 412.153 474.655C388.71 516.031 365.336 557.445 341.863 598.804C339.08 603.707 335.988 608.461 332.724 613.062C324.36 624.852 312.693 630.323 298.396 629.563C291.826 629.214 285.176 628.198 278.819 626.514C270.154 624.219 268.036 619.58 272.053 611.614C276.54 602.716 281.699 594.146 286.791 585.567C316.164 536.085 345.479 486.567 375.134 437.254C380.524 428.291 379.379 420.702 374.309 412.303C360.384 389.238 346.779 365.979 333.138 342.744C315.962 313.489 298.805 284.224 281.778 254.883C271.137 236.546 274.735 229.673 295.706 228.027C301.004 227.612 306.389 227.39 311.669 227.84C326.82 229.13 337.551 237.212 344.936 250.266C367.367 289.918 389.847 329.543 412.383 369.136C414.287 372.482 416.744 375.513 419.856 380.008C422.969 375.717 425.518 372.788 427.423 369.487C441.713 344.716 455.876 319.871 470.436 294.409Z" fill="#9696C9"/>
<path d="M868.147 306.081C878.101 339.888 877.417 372.632 863.535 404.277C847.269 441.356 817.797 463.262 778.93 471.985C762.881 475.587 746.118 476.262 729.623 477.53C719.357 478.32 708.975 477.461 698.664 477.843C690.121 478.159 686.896 481.731 686.372 490.241C686.23 492.564 686.344 494.902 686.344 497.234C686.343 533.871 686.364 570.508 686.333 607.146C686.321 622.355 681.132 627.582 666.096 627.665C659.101 627.704 652.098 627.89 645.115 627.605C635.52 627.215 630.555 622.289 629.739 612.74C629.513 610.094 629.658 607.414 629.658 604.75C629.656 490.842 629.647 376.933 629.688 263.024C629.689 258.042 629.75 253 630.487 248.092C631.794 239.385 636.579 233.423 645.636 231.833C649.858 231.092 654.161 230.41 658.43 230.393C688.405 230.27 718.395 229.775 748.353 230.505C771.99 231.08 795.434 234.192 816.881 245.295C842.013 258.305 858.661 278.721 868.147 306.081ZM719.018 277.663C712.691 277.663 706.363 277.599 700.037 277.678C689.006 277.816 686.396 280.225 686.373 291.179C686.282 333.47 686.271 375.762 686.379 418.054C686.408 429.248 690.882 432.475 702.206 431.152C708.774 430.384 715.643 429.548 722.051 430.647C733.164 432.551 744.04 430.872 754.587 428.883C764.165 427.076 773.898 423.35 782.252 418.301C807.225 403.207 815.766 378.871 816.236 351.232C816.985 307.097 789.126 278.625 744.988 277.689C736.999 277.52 729.004 277.664 719.018 277.663Z" fill="#9696C9"/>
<path d="M1676.36 150.242C1615.32 211.279 1554.71 271.735 1494.33 332.416C1484.11 342.686 1478.57 347.026 1466.62 331.577C1462.79 326.617 1457.8 322.547 1453.47 318.197C1446.23 326.426 1439.19 334.638 1431.89 342.609C1429.22 345.529 1426.1 348.135 1422.88 350.442C1413.9 356.856 1404.33 355.687 1396.97 347.553C1390.61 340.52 1390.72 331.276 1397.4 323.128C1407.38 310.952 1418.27 299.894 1435.52 294.236C1429.86 289.712 1425.38 286.113 1420.88 282.545C1419.31 281.307 1417.67 280.177 1416.1 278.941C1405.54 270.612 1405.43 267.57 1415.44 259.009C1437.19 240.412 1457.68 220.554 1477.66 200.043C1516.47 160.202 1556.17 121.229 1595.5 81.8961C1599.26 78.1421 1602.76 74.0926 1606.81 70.6921C1614.88 63.9181 1622.28 63.8715 1630.1 70.7873C1634.81 74.9545 1638.71 80.0237 1643.15 84.5099C1654.87 96.3432 1666.28 108.525 1678.59 119.717C1688.92 129.114 1689.09 139.877 1678.29 148.327C1677.77 148.734 1677.34 149.263 1676.36 150.242Z" fill="#9696C9"/>
<path d="M2616 230.317C2639 230.317 2661 230.277 2683 230.331C2699.22 230.37 2704.25 235.502 2704.34 251.973C2704.36 255.635 2704.5 259.337 2704.04 262.952C2702.78 272.827 2697.52 277.902 2687.53 278.236C2676.55 278.603 2665.54 278.416 2654.54 278.326C2636.55 278.178 2618.57 278.002 2600.58 277.67C2587.32 277.425 2583.71 280.611 2583.7 293.711C2583.67 396.705 2583.68 499.699 2583.71 602.693C2583.71 607.013 2584.21 611.331 2584.3 615.654C2584.39 620.572 2582.04 624.067 2577.3 625.35C2564.61 628.781 2551.78 630.144 2538.92 626.363C2529.78 623.677 2528.35 621.66 2528.34 612.164C2528.29 570.5 2528.32 528.836 2528.32 487.172C2528.32 429.175 2528.3 371.178 2528.36 313.182C2528.36 309.224 2529.2 305.269 2529.25 301.307C2529.31 297.37 2529.3 293.336 2528.53 289.504C2526.86 281.227 2523.37 278.253 2514.93 277.825C2510.3 277.59 2505.63 278.3 2500.97 278.311C2476.31 278.369 2451.64 278.438 2426.98 278.302C2414.53 278.233 2409.45 273.639 2408.19 261.188C2407.65 255.937 2407.72 250.518 2408.36 245.279C2409.55 235.575 2414.34 231.256 2424.01 230.383C2426.66 230.145 2429.34 230.319 2432.01 230.318C2493.01 230.317 2554 230.317 2616 230.317Z" fill="#9595C8"/>
<path d="M1158.17 590.512C1158.39 598.529 1159.35 605.879 1158.3 612.924C1156.81 622.834 1152.61 625.901 1142.86 626.313C1129.57 626.873 1116.28 627.582 1102.99 627.612C1065.69 627.696 1028.39 627.512 991.097 627.314C984.509 627.279 977.916 626.786 971.34 626.296C959.112 625.386 952.967 619.731 951.743 607.798C950.932 599.889 950.381 591.913 950.375 583.967C950.288 474.972 950.299 365.977 950.372 256.983C950.375 252.037 950.96 247.059 951.671 242.154C952.956 233.287 955.575 229.514 963.764 228.812C974.305 227.909 985.037 228.046 995.592 228.899C1002.59 229.464 1006.54 234.624 1007.51 241.756C1007.91 244.705 1007.68 247.744 1007.68 250.742C1007.68 352.404 1007.68 454.066 1007.69 555.728C1007.69 574.912 1010.42 577.799 1029.49 577.595C1039.78 577.486 1050.06 576.352 1060.34 576.41C1076.62 576.503 1092.9 577.36 1109.19 577.576C1115.13 577.655 1121.09 576.427 1127.03 576.517C1133.63 576.618 1140.31 577.055 1146.79 578.249C1152.81 579.359 1156.48 583.716 1158.17 590.512Z" fill="#9595C8"/>
<path d="M3489.66 528C3489.66 434.699 3489.66 342.398 3489.67 250.096C3489.67 247.098 3489.7 244.099 3489.72 241.101C3489.76 236.172 3492.35 232.422 3496.68 231.085C3509.89 227.006 3523.33 225.521 3536.8 230.212C3543.52 232.554 3546.5 236.771 3546.49 244.46C3546.27 365.417 3546.34 486.375 3546.32 607.333C3546.32 609.656 3546.2 612.005 3545.86 614.298C3544.41 623.807 3541.01 628.114 3532.11 628.426C3522.25 628.771 3512.35 628.722 3502.48 628.325C3494.91 628.021 3491.51 622.779 3490.43 615.913C3489.86 612.315 3489.7 608.624 3489.7 604.973C3489.64 579.649 3489.66 554.324 3489.66 528Z" fill="#9797CB"/>
<path d="M1629.94 334.378C1622.15 312.779 1611.18 293.953 1596.38 277.399C1595.27 276.16 1594.12 274.939 1593.19 273.572C1588.75 267.044 1588.98 261.156 1594.83 255.757C1603.11 248.11 1611.64 240.684 1620.48 233.701C1628.62 227.28 1633.14 227.791 1640.19 235.659C1667.07 265.699 1685.53 300.127 1693.92 339.758C1697.66 357.404 1698.93 375.223 1698.34 393.208C1698.04 402.101 1694.89 406.29 1686.2 407.305C1674.03 408.726 1661.78 409.72 1649.54 410.22C1640.58 410.586 1638.69 408.288 1638.35 399.028C1638.1 392.388 1638.11 385.738 1637.88 379.097C1637.37 364.088 1634.39 349.504 1629.94 334.378Z" fill="#9595C9"/>
<path d="M1674.17 425.646C1696.56 425.114 1712.64 434.493 1721.33 453.843C1730.28 473.774 1728.4 493.454 1714 510.771C1701.37 525.953 1675.06 530.913 1655.33 522.429C1631.91 512.357 1622.04 491.987 1626.23 465.301C1629.57 444.03 1647.88 426.301 1674.17 425.646ZM1663.75 450.351C1660.47 453.136 1656.93 455.668 1653.96 458.755C1646.3 466.734 1644.88 476.142 1648.61 486.382C1652.93 498.228 1666.57 506.92 1678.48 505.563C1692.66 503.948 1702.32 494.719 1704.42 480.801C1707.85 458.001 1687.41 441.855 1663.75 450.351Z" fill="#9494C6"/>
<path d="M1305.87 51.5325C1308.92 55.7808 1311.76 59.3157 1314.75 63.0378C1282.45 71.0303 1282.45 71.0303 1271.22 86.6841C1268.37 80.391 1266.84 73.1586 1262.51 68.5388C1258.12 63.8479 1250.97 61.7349 1244.78 58.3515C1248.94 53.6146 1254.24 48.5635 1258.33 42.6725C1262.41 36.7831 1265.28 30.0536 1269.02 23.0779C1281.95 34.3417 1295.83 30.4286 1310.47 24.275C1309.59 34.0977 1301.41 41.454 1305.87 51.5325Z" fill="#C6D52E"/>
<path d="M1433.13 107.641C1428.19 117.558 1428.15 126.188 1437.2 134.091C1434.9 135.784 1433.16 138.17 1431.53 138.094C1417.07 137.419 1407.11 145.09 1398.32 155.21C1397.68 155.953 1396.85 156.546 1396.06 157.145C1395.82 157.325 1395.42 157.288 1395.29 157.312C1392.58 151.469 1391.17 144.32 1386.85 140.259C1382.4 136.071 1375.12 134.888 1368.52 132.157C1370.3 128.526 1374.17 126.562 1377.58 124.323C1385.19 119.32 1390.83 113.414 1390.39 103.389C1390.29 101.19 1392.16 98.9059 1393.78 95.1343C1406.76 108.515 1420.86 102.57 1435.83 99.2686C1434.73 102.869 1434.12 104.903 1433.13 107.641Z" fill="#C6D52E"/>
<path d="M1247.82 219.095C1250.72 218.241 1252.91 217.723 1255.7 217.062C1253.8 224.918 1250.43 231.954 1250.95 238.691C1251.47 245.453 1255.86 251.917 1258.48 258.313C1239.83 259.845 1239.28 260.113 1222.37 276.682C1218.15 262.005 1212.43 248.889 1191.42 250.691C1198.44 244.119 1203.71 239.53 1208.57 234.549C1214.04 228.956 1214.68 221.603 1214.29 213.013C1220.3 215.654 1225.07 218.792 1230.25 219.741C1235.67 220.735 1241.47 219.623 1247.82 219.095Z" fill="#C6D52E"/>
<path d="M1380.47 365.192C1388.05 374.189 1387.36 382.582 1381.19 391.239C1373.75 401.677 1365.17 410.86 1353.45 416.416C1343.42 421.164 1332.84 416.719 1330.29 406.601C1328.82 400.784 1328.35 394.449 1332.92 389.545C1340.83 381.064 1348.52 372.24 1357.35 364.809C1364.01 359.199 1372.3 360.568 1380.47 365.192Z" fill="#9595C8"/>
</g>
<defs>
<clipPath id="clip0_432_2">
<rect width="4474" height="694" fill="white"/>
</clipPath>
</defs>
</svg>
