<svg width="227.393" height="72.071" viewBox="0 0 227.393 72.071" xmlns="http://www.w3.org/2000/svg"><g id="svgGroup" stroke-linecap="round" fill-rule="evenodd" font-size="9pt" stroke="#ffffff" stroke-width="0.25mm" fill="#ffffff" style="stroke:#ffffff;stroke-width:0.25mm;fill:#ffffff"><path d="M 0 0 L 7.373 0 L 28.906 62.549 L 50.537 0 L 57.91 0 L 57.91 71.094 L 52.344 71.094 L 52.344 40.283 L 52.832 9.277 L 31.055 71.094 L 26.758 71.094 L 5.078 9.57 L 5.566 40.088 L 5.566 71.094 L 0 71.094 L 0 0 Z M 169.189 0 L 169.189 71.094 L 163.623 71.094 L 130.078 10.547 L 130.078 71.094 L 124.463 71.094 L 124.463 0 L 130.078 0 L 163.672 60.645 L 163.672 0 L 169.189 0 Z M 107.91 31.885 L 107.91 37.061 L 80.322 37.061 L 80.322 65.918 L 112.061 65.918 L 112.061 71.094 L 74.756 71.094 L 74.756 0 L 111.816 0 L 111.816 5.273 L 80.322 5.273 L 80.322 31.885 L 107.91 31.885 Z M 221.777 0 L 227.393 0 L 227.393 50.439 A 31.19 31.19 0 0 1 226.745 56.838 Q 225.498 62.645 221.851 66.406 A 17.839 17.839 0 0 1 213.442 71.206 Q 210.198 72.07 206.25 72.07 A 30.044 30.044 0 0 1 200.043 71.469 Q 196.261 70.67 193.393 68.809 A 16.452 16.452 0 0 1 190.552 66.479 A 17.935 17.935 0 0 1 186.304 59.113 Q 185.107 55.234 185.107 50.244 L 185.107 0 L 190.674 0 L 190.674 50.049 A 26.42 26.42 0 0 0 191.393 56.51 Q 193.52 64.917 201.94 66.518 A 23.098 23.098 0 0 0 206.25 66.895 A 20.595 20.595 0 0 0 212.559 66.011 Q 219.219 63.868 221.068 56.527 A 25.837 25.837 0 0 0 221.777 50.537 L 221.777 0 Z" vector-effect="non-scaling-stroke"/></g></svg>