<svg xmlns:xlink="http://www.w3.org/1999/xlink" width="58" height="60" viewBox="0 0 58 60" fill="none" xmlns="http://www.w3.org/2000/svg">
<path d="M22.435 25.1142C22.5587 23.3457 22.6 21.5773 22.8474 19.8088C23.5485 14.8403 22.9711 9.92797 20.9916 5.09982C20.5379 3.94892 20.2492 2.74189 20.0018 1.53485C19.8781 0.861153 20.0843 0.159387 21.3215 0.0190338C22.3938 -0.0932487 23.1773 0.29974 23.5898 0.973435C23.9609 1.56292 24.2909 2.20854 24.4558 2.8261C24.8682 4.28577 25.4456 5.77351 25.5281 7.23319C25.7755 11.8087 27.7551 16.0474 30.1059 20.258C30.7657 21.465 31.3018 22.7562 32.0854 23.9352C33.2814 25.7598 33.3639 25.8159 35.9621 25.03C38.8077 24.1598 41.5709 23.1212 44.3753 22.1668C46.1899 21.5492 48.0045 20.8474 49.8603 20.3141C50.3552 20.1737 51.4687 20.286 51.6749 20.5106C52.0049 20.9036 52.1698 21.6896 51.7987 21.9983C49.8603 23.7106 47.6745 25.2545 45.7775 26.9668C43.5504 28.9599 41.5296 31.0652 39.4676 33.1424C38.6015 33.9845 38.684 34.8266 39.3851 35.781C42.3957 39.8793 45.9424 43.725 49.8191 47.4584C51.4687 49.0304 53.6957 50.3216 55.6753 51.7251C56.129 52.062 56.7476 52.3146 57.2012 52.6795C58.0261 53.4094 58.3147 54.9813 57.5724 55.2901C56.2939 55.8234 55.2629 55.2059 54.3968 54.6164C50.4789 51.9778 46.1899 49.6479 41.5709 47.5988C38.4778 46.2233 35.3435 44.8759 32.2091 43.5285C30.9307 42.9671 30.3121 43.0232 29.5697 43.9215C28.1675 45.5215 26.9303 47.1777 25.6518 48.8339C23.7135 51.2479 23.3836 53.9708 22.3938 56.5814C22.0226 57.5638 21.5277 58.5463 20.8266 59.4446C20.5792 59.7533 19.5481 60.0902 19.1357 59.9779C18.5171 59.8095 17.651 59.2481 17.651 58.8831C17.7335 57.5919 17.816 56.1884 18.5584 55.0375C21.404 50.6304 21.6102 45.9707 21.6102 41.2829C21.6102 39.0091 21.4452 38.8407 18.1047 38.2512C15.7127 37.8302 13.3207 37.4933 10.8875 37.1845C10.1039 37.1003 9.11415 37.0442 8.49553 37.2688C6.88713 37.8582 5.73238 37.5495 4.41267 36.8477C3.58784 36.4266 2.35061 36.3986 1.31959 36.2021C-0.0413689 35.9214 -0.45378 34.8828 0.577247 34.2652C2.02068 33.395 3.75281 32.8055 5.69114 32.609C6.18603 32.5529 6.72217 32.6652 7.21706 32.7213C7.05209 33.0301 6.80465 33.3389 6.68092 33.6757C6.59844 33.9003 6.43348 34.2652 6.5572 34.3775C6.80465 34.5459 7.38202 34.6582 7.67071 34.574C10.1864 33.8441 12.7021 33.1143 15.1766 32.3283C16.785 31.8231 18.3109 31.1774 19.9193 30.6722C21.3215 30.2511 22.1051 29.6055 22.1876 28.5669C22.27 27.444 22.3938 26.3212 22.5175 25.1984C22.5175 25.1422 22.4763 25.1142 22.435 25.1142ZM24.9507 34.6021C24.9095 34.6021 24.9095 34.6021 24.8682 34.6021C24.8682 35.1635 24.9507 35.7249 24.8682 36.2863C24.662 37.4372 25.1982 38.2793 26.8066 38.7846C27.3015 38.9249 27.7551 39.1776 28.2088 39.3741C29.1985 39.767 30.0234 39.6828 30.642 38.9811C31.838 37.6337 33.1164 36.3144 34.2712 34.9389C34.5599 34.574 34.7248 34.0126 34.5599 33.6196C33.9413 32.3003 33.1989 30.9809 32.4566 29.6897C32.1267 29.1002 31.3843 28.8756 30.477 29.1283C26.1055 30.3072 24.3321 30.9529 24.992 34.0687C24.9507 34.2371 24.9507 34.4336 24.9507 34.6021ZM44.9939 45.9987C44.4577 45.4373 43.8391 44.8198 43.303 44.1741C41.5296 42.1811 39.7563 40.1881 37.9417 38.2232C37.488 37.7179 36.9519 37.2126 36.4157 36.7354C35.7971 37.2126 35.1785 37.6618 34.6424 38.167C33.9825 38.7565 33.4464 39.4021 32.8278 40.0197C32.2091 40.6653 32.2091 41.2267 33.2814 41.6759C36.8694 43.2197 40.4161 44.8198 44.0041 46.3636C44.1691 46.4479 44.499 46.3636 44.7464 46.3075C44.8289 46.3075 44.8702 46.1672 44.9939 45.9987ZM25.1569 26.0124C24.992 26.0405 24.827 26.0686 24.662 26.0686C25.0744 26.8265 25.2806 27.7528 26.0642 28.23C26.4766 28.4546 27.9613 27.809 28.9923 27.5563C29.2398 27.5002 29.5697 27.416 29.6934 27.2756C29.9821 26.9107 30.5183 26.4335 30.3945 26.1528C29.2398 23.9633 27.9613 21.8018 26.7241 19.6404C26.6416 19.5001 26.1879 19.3036 26.1467 19.3316C25.858 19.472 25.4868 19.6685 25.4456 19.865C25.2806 21.9141 25.1982 23.9633 25.1569 26.0124ZM37.0343 31.3459C37.2818 31.2616 37.6117 31.2336 37.7354 31.1213C39.6325 29.2967 41.4884 27.4721 43.303 25.6475C43.4267 25.5352 43.3442 25.1984 43.2618 25.1423C42.9318 25.03 42.4782 24.9177 42.2307 25.0019C40.0037 25.7317 37.8179 26.4616 35.6734 27.2756C35.1785 27.4721 34.6424 28.0616 34.7661 28.3704C35.1373 29.3248 35.7559 30.2511 36.3745 31.1774C36.3745 31.2897 36.7869 31.2897 37.0343 31.3459ZM22.3525 33.8441C22.3525 33.5915 22.3525 33.395 22.3525 33.2266C22.3113 32.188 21.6927 31.9353 20.2492 32.4406C18.5584 33.0301 16.8675 33.6477 15.2178 34.3213C14.6817 34.5459 14.228 34.9108 13.7744 35.1915C14.3518 35.388 14.9291 35.6407 15.589 35.781C16.8675 36.0617 18.1872 36.3144 19.5069 36.567C21.239 36.8758 21.6514 36.6793 22.0226 35.4722C22.1463 34.8828 22.2288 34.3213 22.3525 33.8441ZM24.662 43.5285C24.6208 43.4724 24.9507 44.0057 25.3219 44.5391C25.8993 44.0619 26.5591 43.6408 27.0953 43.1355C27.3839 42.8548 27.5489 42.4618 27.6726 42.0969C27.9201 41.4513 27.054 40.6934 25.8168 40.5811C24.5383 40.4969 24.7033 41.1987 24.7033 41.732C24.6208 42.125 24.662 42.4899 24.662 43.5285Z" fill="#EB6262"/>
</svg>