<svg xmlns:xlink="http://www.w3.org/1999/xlink" width="193" height="61" viewBox="0 0 193 61" fill="none" xmlns="http://www.w3.org/2000/svg">
<path d="M134.239 24.6508C129.406 24.6027 127.636 22.4375 128.545 18.3959C128.832 17.1449 129.406 15.9901 129.694 14.7392C129.789 14.3542 129.694 13.6806 129.406 13.4882C129.119 13.2476 128.497 13.2957 128.114 13.4401C120.028 16.8081 112.228 20.8979 105.146 26.0943C96.7718 32.1567 88.1586 37.8824 79.0668 42.8382C77.392 43.7524 75.5737 44.3298 73.7553 44.9553C72.559 45.3402 71.6499 44.5222 71.4585 43.2231C71.2671 41.8278 71.8413 40.7693 72.7026 39.7589C75.7651 36.054 78.7319 32.3011 81.7943 28.6443C83.9477 26.0943 86.2924 23.6885 88.4457 21.1384C88.8763 20.6573 88.8285 19.7912 88.972 19.0695C88.3978 19.0695 87.7758 18.9733 87.2494 19.1657C75.9565 23.5442 65.3335 29.2217 55.3804 36.1984C49.0162 40.673 42.6519 45.1958 36.2877 49.6705C31.9811 52.6536 27.6745 55.6367 23.2721 58.4755C21.6931 59.4859 19.8747 60.2076 18.1042 60.8812C16.9558 61.3624 15.8073 60.3039 16.1423 59.101C16.4294 58.2349 16.8601 57.2726 17.4821 56.6471C21.1188 52.8461 24.8991 49.1894 28.5836 45.4364C35.3307 38.4116 42.0299 31.3388 48.6812 24.2659C48.8726 24.0734 48.9683 23.4479 48.8726 23.3998C48.4898 23.2074 47.9634 22.8706 47.6285 23.0149C43.5133 24.6508 39.3024 26.1424 35.2828 28.1151C25.5212 32.8303 16.4773 38.7484 7.52905 44.8109C6.47632 45.5326 5.56715 46.3987 4.51442 47.1685C4.03591 47.5535 3.50954 48.0346 2.93533 48.1789C1.8826 48.4195 0.494906 48.7082 0.0642441 47.361C-0.175013 46.6393 0.303501 45.5807 0.686312 44.7628C0.925568 44.2335 1.59549 43.8486 2.12185 43.5599C7.67261 40.7693 12.9363 37.5937 18.1042 34.1775C21.2624 32.1086 24.8034 30.617 28.1051 28.7887C34.1344 25.4688 40.7379 23.2074 47.1021 20.4167C49.399 19.4063 51.6959 18.3959 54.0884 17.5298C54.6626 17.3374 55.7154 17.5779 56.146 18.011C56.5288 18.444 56.5767 19.4544 56.3853 20.128C56.146 20.8497 55.524 21.4752 54.9976 22.0526C48.0113 29.4623 40.9771 36.9201 33.943 44.2816C32.1725 46.11 30.3063 47.8421 28.5358 49.6705C28.2487 49.9592 28.153 50.4885 28.0094 50.9215C28.4401 50.9215 29.0143 51.0658 29.3014 50.8734C32.2203 48.9488 35.235 47.1204 37.9625 44.9553C45.0924 39.3739 52.6529 34.3219 60.4048 29.7029C65.477 26.7197 70.4536 23.5442 75.7172 20.946C81.6986 18.011 87.9672 15.6533 94.0921 13.0551C94.8099 12.7665 95.6234 12.574 96.389 12.5259C97.4896 12.4778 98.4466 13.9212 97.8724 14.9316C97.4417 15.7496 96.8197 16.5675 96.1976 17.2411C91.0297 23.1111 85.8617 28.9811 80.7416 34.8993C79.9281 35.8134 79.4018 36.9682 78.7319 38.0267C80.3588 38.7966 81.3637 37.5456 82.4643 36.8239C87.9672 33.3115 93.4222 29.751 98.8773 26.1905C103.806 22.9668 108.495 19.3101 113.615 16.5194C119.932 13.1033 126.583 10.4088 133.139 7.52195C133.857 7.18514 135.101 7.3776 135.771 7.81063C136.776 8.43613 136.967 9.68711 136.393 10.7938C135.771 12.0929 135.005 13.2957 134.383 14.5948C134 15.4609 133.665 16.3751 133.474 17.2892C133.043 19.4063 133.761 20.2724 136.01 20.1761C137.445 20.128 138.881 19.9356 140.221 19.4544C144.719 17.8666 149.217 16.2788 153.619 14.4505C162.28 10.8419 170.846 7.0408 179.507 3.4803C182.761 2.13309 186.158 1.26702 189.508 0.256612C190.082 0.0641531 190.848 -0.128306 191.374 0.112268C192.044 0.400957 192.666 1.02645 192.953 1.70006C193.144 2.08497 192.714 2.95104 192.331 3.33596C191.757 3.86522 190.991 4.25014 190.273 4.4426C176.827 8.05121 164.434 14.258 151.657 19.5506C146.968 21.5234 142.278 23.4961 137.206 24.314C135.914 24.4584 134.67 24.6027 134.239 24.6508Z" fill="#EB6262"/>
</svg>