<svg width="597" height="671" viewBox="0 0 597 671" fill="none" xmlns="http://www.w3.org/2000/svg">
<g clip-path="url(#clip0_481_34)">
<mask id="mask0_481_34" style="mask-type:luminance" maskUnits="userSpaceOnUse" x="-1148" y="-667" width="4474" height="1338">
<path d="M3326 -667H-1148V671H3326V-667Z" fill="white"/>
</mask>
<g mask="url(#mask0_481_34)">
<path d="M84.9101 673C83.6001 671.88 83.52 670.11 82.76 669.74C73.98 665.51 71.7401 657.92 71.6501 649.06C71.4201 626.67 79.97 607.5 93.89 590.64C113.78 566.57 139.15 553.38 170.85 552.55C190.72 552.04 210.57 550.38 232.79 549.09C228.89 546.25 226.77 544.47 224.44 543.05C204.78 531.03 185.87 518.03 170.34 500.77C166.61 496.63 163.01 492.13 160.4 487.23C151.71 470.89 137.98 462.99 119.91 462.77C101.93 462.56 83.94 463.28 65.96 463.29C48.64 463.29 31.32 462.94 14.01 462.66C4.37004 462.5 0.150061 459.05 -0.339939 451.25C-1.04994 439.96 2.39004 434.77 12.01 433.13C14.94 432.64 17.99 432.68 20.98 432.68C116.64 432.66 212.3 432.66 307.96 432.67C310.62 432.68 313.32 432.6 315.94 432.96C325.62 434.29 330.19 439.77 329.67 449.17C329.2 457.78 324.23 462.53 314.41 462.6C285.75 462.79 257.08 462.67 228.42 462.67C225.23 462.68 222.05 462.67 218.86 462.67C218.66 463.29 218.46 463.91 218.26 464.52C221.8 467.79 225.25 471.14 228.88 474.3C256.51 498.42 288.47 510.49 325.34 511.54C370.3 512.82 407.77 496.74 440 466.45C441.92 464.64 444.01 462.79 446.36 461.69C450.69 459.68 454.98 460 457.76 464.45C463.92 474.33 470.31 484.1 475.79 494.35C481.07 504.2 479.9 511.26 471.2 518.13C460.27 526.77 448.49 534.34 437.05 542.33C433.89 544.54 430.64 546.61 425.42 550.08C430.28 551.31 432.91 552.44 435.59 552.58C450.85 553.4 466.11 554.39 481.38 554.52C491.31 554.6 501.25 553.36 511.18 552.66C522.55 551.85 532.97 555.06 542.65 560.63C567.86 575.13 585.69 595.76 594.4 623.86C597.83 634.9 598.55 646.17 595.42 657.14C593.87 662.58 589.52 667.21 587.22 672.6C579.95 673 571.9 673 563.71 672.61C556.68 664.62 552.25 655.98 552.33 645.47C552.54 619.43 528.23 597.12 501.47 597.17C473.57 597.22 445.67 595.97 417.77 595.35C386.21 594.64 354.65 593.77 323.08 593.38C273.23 592.77 223.39 593.41 173.62 596.7C162.95 597.41 152.54 598.88 143.28 604.99C128.22 614.93 119.69 629.3 116.47 646.51C114.66 656.17 111.5 664.26 103.67 670.33C103.31 670.61 103.87 672.08 104 673C97.94 673 91.8801 673 84.9101 673Z" fill="#CADA2B"/>
<path d="M528.36 127.242C467.32 188.279 406.71 248.735 346.33 309.415C336.11 319.686 330.57 324.026 318.62 308.577C314.79 303.617 309.8 299.547 305.47 295.197C298.23 303.426 291.19 311.637 283.89 319.609C281.22 322.529 278.1 325.135 274.88 327.442C265.9 333.86 256.33 332.687 248.97 324.553C242.61 317.52 242.72 308.276 249.4 300.128C259.38 287.952 270.27 276.894 287.52 271.236C281.86 266.711 277.38 263.113 272.88 259.545C271.31 258.307 269.67 257.176 268.1 255.941C257.54 247.611 257.43 244.57 267.44 236.009C289.19 217.412 309.68 197.554 329.66 177.043C368.47 137.202 408.17 98.2287 447.5 58.8957C451.26 55.1417 454.76 51.0927 458.81 47.6917C466.88 40.9177 474.28 40.8707 482.1 47.7867C486.81 51.9537 490.71 57.0237 495.15 61.5097C506.87 73.3427 518.28 85.5247 530.59 96.7167C540.92 106.114 541.09 116.877 530.29 125.326C529.77 125.734 529.34 126.263 528.36 127.242Z" fill="#CADA2B"/>
<path d="M481.94 311.378C474.15 289.779 463.18 270.953 448.38 254.398C447.27 253.16 446.11 251.939 445.19 250.572C440.75 244.044 440.98 238.156 446.83 232.757C455.11 225.11 463.64 217.684 472.48 210.701C480.62 204.28 485.14 204.791 492.19 212.659C519.07 242.699 537.53 277.127 545.92 316.757C549.66 334.4 550.93 352.22 550.34 370.21C550.04 379.1 546.89 383.29 538.2 384.3C526.03 385.73 513.78 386.72 501.54 387.22C492.57 387.59 490.69 385.29 490.35 376.03C490.1 369.39 490.1 362.74 489.88 356.1C489.37 341.09 486.39 326.504 481.94 311.378Z" fill="#CADA2B"/>
<path d="M526.17 402.65C548.56 402.11 564.64 411.49 573.33 430.84C582.28 450.77 580.4 470.45 566 487.77C553.37 502.95 527.06 507.91 507.33 499.43C483.91 489.36 474.04 468.99 478.23 442.3C481.57 421.03 499.88 403.3 526.17 402.65ZM515.75 427.35C512.47 430.14 508.93 432.67 505.96 435.76C498.3 443.73 496.88 453.14 500.61 463.38C504.93 475.23 518.57 483.92 530.48 482.56C544.66 480.95 554.32 471.72 556.42 457.8C559.85 435 539.41 418.85 515.75 427.35Z" fill="#CADA2B"/>
<path d="M157.87 28.5321C160.92 32.7811 163.76 36.3161 166.75 40.0381C134.45 48.0301 134.45 48.0301 123.22 63.6841C120.37 57.3911 118.84 50.1591 114.51 45.5391C110.12 40.8481 102.97 38.7351 96.78 35.3521C100.94 30.6151 106.24 25.5641 110.33 19.6721C114.41 13.7831 117.28 7.05412 121.02 0.078125C133.95 11.3421 147.83 7.42915 162.47 1.27515C161.59 11.0981 153.41 18.4541 157.87 28.5321Z" fill="#B8C24E"/>
<path d="M285.13 84.6408C280.19 94.5578 280.15 103.188 289.2 111.091C286.9 112.784 285.16 115.17 283.53 115.094C269.07 114.419 259.11 122.09 250.32 132.21C249.68 132.953 248.85 133.546 248.06 134.145C247.82 134.325 247.42 134.288 247.29 134.312C244.58 128.469 243.17 121.32 238.85 117.259C234.4 113.071 227.12 111.888 220.52 109.157C222.3 105.526 226.17 103.562 229.58 101.323C237.19 96.3198 242.83 90.4138 242.39 80.3888C242.29 78.1898 244.16 75.9058 245.78 72.1338C258.76 85.5148 272.86 79.5698 287.83 76.2688C286.73 79.8688 286.12 81.9028 285.13 84.6408Z" fill="#B8C24E"/>
<path d="M99.8199 196.095C102.72 195.241 104.91 194.723 107.7 194.062C105.8 201.918 102.43 208.954 102.95 215.691C103.47 222.453 107.86 228.917 110.48 235.313C91.83 236.845 91.28 237.113 74.37 253.682C70.15 239.005 64.43 225.889 43.42 227.691C50.44 221.12 55.7099 216.53 60.5699 211.549C66.0399 205.956 66.68 198.603 66.29 190.013C72.3 192.654 77.07 195.792 82.25 196.741C87.67 197.735 93.4699 196.624 99.8199 196.095Z" fill="#B8C24E"/>
<path d="M232.47 342.19C240.05 351.19 239.36 359.58 233.19 368.24C225.75 378.68 217.17 387.86 205.45 393.42C195.42 398.16 184.84 393.72 182.29 383.6C180.82 377.78 180.35 371.45 184.92 366.55C192.83 358.06 200.52 349.24 209.35 341.81C216.01 336.2 224.3 337.57 232.47 342.19Z" fill="#CADA2B"/>
</g>
</g>
<defs>
<clipPath id="clip0_481_34">
<rect width="597" height="671" fill="white"/>
</clipPath>
</defs>
</svg>
