<svg xmlns:xlink="http://www.w3.org/1999/xlink" width="248" height="17" viewBox="0 0 248 17" fill="none" xmlns="http://www.w3.org/2000/svg">
<path d="M4.56533 6.64239C4.06481 5.51659 3.24524 4.35117 3.3023 3.15822C3.3395 2.68555 5.2737 2.20293 6.37153 1.82103C6.78538 1.70877 7.39189 1.83861 7.92654 1.9459C24.4803 4.4783 41.2138 3.55566 57.873 3.57836C80.6141 3.63337 103.298 3.36759 125.976 3.52385C144.994 3.62132 164.062 3.91578 183.107 4.38467C191.167 4.5534 199.27 5.34116 207.292 5.98256C211.04 6.31152 212.127 8.28745 209.874 10.2442C209.081 10.964 208.073 11.616 207.055 12.1443C205.872 12.8019 204.501 12.7953 203.928 11.6469C203.105 9.93568 201.214 9.52359 199.093 9.34206C191.565 8.73476 184.051 7.82923 176.549 7.59336C158.804 7.10848 141.066 6.7474 123.275 6.61138C100.534 6.55637 77.8099 6.74897 55.0775 6.81777C43.6236 6.85492 32.0576 6.79633 20.6037 6.83348C18.0054 6.86546 15.4244 7.14505 12.7859 7.10385C10.2507 7.03458 7.66669 6.76832 4.56533 6.64239Z" fill="#FF9898"/>
<path d="M247.557 3.27082C245.362 4.1287 243.775 5.10415 241.936 5.44784C236.877 6.33497 231.748 6.97526 226.599 7.66992C225.317 7.82999 223.959 7.97538 222.681 7.90332C221.729 7.83569 220.229 7.48742 220.046 7.10248C219.201 4.78261 216.808 5.07779 214.442 5.08648C199.516 5.1151 184.616 4.85723 169.742 5.18704C152.804 5.58431 135.826 6.09031 118.894 7.12962C93.4366 8.73559 67.9086 10.0947 42.7045 13.2066C33.977 14.3169 25.113 14.7014 16.3349 15.5104C12.9697 15.7923 9.63477 16.4298 6.32526 16.7807C4.79467 16.9511 3.17291 16.929 1.7286 16.6497C0.968432 16.5028 0.167929 15.5904 0.0109994 14.919C-0.0902 14.3166 0.523295 13.3279 1.17713 13.1046C2.77371 12.539 4.5932 12.2497 6.37213 12.0691C15.4339 11.3732 24.5869 10.8697 33.669 10.1194C50.2469 8.72016 66.8299 7.08875 83.4229 5.86725C102.423 4.52833 121.378 3.53027 140.409 2.54689C173.772 0.720949 207.287 1.54687 240.741 0.787557C242.307 0.740624 243.888 0.87146 245.312 1.20504C246.052 1.40635 246.472 2.24528 247.557 3.27082Z" fill="#FF9898"/>
</svg>