<svg xmlns:xlink="http://www.w3.org/1999/xlink" width="91" height="7" viewBox="0 0 91 7" fill="none" xmlns="http://www.w3.org/2000/svg">
<path d="M90.8069 4.31611C89.9952 4.77616 89.4034 5.32822 88.7283 5.48192C86.8733 5.86877 84.9958 6.10088 83.1103 6.36592C82.6409 6.42395 82.1441 6.47048 81.6799 6.38526C81.3339 6.31312 80.7924 6.05015 80.7315 5.80653C80.4565 4.34638 79.5809 4.4525 78.7187 4.38244C73.2817 3.92445 67.858 3.29029 62.4351 3.01998C56.2599 2.72562 50.0683 2.49713 43.8857 2.59957C34.59 2.78041 25.2719 2.80651 16.0468 3.92576C12.8519 4.33352 9.61767 4.28854 6.40869 4.50862C5.17887 4.57553 3.95501 4.86306 2.7445 4.97441C2.18455 5.03086 1.59413 4.96551 1.07201 4.74698C0.797213 4.63197 0.518635 4.04279 0.471046 3.62299C0.442773 3.24762 0.68034 2.65635 0.921686 2.53925C1.51131 2.24074 2.1782 2.11998 2.82876 2.06509C6.13949 1.92395 9.48069 1.90462 12.7996 1.73055C18.8581 1.39443 24.9218 0.915057 30.9833 0.689241C37.9234 0.467611 44.842 0.455097 51.788 0.454084C63.9668 0.389315 76.1629 1.96767 88.3596 2.56475C88.9307 2.58567 89.5048 2.71689 90.0187 2.96835C90.2854 3.1163 90.4265 3.64798 90.8069 4.31611Z" fill="#FF9898"/>
</svg>