<svg width="670" height="120" viewBox="0 0 670 120" preserveAspectRatio="none" fill="none" xmlns="http://www.w3.org/2000/svg">
<g clip-path="url(#clip0_401_2)">
<path opacity="0.25" d="M0 0V46.29C48.9053 68.49 106.008 78.46 161.687 74.29C233.689 68.92 301.199 40.98 373.313 36.79C448.877 32.43 524.297 53.67 596.606 72.05C667.492 90.05 738.133 96.93 810.892 85.13C847.886 79.13 882.373 67.29 917.78 55.79C1012.58 25 1138.97 -14.29 1228 52.47V0H0Z" fill="#6368AC"/>
<path opacity="0.5" d="M93 1L176.81 11.5C190.113 32.61 240.785 61.86 261.303 77.05C314.23 116.27 381.351 116 442.321 96.58C474.198 86.43 503.813 70.51 534.084 56.78C575.959 37.78 620.791 10.78 667.967 7.11C705.073 4.26 740.522 16.53 768.868 38.67C801.379 64.06 832.642 100.67 874.916 111.67C916.3 122.46 958.165 104.98 996.827 87.39C1035.49 69.8 1073.74 48.39 1116.48 44.34C1177.6 38.49 1232.4 67.22 1289.32 83.18C1320.22 91.84 1349.69 89.35 1378.44 75.68C1401.39 64.79 1427.56 48.75 1440.5 26.44V5L93 1Z" fill="#6368AC"/>
<path d="M0 0V5.63C153.429 59 321.42 71.32 486.935 42.57C530.938 34.93 573.13 22.45 617.523 16.11C677.9 7.48 732.628 28.35 786.946 51.51C847.252 77.22 906.677 95.24 973.398 90C1061.95 83 1149.88 44.29 1228 5.19V0H0Z" fill="#6368AC"/>
</g>
<defs>
<clipPath id="clip0_401_2">
<rect width="670" height="120" fill="white"/>
</clipPath>
</defs>
</svg>
